<svg width="1170" height="865" viewBox="0 0 1170 865" fill="none" xmlns="http://www.w3.org/2000/svg">
<path d="M0.367651 385.231C0.533224 384.404 0.533224 384.404 0.702143 383.56C3.84679 375.103 16.3298 370.596 24.0584 366.928C26.2464 365.861 28.3178 364.73 30.3847 363.453C29.3591 360.741 28.1065 358.21 26.7592 355.645C21.9863 346.532 18.2459 337.678 21.4494 327.432C21.6951 326.947 21.9408 326.461 22.194 325.962C21.9573 324.49 21.707 323.02 21.4494 321.551C21.3831 319.913 21.3524 318.274 21.3563 316.635C21.3544 315.813 21.3524 314.992 21.3505 314.145C21.4494 311.994 21.4494 311.994 22.194 309.789C22.0909 308.221 22.0909 308.221 21.778 306.484C20.3298 296.887 19.7105 287.499 19.6809 277.811C19.6754 277.264 19.6699 276.716 19.6642 276.153C19.5426 261.653 21.8474 247.727 30.3847 235.541C30.8761 235.056 31.3675 234.571 31.8739 234.071C31.4525 233.212 31.0311 232.352 30.597 231.467C30.0451 230.329 29.4935 229.19 28.942 228.052C28.5252 227.204 28.5252 227.204 28.0999 226.339C25.643 221.248 24.0165 216.127 25.6029 210.487C27.4868 206.065 30.7174 204.028 34.8523 201.726C34.5903 201.35 34.3282 200.975 34.0583 200.589C23.5351 185.29 14.3102 165.404 17.4471 146.316C19.6428 137.774 24.1314 132.241 31.6877 127.754C35.859 125.45 40.1386 123.45 44.5322 121.597C44.3086 121.143 44.0849 120.689 43.8545 120.222C41.8204 115.749 40.9798 112.419 42.2984 107.63C43.8243 103.864 46.2951 102.889 49.7445 101.014C49.5345 100.534 49.3245 100.054 49.1082 99.5599C42.4712 84.2387 35.5739 67.6639 41.3589 51.031C44.6085 43.383 49.8845 37.7769 57.3971 34.1489C70.1391 29.33 84.1437 31.5645 96.3259 36.8654C102.285 39.5813 107.716 42.8092 113.036 46.6145C113.362 45.9492 113.362 45.9492 113.693 45.2705C115.658 41.4892 117.211 38.9609 121.227 37.0578C124.671 36.0955 126.531 36.2932 129.697 37.7011C131.386 38.4047 131.386 38.4047 133.141 38.5281C135.017 37.5127 136.434 36.2507 138.033 34.8496C143.457 30.4503 149.653 29.1138 156.546 29.4051C167.185 30.6131 177.456 35.3523 185.624 42.1807C186.833 43.1456 186.833 43.1456 188.986 42.9389C189.478 42.3172 189.969 41.6956 190.475 41.0551C194.196 36.3688 200.189 32.9241 206.112 31.912C211.1 31.4561 215.468 32.8107 219.87 35.0592C221.755 35.8065 221.755 35.8065 223.459 34.8123C224.062 34.3707 224.665 33.9291 225.286 33.4741C240.208 23.4764 258.586 18.4454 276.105 15.0041C276.707 14.8838 277.31 14.7634 277.93 14.6394C310.303 8.43827 342.447 15.1811 371.348 30.0254C373.591 31.2178 373.591 31.2178 375.883 31.912C376.366 31.0478 376.366 31.0478 376.86 30.1661C378.116 28.2364 378.116 28.2364 380.35 26.7661C384.988 26.9314 388.31 28.2022 392.357 30.3498C392.861 30.6086 393.365 30.8672 393.884 31.1338C394.868 31.6394 395.851 32.1482 396.831 32.6608C398.768 33.6666 400.727 34.6285 402.688 35.5876C402.933 34.7604 402.933 34.7604 403.183 33.9164C406.206 24.2823 410.471 16.7501 419.589 11.8553C425.073 9.06225 430.534 6.34216 436.754 8.29614C442.861 13.9899 445.635 22.2282 448.854 29.7067C449.359 29.4584 449.864 29.2101 450.384 28.9543C460.774 24.0384 472.699 22.6699 483.944 25.7094C488.338 27.2571 493.586 29.8166 495.764 34.1174C498.866 33.6417 501.426 32.6114 504.278 31.3348C509.532 29.0473 514.87 27.3019 520.383 25.7094C520.86 25.5706 521.336 25.4317 521.828 25.2887C545.572 18.39 569.609 13.7891 594.192 11.0988C594.738 11.039 595.284 10.9791 595.847 10.9174C609.04 9.4933 622.158 8.94698 635.425 8.93941C636.609 8.93868 636.609 8.93862 637.816 8.93789C672.714 8.9722 710.49 10.111 744.463 18.6798C744.509 17.8914 744.556 17.1029 744.603 16.2907C745.34 12.9337 746.07 12.4303 748.931 10.5934C758.156 7.68424 768.924 6.77543 777.971 10.5934C778.662 11.0331 779.353 11.4728 780.065 11.9259C780.871 12.358 780.871 12.358 781.694 12.7988C785.108 11.6733 788.332 9.99614 791.583 8.47709C799.962 5.06608 809.559 6.42729 817.801 9.43333C821.676 11.1542 825.164 13.2889 828.604 15.7393C828.623 15.1537 828.642 14.568 828.662 13.9647C828.963 8.41136 829.678 5.21294 833.677 1.12871C836.087 -0.0950442 837.918 -0.244214 840.518 0.301746C850.923 4.07061 860.288 11.8702 868.813 18.6798C870.653 17.812 872.141 16.9526 873.792 15.7393C888.511 6.966 914.612 15.7114 929.871 19.415C941.432 22.3775 952.424 26.5031 963.378 31.1769C963.661 30.83 963.943 30.483 964.234 30.1256C966.384 27.5554 968.239 25.4605 971.289 23.9176C971.837 23.6314 972.384 23.3452 972.947 23.0504C979.748 20.0963 987.902 21.0673 994.681 23.5701C997.888 25.0112 1000.89 26.7184 1003.89 28.5408C1004.53 28.9256 1005.16 29.3103 1005.82 29.7067C1006.28 30.0355 1006.74 30.3644 1007.22 30.7031C1009.78 31.4718 1011.93 30.3789 1014.34 29.477C1023.34 26.233 1035.21 24.6697 1044.46 28.113C1049.96 31.1224 1053.35 35.0548 1055.71 40.7336C1056.82 40.5571 1056.82 40.5571 1057.95 40.377C1060.89 39.9649 1063.81 39.8555 1066.77 39.8233C1067.32 39.8161 1067.87 39.8087 1068.43 39.8013C1091.56 39.5586 1091.56 39.5587 1102.62 42.939C1103.22 43.1203 1103.82 43.3017 1104.44 43.4885C1120.66 48.5502 1133.35 56.9997 1141.43 72.1142C1151.24 92.3278 1152.19 114.621 1144.96 135.786C1143.7 139.66 1143.4 141.687 1144.97 145.535C1153.44 166.615 1142.88 192.974 1134.64 212.753C1135.22 213.141 1135.22 213.141 1135.81 213.537C1140.08 216.518 1143.36 219.479 1145.06 224.515C1145.71 233.786 1144.52 240.303 1139.11 248.039C1138.45 249.428 1138.45 249.428 1138.36 250.979C1139.12 252.521 1139.12 252.521 1140.32 254.012C1154.81 274.353 1153.74 302.964 1149.7 326.502C1147.67 337.4 1143.73 347.511 1139.11 357.572C1139.75 358.088 1140.4 358.603 1141.07 359.134C1148.39 365.053 1154.76 370.633 1156.14 380.407C1156.74 389.828 1153.02 397.92 1148.79 406.09C1149.29 406.546 1149.8 407.002 1150.32 407.472C1161.2 417.693 1169.21 430.376 1169.91 445.557C1170.32 466.344 1166.14 491.027 1151.9 507.354C1150.35 509.18 1150.35 509.18 1149.53 511.213C1150.05 513.719 1151 515.628 1152.2 517.887C1153.78 521.112 1153.89 523.894 1153.25 527.386C1151.33 532.468 1147.52 535.022 1142.83 537.678C1142.34 537.678 1141.85 537.678 1141.34 537.678C1141.59 538.502 1141.85 539.326 1142.11 540.176C1155.73 585.396 1167.35 635.567 1149.4 681.048C1149.12 681.756 1148.84 682.465 1148.55 683.195C1148.16 684.135 1148.16 684.135 1147.77 685.095C1146.93 688.307 1148 690.772 1149.47 693.636C1149.9 694.485 1149.9 694.485 1150.34 695.351C1150.79 696.243 1150.79 696.243 1151.25 697.154C1155.9 706.573 1160.8 718.047 1157.53 728.58C1155.63 733.645 1152.88 736.064 1148.04 738.367C1147.06 738.367 1146.07 738.367 1145.06 738.367C1145.07 738.794 1145.07 739.222 1145.07 739.663C1145.11 744.196 1145.13 748.729 1145.14 753.263C1145.15 754.945 1145.16 756.627 1145.17 758.31C1145.34 780.289 1144.7 804.583 1129.43 822.171C1128.97 822.704 1128.51 823.238 1128.04 823.787C1120.45 831.926 1109.33 836.503 1098.23 836.962C1092.12 837.084 1085.53 837.024 1079.84 834.57C1077.79 833.842 1077.04 833.791 1075.07 834.668C1073.77 835.871 1073.77 835.871 1072.6 837.379C1067.58 843.233 1062.69 846.959 1054.76 848.156C1050.18 848.355 1047.34 846.869 1044.03 843.903C1042.26 841.691 1041.73 839.431 1041.08 836.709C1040.79 835.517 1040.79 835.517 1040.5 834.3C1040.36 833.694 1040.22 833.087 1040.07 832.462C1039.27 832.928 1039.27 832.928 1038.45 833.402C1016.18 846.286 992.784 859.77 966.356 861.132C965.704 861.171 965.051 861.21 964.378 861.25C951.403 861.638 934.293 860.83 923.986 852.294C922.37 851.355 922.37 851.355 920.281 852.095C919.514 852.409 918.747 852.723 917.957 853.046C916.468 853.553 914.979 854.058 913.489 854.562C912.752 854.813 912.015 855.064 911.255 855.323C905.902 856.913 899.584 857.863 894.222 855.849C891.187 854.11 889.476 852.603 888.408 849.235C887.746 846.488 887.428 844.128 887.428 841.284C886.803 841.515 886.178 841.746 885.534 841.985C854.824 852.773 819.382 850.623 787.371 848.405C786.414 848.341 786.414 848.341 785.438 848.274C778.481 847.789 771.58 847.074 764.678 846.082C764.062 845.995 763.445 845.908 762.81 845.818C758.917 845.228 755.397 844.333 751.816 842.656C750.277 841.954 749.14 841.436 747.442 841.284C745.592 842.202 745.592 842.202 743.719 843.581C734.474 849.646 722.845 853.315 711.701 853.781C711.08 853.81 710.458 853.84 709.819 853.87C701.473 854.071 690.836 853.551 684.476 847.578C682.82 846.259 682.82 846.259 681.265 846.608C679.438 847.181 677.717 847.879 675.959 848.635C674.813 849.106 674.813 849.106 673.644 849.586C672.103 850.218 670.566 850.86 669.034 851.512C663.503 853.709 657.132 854.052 651.387 852.405C648.428 851.079 646.054 849.677 644.22 846.981C643.004 843.704 642.912 841.051 643.197 837.608C642.679 837.786 642.162 837.965 641.629 838.148C633.848 840.68 625.946 842.149 617.88 843.489C617.37 843.579 616.861 843.668 616.336 843.76C597.369 846.993 575.297 846.754 557.567 839.078C556.327 838.585 555.087 838.093 553.844 837.608C553.519 837.91 553.195 838.211 552.861 838.521C548.746 842.196 545.471 843.799 539.754 843.627C532.94 843.02 528.592 840.236 524.135 835.17C523.315 833.933 523.315 833.933 523.315 831.727C522.683 832.181 522.052 832.635 521.401 833.103C513.201 838.965 505.057 844.626 495.904 848.957C495.397 849.199 494.89 849.442 494.367 849.692C488.191 852.511 482.386 853.68 475.66 852.311C472.196 851.044 469.99 849.667 468.214 846.43C468.096 844.445 468.096 844.445 468.138 842.249C468.155 841.153 468.155 841.153 468.171 840.035C468.185 839.477 468.199 838.918 468.214 838.343C467.467 838.593 467.467 838.593 466.706 838.848C445.135 846.015 425.754 848.95 403.25 843.656C400.674 843.447 399.865 844.017 397.848 845.557C392.429 849.638 386.985 849.987 380.35 849.37C375.12 848.096 371.036 845.402 366.947 842.019C366.576 842.375 366.204 842.732 365.822 843.099C351.055 856.709 332.366 862.666 312.473 861.996C299.033 861.179 283.96 856.513 273.906 847.303C272.379 846.204 272.379 846.204 270.404 846.832C269.705 847.124 269.007 847.415 268.287 847.716C262.345 850.133 257.536 851.1 251.347 848.865C248.34 847.565 246.451 846.409 244.832 843.489C244.555 842.024 244.303 840.554 244.087 839.078C243.189 839.412 243.189 839.412 242.272 839.753C236.163 841.903 230.055 843.474 223.703 844.776C222.952 844.93 222.2 845.085 221.426 845.244C213.073 846.905 204.99 847.338 196.479 847.349C195.927 847.35 195.375 847.352 194.806 847.353C168.553 847.37 168.553 847.37 162.18 844.224C162.242 844.982 162.303 845.74 162.366 846.522C162.142 849.949 161.504 851.224 159.202 853.781C154.432 857.603 148.663 857.249 142.82 856.721C137.83 855.882 133.878 853.842 129.659 851.136C127.891 850.083 126.138 849.341 124.205 848.635C123.622 849.341 123.622 849.341 123.027 850.062C117.063 856.982 109.214 863.075 99.8163 864.351C91.6797 864.698 85.7883 860.987 79.9352 855.753C68.003 844.84 60.1354 832.212 54.9625 817.016C54.2825 815.025 53.533 813.086 52.7228 811.144C52.3542 811.386 51.9857 811.629 51.6059 811.879C48.9805 812.916 46.5502 813.03 43.7875 812.614C39.7472 810.696 38.1999 808.401 36.3415 804.528C34.3353 797.115 37.5881 790.413 40.9923 783.967C42.2983 781.739 42.2983 781.739 43.7265 780.346C44.8291 778.666 44.8291 778.666 43.7352 776.148C43.236 775.02 42.7248 773.898 42.2052 772.779C11.662 701.914 11.662 701.914 21.429 677.963C23.633 674.082 26.5496 672.855 30.6638 671.608C31.8089 671.306 32.956 671.011 34.1076 670.735C33.824 670.01 33.824 670.01 33.5346 669.27C22.1668 638.249 28.8386 599.188 38.5753 568.553C37.7921 567.977 37.0088 567.4 36.2019 566.807C32.3183 563.54 29.8146 558.809 28.8954 553.85C28.4125 547.574 28.5781 542.433 31.8738 536.942C32.3653 536.942 32.8567 536.942 33.3631 536.942C33.0665 536.079 32.7699 535.216 32.4643 534.326C27.2036 518.714 26.3176 504.872 26.6616 488.424C26.6731 487.584 26.6846 486.744 26.6965 485.878C26.9142 470.738 28.7571 455.908 32.2258 441.155C32.7576 438.468 32.7842 436.016 32.6185 433.29C33.6013 433.532 34.5842 433.775 35.5969 434.025C35.5969 433.54 35.5969 433.055 35.5969 432.555C34.8904 432.494 34.184 432.433 33.4561 432.371C31.1292 431.82 31.1292 431.82 30.2567 430.542C28.1249 424.794 29.988 418.923 31.9669 413.401C32.5937 411.318 32.7474 409.716 32.6185 407.56C31.7431 407.378 30.8677 407.197 29.9658 407.009C28.6157 406.705 27.2662 406.398 25.917 406.09C25.0445 405.902 24.172 405.713 23.2731 405.519C13.3445 403.186 6.29746 399.255 0.60034 390.653C-0.182976 388.333 -0.132976 387.548 0.367651 385.231Z" fill="#E1F885"/>
<path d="M0.367651 385.231C0.533224 384.404 0.533224 384.404 0.702143 383.56C3.84679 375.103 16.3298 370.596 24.0584 366.928C26.2464 365.861 28.3178 364.73 30.3847 363.453C29.3591 360.741 28.1065 358.21 26.7592 355.645C21.9863 346.532 18.2459 337.678 21.4494 327.432C21.6951 326.947 21.9408 326.461 22.194 325.962C21.9573 324.49 21.707 323.02 21.4494 321.551C21.3831 319.913 21.3524 318.274 21.3563 316.635C21.3544 315.813 21.3524 314.992 21.3505 314.145C21.4494 311.994 21.4494 311.994 22.194 309.789C22.0909 308.221 22.0909 308.221 21.778 306.484C20.3298 296.887 19.7105 287.499 19.6809 277.811C19.6754 277.264 19.6699 276.716 19.6642 276.153C19.5426 261.653 21.8474 247.727 30.3847 235.541C30.8761 235.056 31.3675 234.571 31.8739 234.071C31.4525 233.212 31.0311 232.352 30.597 231.467C30.0451 230.329 29.4935 229.19 28.942 228.052C28.5252 227.204 28.5252 227.204 28.0999 226.339C25.643 221.248 24.0165 216.127 25.6029 210.487C27.4868 206.065 30.7174 204.028 34.8523 201.726C34.5903 201.35 34.3282 200.975 34.0583 200.589C23.5351 185.29 14.3102 165.404 17.4471 146.316C19.6428 137.774 24.1314 132.241 31.6877 127.754C35.859 125.45 40.1386 123.45 44.5322 121.597C44.3086 121.143 44.0849 120.689 43.8545 120.222C41.8204 115.749 40.9798 112.419 42.2984 107.63C43.8243 103.864 46.2951 102.889 49.7445 101.014C49.5345 100.534 49.3245 100.054 49.1082 99.5599C42.4712 84.2387 35.5739 67.6639 41.3589 51.031C44.6085 43.383 49.8845 37.7769 57.3971 34.1489C70.1391 29.33 84.1437 31.5645 96.3259 36.8654C102.285 39.5813 107.716 42.8092 113.036 46.6145C113.362 45.9492 113.362 45.9492 113.693 45.2705C115.658 41.4892 117.211 38.9609 121.227 37.0578C124.671 36.0955 126.531 36.2932 129.697 37.7011C131.386 38.4047 131.386 38.4047 133.141 38.5281C135.017 37.5127 136.434 36.2507 138.033 34.8496C143.457 30.4503 149.653 29.1138 156.546 29.4051C167.185 30.6131 177.456 35.3523 185.624 42.1807C186.833 43.1456 186.833 43.1456 188.986 42.9389C189.478 42.3172 189.969 41.6956 190.475 41.0551C194.196 36.3688 200.189 32.9241 206.112 31.912C211.1 31.4561 215.468 32.8107 219.87 35.0592C221.755 35.8065 221.755 35.8065 223.459 34.8123C224.062 34.3707 224.665 33.9291 225.286 33.4741C240.208 23.4764 258.586 18.4454 276.105 15.0041C276.707 14.8838 277.31 14.7634 277.93 14.6394C310.303 8.43827 342.447 15.1811 371.348 30.0254C373.591 31.2178 373.591 31.2178 375.883 31.912C376.366 31.0478 376.366 31.0478 376.86 30.1661C378.116 28.2364 378.116 28.2364 380.35 26.7661C384.988 26.9314 388.31 28.2022 392.357 30.3498C392.861 30.6086 393.365 30.8672 393.884 31.1338C394.868 31.6394 395.851 32.1482 396.831 32.6608C398.768 33.6666 400.727 34.6285 402.688 35.5876C402.933 34.7604 402.933 34.7604 403.183 33.9164C406.206 24.2823 410.471 16.7501 419.589 11.8553C425.073 9.06225 430.534 6.34216 436.754 8.29614C442.861 13.9899 445.635 22.2282 448.854 29.7067C449.359 29.4584 449.864 29.2101 450.384 28.9543C460.774 24.0384 472.699 22.6699 483.944 25.7094C488.338 27.2571 493.586 29.8166 495.764 34.1174C498.866 33.6417 501.426 32.6114 504.278 31.3348C509.532 29.0473 514.87 27.3019 520.383 25.7094C520.86 25.5706 521.336 25.4317 521.828 25.2887C545.572 18.39 569.609 13.7891 594.192 11.0988C594.738 11.039 595.284 10.9791 595.847 10.9174C609.04 9.4933 622.158 8.94698 635.425 8.93941C636.609 8.93868 636.609 8.93862 637.816 8.93789C672.714 8.9722 710.49 10.111 744.463 18.6798C744.509 17.8914 744.556 17.1029 744.603 16.2907C745.34 12.9337 746.07 12.4303 748.931 10.5934C758.156 7.68424 768.924 6.77543 777.971 10.5934C778.662 11.0331 779.353 11.4728 780.065 11.9259C780.871 12.358 780.871 12.358 781.694 12.7988C785.108 11.6733 788.332 9.99614 791.583 8.47709C799.962 5.06608 809.559 6.42729 817.801 9.43333C821.676 11.1542 825.164 13.2889 828.604 15.7393C828.623 15.1537 828.642 14.568 828.662 13.9647C828.963 8.41136 829.678 5.21294 833.677 1.12871C836.087 -0.0950442 837.918 -0.244214 840.518 0.301746C850.923 4.07061 860.288 11.8702 868.813 18.6798C870.653 17.812 872.141 16.9526 873.792 15.7393C888.511 6.966 914.612 15.7114 929.871 19.415C941.432 22.3775 952.424 26.5031 963.378 31.1769C963.661 30.83 963.943 30.483 964.234 30.1256C966.384 27.5554 968.239 25.4605 971.289 23.9176C971.837 23.6314 972.384 23.3452 972.947 23.0504C979.748 20.0963 987.902 21.0673 994.681 23.5701C997.888 25.0112 1000.89 26.7184 1003.89 28.5408C1004.53 28.9256 1005.16 29.3103 1005.82 29.7067C1006.28 30.0355 1006.74 30.3644 1007.22 30.7031C1009.78 31.4718 1011.93 30.3789 1014.34 29.477C1023.34 26.233 1035.21 24.6697 1044.46 28.113C1049.96 31.1224 1053.35 35.0548 1055.71 40.7336C1056.82 40.5571 1056.82 40.5571 1057.95 40.377C1060.89 39.9649 1063.81 39.8555 1066.77 39.8233C1067.32 39.8161 1067.87 39.8087 1068.43 39.8013C1091.56 39.5586 1091.56 39.5587 1102.62 42.939C1103.22 43.1203 1103.82 43.3017 1104.44 43.4885C1120.66 48.5502 1133.35 56.9997 1141.43 72.1142C1151.24 92.3278 1152.19 114.621 1144.96 135.786C1143.7 139.66 1143.4 141.687 1144.97 145.535C1153.44 166.615 1142.88 192.974 1134.64 212.753C1135.22 213.141 1135.22 213.141 1135.81 213.537C1140.08 216.518 1143.36 219.479 1145.06 224.515C1145.71 233.786 1144.52 240.303 1139.11 248.039C1138.45 249.428 1138.45 249.428 1138.36 250.979C1139.12 252.521 1139.12 252.521 1140.32 254.012C1154.81 274.353 1153.74 302.964 1149.7 326.502C1147.67 337.4 1143.73 347.511 1139.11 357.572C1139.75 358.088 1140.4 358.603 1141.07 359.134C1148.39 365.053 1154.76 370.633 1156.14 380.407C1156.74 389.828 1153.02 397.92 1148.79 406.09C1149.29 406.546 1149.8 407.002 1150.32 407.472C1161.2 417.693 1169.21 430.376 1169.91 445.557C1170.32 466.344 1166.14 491.027 1151.9 507.354C1150.35 509.18 1150.35 509.18 1149.53 511.213C1150.05 513.719 1151 515.628 1152.2 517.887C1153.78 521.112 1153.89 523.894 1153.25 527.386C1151.33 532.468 1147.52 535.022 1142.83 537.678C1142.34 537.678 1141.85 537.678 1141.34 537.678C1141.59 538.502 1141.85 539.326 1142.11 540.176C1155.73 585.396 1167.35 635.567 1149.4 681.048C1149.12 681.756 1148.84 682.465 1148.55 683.195C1148.16 684.135 1148.16 684.135 1147.77 685.095C1146.93 688.307 1148 690.772 1149.47 693.636C1149.9 694.485 1149.9 694.485 1150.34 695.351C1150.79 696.243 1150.79 696.243 1151.25 697.154C1155.9 706.573 1160.8 718.047 1157.53 728.58C1155.63 733.645 1152.88 736.064 1148.04 738.367C1147.06 738.367 1146.07 738.367 1145.06 738.367C1145.07 738.794 1145.07 739.222 1145.07 739.663C1145.11 744.196 1145.13 748.729 1145.14 753.263C1145.15 754.945 1145.16 756.627 1145.17 758.31C1145.34 780.289 1144.7 804.583 1129.43 822.171C1128.97 822.704 1128.51 823.238 1128.04 823.787C1120.45 831.926 1109.33 836.503 1098.23 836.962C1092.12 837.084 1085.53 837.024 1079.84 834.57C1077.79 833.842 1077.04 833.791 1075.07 834.668C1073.77 835.871 1073.77 835.871 1072.6 837.379C1067.58 843.233 1062.69 846.959 1054.76 848.156C1050.18 848.355 1047.34 846.869 1044.03 843.903C1042.26 841.691 1041.73 839.431 1041.08 836.709C1040.79 835.517 1040.79 835.517 1040.5 834.3C1040.36 833.694 1040.22 833.087 1040.07 832.462C1039.27 832.928 1039.27 832.928 1038.45 833.402C1016.18 846.286 992.784 859.77 966.356 861.132C965.704 861.171 965.051 861.21 964.378 861.25C951.403 861.638 934.293 860.83 923.986 852.294C922.37 851.355 922.37 851.355 920.281 852.095C919.514 852.409 918.747 852.723 917.957 853.046C916.468 853.553 914.979 854.058 913.489 854.562C912.752 854.813 912.015 855.064 911.255 855.323C905.902 856.913 899.584 857.863 894.222 855.849C891.187 854.11 889.476 852.603 888.408 849.235C887.746 846.488 887.428 844.128 887.428 841.284C886.803 841.515 886.178 841.746 885.534 841.985C854.824 852.773 819.382 850.623 787.371 848.405C786.414 848.341 786.414 848.341 785.438 848.274C778.481 847.789 771.58 847.074 764.678 846.082C764.062 845.995 763.445 845.908 762.81 845.818C758.917 845.228 755.397 844.333 751.816 842.656C750.277 841.954 749.14 841.436 747.442 841.284C745.592 842.202 745.592 842.202 743.719 843.581C734.474 849.646 722.845 853.315 711.701 853.781C711.08 853.81 710.458 853.84 709.819 853.87C701.473 854.071 690.836 853.551 684.476 847.578C682.82 846.259 682.82 846.259 681.265 846.608C679.438 847.181 677.717 847.879 675.959 848.635C674.813 849.106 674.813 849.106 673.644 849.586C672.103 850.218 670.566 850.86 669.034 851.512C663.503 853.709 657.132 854.052 651.387 852.405C648.428 851.079 646.054 849.677 644.22 846.981C643.004 843.704 642.912 841.051 643.197 837.608C642.679 837.786 642.162 837.965 641.629 838.148C633.848 840.68 625.946 842.149 617.88 843.489C617.37 843.579 616.861 843.668 616.336 843.76C597.369 846.993 575.297 846.754 557.567 839.078C556.327 838.585 555.087 838.093 553.844 837.608C553.519 837.91 553.195 838.211 552.861 838.521C548.746 842.196 545.471 843.799 539.754 843.627C532.94 843.02 528.592 840.236 524.135 835.17C523.315 833.933 523.315 833.933 523.315 831.727C522.683 832.181 522.052 832.635 521.401 833.103C513.201 838.965 505.057 844.626 495.904 848.957C495.397 849.199 494.89 849.442 494.367 849.692C488.191 852.511 482.386 853.68 475.66 852.311C472.196 851.044 469.99 849.667 468.214 846.43C468.096 844.445 468.096 844.445 468.138 842.249C468.155 841.153 468.155 841.153 468.171 840.035C468.185 839.477 468.199 838.918 468.214 838.343C467.467 838.593 467.467 838.593 466.706 838.848C445.135 846.015 425.754 848.95 403.25 843.656C400.674 843.447 399.865 844.017 397.848 845.557C392.429 849.638 386.985 849.987 380.35 849.37C375.12 848.096 371.036 845.402 366.947 842.019C366.576 842.375 366.204 842.732 365.822 843.099C351.055 856.709 332.366 862.666 312.473 861.996C299.033 861.179 283.96 856.513 273.906 847.303C272.379 846.204 272.379 846.204 270.404 846.832C269.705 847.124 269.007 847.415 268.287 847.716C262.345 850.133 257.536 851.1 251.347 848.865C248.34 847.565 246.451 846.409 244.832 843.489C244.555 842.024 244.303 840.554 244.087 839.078C243.189 839.412 243.189 839.412 242.272 839.753C236.163 841.903 230.055 843.474 223.703 844.776C222.952 844.93 222.2 845.085 221.426 845.244C213.073 846.905 204.99 847.338 196.479 847.349C195.927 847.35 195.375 847.352 194.806 847.353C168.553 847.37 168.553 847.37 162.18 844.224C162.242 844.982 162.303 845.74 162.366 846.522C162.142 849.949 161.504 851.224 159.202 853.781C154.432 857.603 148.663 857.249 142.82 856.721C137.83 855.882 133.878 853.842 129.659 851.136C127.891 850.083 126.138 849.341 124.205 848.635C123.622 849.341 123.622 849.341 123.027 850.062C117.063 856.982 109.214 863.075 99.8163 864.351C91.6797 864.698 85.7883 860.987 79.9352 855.753C68.003 844.84 60.1354 832.212 54.9625 817.016C54.2825 815.025 53.533 813.086 52.7228 811.144C52.3542 811.386 51.9857 811.629 51.6059 811.879C48.9805 812.916 46.5502 813.03 43.7875 812.614C39.7472 810.696 38.1999 808.401 36.3415 804.528C34.3353 797.115 37.5881 790.413 40.9923 783.967C42.2983 781.739 42.2983 781.739 43.7265 780.346C44.8291 778.666 44.8291 778.666 43.7352 776.148C43.236 775.02 42.7248 773.898 42.2052 772.779C11.662 701.914 11.662 701.914 21.429 677.963C23.633 674.082 26.5496 672.855 30.6638 671.608C31.8089 671.306 32.956 671.011 34.1076 670.735C33.824 670.01 33.824 670.01 33.5346 669.27C22.1668 638.249 28.8386 599.188 38.5753 568.553C37.7921 567.977 37.0088 567.4 36.2019 566.807C32.3183 563.54 29.8146 558.809 28.8954 553.85C28.4125 547.574 28.5781 542.433 31.8738 536.942C32.3653 536.942 32.8567 536.942 33.3631 536.942C33.0665 536.079 32.7699 535.216 32.4643 534.326C27.2036 518.714 26.3176 504.872 26.6616 488.424C26.6731 487.584 26.6846 486.744 26.6965 485.878C26.9142 470.738 28.7571 455.908 32.2258 441.155C32.7576 438.468 32.7842 436.016 32.6185 433.29C33.6013 433.532 34.5842 433.775 35.5969 434.025C35.5969 433.54 35.5969 433.055 35.5969 432.555C34.8904 432.494 34.184 432.433 33.4561 432.371C31.1292 431.82 31.1292 431.82 30.2567 430.542C28.1249 424.794 29.988 418.923 31.9669 413.401C32.5937 411.318 32.7474 409.716 32.6185 407.56C31.7431 407.378 30.8677 407.197 29.9658 407.009C28.6157 406.705 27.2662 406.398 25.917 406.09C25.0445 405.902 24.172 405.713 23.2731 405.519C13.3445 403.186 6.29746 399.255 0.60034 390.653C-0.182976 388.333 -0.132976 387.548 0.367651 385.231ZM8.79102 387.712C17.8402 396.595 29.1783 398.832 41.5392 399.247C43.7876 399.474 43.7876 399.474 45.2768 400.944C44.9987 403.533 44.1542 405.657 43.0197 407.988C42.7231 408.613 42.4265 409.238 42.1209 409.882C41.498 411.176 40.8717 412.468 40.242 413.759C38.401 417.656 37.3693 420.904 37.0861 425.203C39.0938 423.452 40.0943 421.659 41.228 419.276C42.2139 417.212 42.8914 415.796 44.5322 414.177C46.1145 413.717 46.1145 413.717 47.5106 413.441C46.9238 415.571 46.3339 417.7 45.7422 419.828C45.4945 420.728 45.4945 420.728 45.2419 421.647C44.9971 422.525 44.9971 422.525 44.7474 423.42C44.5992 423.955 44.4511 424.49 44.2984 425.042C43.7876 426.674 43.7876 426.674 43.0601 428.355C42.0933 430.886 41.5796 433.456 41.0651 436.104C40.9551 436.654 40.845 437.204 40.7316 437.771C40.3817 439.524 40.0368 441.277 39.6922 443.03C39.3475 444.769 39.0018 446.507 38.6555 448.245C38.4321 449.367 38.2095 450.489 37.9876 451.611C37.4589 454.272 36.9046 456.92 36.2717 459.559C34.204 468.73 33.8852 477.608 33.9681 486.954C33.9762 488.235 33.9843 489.517 33.9924 490.798C34.0152 493.88 34.051 496.962 34.0902 500.043C34.1057 501.473 34.1112 502.902 34.1153 504.331C34.1472 514.961 35.7033 524.688 40.5852 534.283C41.5537 536.207 41.5537 536.207 41.5072 537.953C40.8897 539.66 40.1705 541.132 39.3199 542.731C37.5575 546.167 36.5913 548.916 37.5544 552.796C38.9443 556.924 40.7873 560.429 43.3687 563.947C43.7527 564.496 44.1366 565.046 44.5322 565.612C45.3946 566.752 45.3946 566.752 46.2744 567.915C47.5917 570.249 47.5783 571.627 46.9551 574.21C46.5518 575.545 46.1308 576.875 45.6956 578.201C42.6974 588.33 40.9383 598.565 39.3199 608.985C39.22 609.597 39.12 610.209 39.017 610.84C35.9071 630.255 35.8091 653.4 44.3925 671.47C45.2768 673.675 45.2768 673.675 45.3233 675.697C44.5322 677.351 44.5322 677.351 42.8568 678.592C39.4277 679.776 36.0969 680.142 32.4905 680.495C30.3379 680.812 30.3379 680.812 29.3666 682.325C22.1725 707.403 42.286 749.878 50.497 773.557C52.1907 778.848 52.1907 778.848 51.5396 780.949C51.2956 781.389 51.0516 781.83 50.8002 782.284C50.5358 782.78 50.2713 783.276 49.9989 783.786C49.7153 784.293 49.4316 784.8 49.1394 785.322C46.0613 790.934 44.0873 795.845 44.5321 802.322C45.2693 803.05 45.2693 803.05 46.0214 803.792C48.5476 803.544 50.0108 802.414 51.9317 800.852C55.9003 797.835 55.9003 797.835 58.6797 797.911C60.2532 798.756 60.2532 798.756 61.6581 800.117C61.981 802.009 61.981 802.009 61.9839 804.298C62.7037 817.951 69.6604 831.218 78.7841 841.284C79.3206 841.909 79.8572 842.535 80.41 843.179C84.7539 848.144 89.4437 853.157 95.9101 855.251C102.408 855.142 107.815 852.516 112.431 848.038C113.909 846.499 115.285 844.94 116.614 843.274C119.866 839.242 119.866 839.242 122.902 838.435C127.001 839.379 130.274 841.406 133.885 843.489C135.212 844.192 136.546 844.882 137.887 845.557C138.461 845.85 139.035 846.142 139.627 846.444C143.382 848.032 146.99 848.092 151.011 847.9C151.748 847.415 152.485 846.93 153.245 846.43C153.558 844.2 153.572 842.023 153.614 839.773C153.989 837.608 153.989 837.608 155.258 835.828C156.968 834.668 156.968 834.668 158.821 834.65C159.515 834.808 160.209 834.965 160.924 835.127C161.713 835.287 162.502 835.447 163.315 835.612C164.169 835.786 165.023 835.959 165.903 836.138C190.245 839.802 212.171 838.447 235.896 832.462C238.332 831.856 240.768 831.252 243.204 830.65C244.705 830.278 246.205 829.903 247.704 829.525C252.184 828.405 256.673 827.431 261.213 826.581C259.439 828.391 257.601 829.716 255.489 831.13C253.023 832.914 253.023 832.914 251.841 835.575C251.821 837.37 251.821 837.37 252.278 839.814C255.078 841.657 257.973 841.732 261.213 841.284C264.758 840.25 267.815 839.041 270.66 836.689C273.006 834.937 274.732 835.181 277.594 835.403C277.702 836.024 277.809 836.646 277.92 837.287C281.074 844.138 289.469 847.028 296.205 849.582C299.853 850.86 303.572 851.658 307.379 852.311C307.901 852.406 308.423 852.502 308.961 852.601C324.877 855.056 340.507 850.258 353.674 841.531C356.389 839.569 358.783 837.274 361.19 834.961C365.014 831.318 369.132 828.64 373.649 825.846C372.543 830.577 372.543 830.577 371.415 835.403C379.818 840.357 379.818 840.357 389.285 840.549C391.577 839.622 393.456 838.577 395.242 836.873C396.078 834.919 396.078 834.919 395.987 833.197C399.794 832.061 401.889 832.607 405.527 834.162C411.632 836.668 417.727 837.196 424.282 837.608C424.964 837.653 425.645 837.697 426.347 837.743C442.238 838.198 457.067 832.864 471.541 827.006C476.228 825.134 480.57 823.862 485.596 823.242C487.658 822.891 489.386 822.266 491.297 821.435C490.442 822.279 489.587 823.122 488.728 823.962C487.924 824.763 487.131 825.576 486.349 826.398C484.22 828.599 482.439 830.324 479.616 831.589C476.202 833.815 475.001 836.635 474.171 840.549C474.311 842.525 474.311 842.525 474.915 844.224C477.715 846.186 480.755 845.816 484.011 845.39C494.707 843.168 504.179 836.032 512.797 829.706C524.37 821.214 524.37 821.214 528.574 821.114C530.761 821.435 530.761 821.435 531.505 822.171C531.482 823.473 531.43 824.775 531.366 826.076C531.299 829.314 531.299 829.314 532.762 832.141C536.462 834.411 539.04 834.978 543.361 834.378C545.776 833.683 546.602 832.325 547.887 830.257C549.236 828.143 549.236 828.143 550.865 826.581C554.362 826.378 556.373 827.421 559.103 829.384C577.227 842.009 607.037 835.76 627.302 833.085C629.636 832.777 631.97 832.47 634.305 832.164C637.413 831.756 640.519 831.338 643.624 830.914C645.07 830.722 646.515 830.529 647.961 830.337C648.627 830.244 649.293 830.151 649.98 830.055C653.114 829.645 655.745 829.343 658.833 830.257C658.833 830.742 658.833 831.227 658.833 831.727C658.296 831.818 657.758 831.909 657.205 832.003C655.109 832.463 653.308 832.984 651.387 833.933C650.382 836.911 650.243 839.641 650.643 842.754C652.173 844.856 654.072 845.176 656.553 845.649C662.456 846.094 667.967 843.651 673.281 841.359C673.841 841.119 674.401 840.88 674.978 840.633C676.078 840.157 677.172 839.666 678.259 839.16C680.888 838.009 682.183 837.519 685.078 838.062C686.978 839.004 688.532 839.992 690.2 841.284C698.183 846.705 709.524 845.453 718.638 844.043C728.107 842.13 736.487 838.437 744.324 832.876C746.478 831.431 747.192 831.002 749.862 830.9C751.909 831.727 751.909 831.727 753.585 833.106C759.024 837.255 766.566 837.433 773.177 838.022C774.148 838.112 775.119 838.201 776.119 838.294C817.311 842.029 856.256 841.464 896.363 830.257C896.121 830.688 895.879 831.119 895.63 831.564C893.486 836.197 895.206 842.418 896.363 847.165C897.703 848.488 899.624 848.089 901.436 848.13C908.76 848.058 914.5 846.413 919.804 841.393C920.935 840.549 920.935 840.549 923.309 840.411C925.891 841.488 926.643 842.802 928.381 844.96C939.743 853.503 959.438 852.695 972.948 851.367C999.952 847.671 1024.12 831.58 1046.77 817.76C1046.75 818.665 1046.73 819.57 1046.71 820.502C1046.71 822.807 1046.89 824.645 1047.75 826.811C1049.16 830.595 1050.2 834.448 1051.24 838.343C1055.86 838.84 1058.42 838.141 1062.18 835.44C1065.88 832.199 1070.58 827.945 1071.35 822.906C1076 822.488 1078.51 823.247 1082.46 825.706C1088.62 829.192 1099.3 828.091 1106 826.814C1107.97 826.138 1109.72 825.357 1111.55 824.376C1112.19 824.064 1112.83 823.753 1113.48 823.431C1123.97 817.844 1129.08 807.506 1132.68 796.717C1135.94 785.188 1136.25 773.074 1136.02 761.178C1136 759.067 1135.98 756.955 1135.97 754.843C1135.95 753.404 1135.91 751.966 1135.86 750.528C1135.47 738.764 1135.47 738.764 1137.82 735.63C1139.79 733.834 1141.78 732.734 1144.18 731.531C1146.73 730.185 1147.94 728.972 1149.53 726.605C1152 715.684 1145.42 703.661 1139.97 694.595C1138.41 691.903 1137.61 690.337 1137.63 687.181C1138.42 684.513 1139.47 682.223 1140.73 679.74C1159.25 640.485 1146.66 591.823 1136 552.153C1135.75 551.236 1135.51 550.319 1135.25 549.374C1134.79 547.692 1134.33 546.012 1133.85 544.335C1133.55 543.231 1133.55 543.231 1133.24 542.106C1133.06 541.476 1132.88 540.846 1132.69 540.197C1132.36 538.124 1132.51 536.736 1133.15 534.737C1135.73 532.251 1138.02 530.852 1141.34 529.591C1144.15 527.787 1144.15 527.787 1145.65 524.948C1145.85 522.5 1145.26 521.351 1144.08 519.208C1143.75 518.584 1143.41 517.961 1143.07 517.318C1142.3 515.988 1141.46 514.695 1140.59 513.418C1139.84 508.412 1141.87 505.903 1144.74 502.07C1156.38 485.641 1163.38 462.868 1160.47 442.724C1158.04 429.366 1150.49 420.052 1140.87 410.805C1138.79 408.684 1137.68 406.979 1137.48 404.023C1137.52 403.492 1137.57 402.961 1137.62 402.415C1139.34 402.172 1141.06 401.93 1142.83 401.68C1143.43 399.903 1144.04 398.127 1144.64 396.35C1144.81 395.849 1144.99 395.347 1145.16 394.831C1147.16 388.938 1148.78 383.02 1146.59 376.912C1142.65 369.785 1135.62 365.256 1128.68 361.248C1129.05 356.712 1130.6 353.279 1132.59 349.21C1139.71 334.063 1142.5 318.629 1142.38 301.964C1142.36 300.087 1142.38 298.211 1142.39 296.334C1142.4 285.609 1140.93 275.876 1137.01 265.817C1136.13 263.476 1136.13 263.476 1135.43 260.832C1134.63 258.295 1133.72 256.789 1132.03 254.747C1131.35 253.908 1131.35 253.908 1130.66 253.052C1129.51 251.646 1129.51 251.646 1127.94 250.979C1127.7 249.003 1127.7 249.003 1127.94 246.568C1129.57 244.822 1129.57 244.822 1131.66 242.893C1134.66 238.801 1136.22 235.531 1136.31 230.442C1136.33 229.828 1136.35 229.215 1136.37 228.584C1136.06 226.19 1135.39 224.956 1133.89 223.044C1131.75 221.56 1131.75 221.56 1129.33 220.334C1125.03 218.035 1125.03 218.035 1124.21 216.428C1123.75 213.371 1124.37 211.546 1125.83 208.925C1128.27 204.241 1129.93 199.339 1131.59 194.353C1132.12 192.779 1132.66 191.21 1133.2 189.641C1136.28 180.576 1138.82 171.445 1138.64 161.799C1138.63 161.169 1138.62 160.54 1138.61 159.891C1138.41 152.26 1136.05 146.801 1132.31 140.233C1130.76 137.512 1129.58 134.881 1128.68 131.889C1131.38 132.374 1134.09 132.859 1136.87 133.359C1139.39 122.057 1139.39 122.057 1140.59 110.57C1140.65 109.659 1140.65 109.659 1140.71 108.73C1141.23 94.3571 1136.52 77.9284 1126.96 67.0143C1115.87 55.5359 1099.27 49.4788 1083.25 48.7519C1081.71 48.7239 1080.16 48.718 1078.62 48.7223C1077.77 48.7213 1077.77 48.7212 1076.9 48.7202C1075.72 48.7197 1074.53 48.721 1073.34 48.7241C1071.55 48.728 1069.76 48.7241 1067.97 48.7194C1061.61 48.717 1055.34 48.8799 1049.01 49.5551C1048.89 48.7764 1048.89 48.7764 1048.78 47.982C1048.08 43.4939 1047.3 40.8088 1043.8 37.7931C1036.81 33.8603 1027.56 34.8943 1020.06 36.7823C1016.11 37.9302 1012.9 39.3167 1009.64 41.7903C1007.94 43.0236 1006.15 44.028 1004.32 45.046C1001.53 46.6226 998.814 48.3222 996.094 50.0145C995.48 50.3967 994.866 50.7788 994.233 51.1725C988.765 54.6042 983.484 58.2566 978.27 62.0522C982.636 52.5835 991.74 43.4742 999.864 37.0579C994.368 32.3102 987.881 29.342 980.504 29.7986C974.101 30.6563 969.896 33.9278 965.016 37.9366C963.378 39.2633 963.378 39.2633 961.144 40.7336C959.266 39.9883 957.574 39.1836 955.792 38.2525C937.243 29.1656 900.278 15.5168 879.578 22.2349C875.665 24.0536 873.999 25.7853 872.536 29.7067C870.036 29.8984 868.521 29.9767 866.343 28.6786C865.792 28.1991 865.24 27.7197 864.671 27.2256C864.028 26.6874 863.385 26.1492 862.722 25.5946C862.029 25.0109 861.336 24.4271 860.622 23.8257C855.514 19.7912 850.294 15.9375 844.892 12.2934C844.416 11.9652 843.94 11.637 843.449 11.2988C842.263 10.5128 841.021 9.81017 839.773 9.12322C839.036 9.36577 838.299 9.60839 837.539 9.85833C836.574 14.6224 837.014 17.9139 839.029 22.3555C839.52 23.0832 840.011 23.811 840.518 24.5608C840.657 26.4905 840.657 26.4905 840.518 28.2364C839.773 28.9715 839.773 28.9715 836.841 29.2932C831.553 29.2272 827.904 26.1102 823.7 23.2514C815.736 17.9944 807.349 14.2856 797.688 16.0896C794.181 16.9725 791.62 18.1969 788.721 20.3338C786.375 21.9689 784.912 22.6839 782.02 22.4933C778.936 21.9121 776.587 20.572 774.044 18.7947C771.053 16.8169 767.882 17.0747 764.428 17.0718C763.613 17.0582 763.613 17.0582 762.78 17.0445C758.926 17.0343 755.577 17.4673 751.909 18.6798C751.664 19.4076 751.418 20.1354 751.165 20.8852C751.9 21.1249 752.635 21.3647 753.393 21.6117C754.357 21.9358 755.32 22.2603 756.284 22.5852C756.769 22.742 757.253 22.8988 757.753 23.0604C760.446 23.9787 761.451 24.3559 763.079 26.7662C751.051 27.0497 739.299 25.9551 727.372 24.4832C699.955 21.1104 672.333 18.3565 644.686 17.9447C643.983 17.9296 643.279 17.9146 642.555 17.8991C620.807 17.4586 599.172 19.2573 577.671 22.3554C576.795 22.4792 575.918 22.603 575.015 22.7305C533.181 27.5606 533.181 27.5606 496.509 43.674C494.778 43.9152 494.778 43.9152 492.786 43.674C491.329 42.3301 491.329 42.3301 489.947 40.5497C486.613 36.5925 483.043 34.3272 477.894 33.3823C465.206 32.6516 465.206 32.6516 454.02 37.793C452.49 39.2114 451.53 40.4469 450.343 42.2037C448.203 42.5713 448.203 42.5713 445.876 42.2037C443.622 39.8235 442.29 37.4775 441.082 34.4648C440.769 33.7006 440.456 32.9363 440.134 32.1489C439.659 30.9627 439.659 30.9627 439.174 29.7526C436.426 22.7944 436.426 22.7944 432.473 16.4744C426.444 17.4136 419.994 20.3246 416.263 25.2184C414.317 28.505 412.976 32.0326 411.624 35.5876C411.101 36.9523 410.574 38.3155 410.041 39.6768C409.825 40.2538 409.608 40.831 409.384 41.4255C408.587 43.0585 407.828 43.9995 406.412 45.1442C404.178 45.8794 404.178 45.8794 402.319 45.1672C401.235 44.61 401.235 44.61 400.129 44.0416C399.342 43.6379 398.555 43.2342 397.744 42.8183C394.46 41.0463 391.231 39.1925 388.02 37.2933C386.529 36.2618 386.529 36.2618 385.563 36.3227C385.388 39.8438 385.388 39.8438 387.052 42.9389C387.543 42.9389 388.035 42.9389 388.541 42.9389C388.541 43.6666 388.541 44.3944 388.541 45.1442C388.05 44.9017 387.558 44.659 387.052 44.4091C386.115 44.3484 385.178 44.2878 384.213 44.2253C377.117 43.468 370.879 40.1705 364.714 36.8282C331.044 18.7737 294.185 18.4466 258.142 28.7877C245.046 32.7239 233.464 38.2602 222.336 46.0918C220.26 47.3496 220.26 47.3496 218.258 47.028C216.22 45.6683 215.517 44.289 214.303 42.2037C211.726 40.2957 209.24 40.3849 206.112 40.7335C200.749 42.5906 196.069 45.7176 192.709 50.2901C192.15 52.2353 192.15 52.2353 191.965 53.9657C190.472 54.586 190.472 54.586 188.242 54.7008C186.094 53.5942 184.242 52.1183 182.331 50.6576C173.383 44.1267 163.194 37.8353 151.663 38.1749C146.598 39.0105 141.567 41.4782 138.167 45.328C136.73 47.1569 136.73 47.1569 136.864 48.8198C134.444 49.4171 134.444 49.4171 131.651 49.5549C129.929 47.809 129.929 47.809 128.673 45.8794C126.656 44.8837 124.943 45.0964 122.716 45.1442C122.193 46.0571 121.684 46.9775 121.18 47.9009C120.753 48.6685 120.753 48.6685 120.316 49.4516C119.627 51.3249 119.738 52.1343 120.482 53.9657C120.974 54.4509 121.465 54.9361 121.971 55.4359C122.437 56.9981 122.437 56.9981 122.716 58.3764C115.947 57.0172 110.24 54.2243 104.177 51.0974C91.0722 44.3399 78.2222 37.8541 62.9147 41.4226C57.4308 43.3388 52.736 47.6516 50.0703 52.7252C45.1792 65.1121 49.3312 78.705 54.1656 90.4922C56.084 94.6826 58.3477 98.4804 61.6582 101.749C61.6885 102.974 61.69 104.2 61.6582 105.424C59.0035 106.857 56.5073 107.401 53.5577 107.951C51.7724 108.329 51.7724 108.329 49.7445 109.835C49.4193 112.617 49.685 114.754 50.396 117.462C51.7662 119.531 51.7662 119.531 53.7846 119.828C55.6738 120.018 57.526 120.12 59.4244 120.127C59.2585 122.965 59.148 124.736 57.2371 126.927C55.2294 128.059 53.7367 128.611 51.542 129.204C43.6506 131.484 34.0886 134.821 28.9391 141.431C24.1653 150.422 26.3383 162.22 29.1558 171.556C32.4825 181.86 37.0215 190.877 44.477 198.843C46.2675 201.333 46.5647 203.122 46.766 206.136C46.2477 206.334 45.7294 206.531 45.1954 206.734C42.8765 207.674 40.638 208.718 38.3892 209.812C37.6021 210.191 36.8151 210.57 36.0041 210.961C34.0284 211.832 34.0284 211.832 33.3631 213.488C32.9639 219.116 35.2307 223.958 37.569 228.941C39.7926 233.831 39.7926 233.831 38.5754 237.012C37.7849 238.767 36.9695 240.483 36.1088 242.203C30.4498 253.903 28.6306 265.048 28.7013 277.919C28.7093 279.647 28.7013 281.373 28.6918 283.1C28.687 288.988 28.965 294.614 30.0473 300.426C30.725 304.467 30.8421 308.293 29.64 312.224C28.2522 317.276 28.0347 322.849 30.0589 327.753C31.2468 330.704 31.0882 332.969 30.757 336.116C29.9216 344.752 32.8539 352.27 37.0861 359.777C37.5776 360.02 38.069 360.263 38.5753 360.512C39.7016 362.151 40.0582 363.213 40.1111 365.199C37.8408 370.736 31.1837 373.166 26.0566 375.537C15.7668 379.801 15.7668 379.801 8.79102 387.712Z" fill="#010100"/>
</svg>
