<svg width="404" height="1261" viewBox="0 0 404 1261" fill="none" xmlns="http://www.w3.org/2000/svg">
<path d="M4.11529 181.492C4.17245 181.106 4.17246 181.106 4.23077 180.713C5.31645 176.773 8.62616 175.673 11.2944 173.963C12.0498 173.466 12.765 172.939 13.4785 172.344C13.1245 171.081 12.692 166.901 12.2269 165.706C10.579 161.46 9.28768 157.334 10.3937 152.56C10.4785 152.334 10.5633 152.108 10.6507 151.875C10.569 151.189 10.4826 150.504 10.3937 149.82C10.3708 149.057 10.3602 148.293 10.3615 147.529C10.3609 147.146 10.3602 146.764 10.3595 146.369C10.3937 145.367 10.3937 145.367 10.6507 144.339C10.6152 143.609 10.6152 143.609 10.5072 142.799C10.0071 138.328 9.79336 133.953 9.78313 129.439C9.78123 129.184 9.77933 128.929 9.77737 128.666C9.73537 121.91 10.5311 115.421 13.4786 109.743C13.6482 109.517 13.8179 109.291 13.9927 109.058C13.8472 108.658 13.7017 108.257 13.5519 107.845C13.3613 107.314 13.1709 106.784 12.9805 106.254C12.8366 105.859 12.8366 105.859 12.6898 105.456C11.8415 103.083 11.28 100.698 11.8277 98.0693C12.4781 96.0092 13.5934 95.0599 15.021 93.9869C14.9305 93.8121 14.8401 93.6372 14.7469 93.457C11.1138 86.3285 7.92891 77.0625 9.01193 68.1683C9.76999 64.1882 11.3196 61.6105 13.9284 59.5194C15.3685 58.4462 16.8461 57.514 18.363 56.6506C18.2857 56.4391 18.2085 56.2278 18.129 56.0099C17.4267 53.9259 19.1447 54.5586 19.5999 52.327C20.1267 50.5721 18.9716 47.9338 20.1625 47.0598C20.09 46.8363 22.8792 44.7664 22.8045 44.536C20.5131 37.397 15.2701 31.5204 17.2674 23.7701C18.3893 20.2065 20.2108 19.5942 22.8045 17.9038C27.2036 15.6584 32.0387 16.6997 36.2445 19.1697C38.3019 20.4352 40.1769 21.9392 42.0137 23.7123C42.126 23.4023 42.126 23.4023 42.2406 23.0861C42.9189 21.3241 43.455 20.146 44.8415 19.2593C46.0305 18.8109 46.6727 18.9031 47.7657 19.5591C48.3491 19.887 48.3491 19.8868 48.9546 19.9443C49.6025 19.4712 50.0916 18.8833 50.6437 18.2305C52.5163 16.1805 54.6557 15.5577 57.0354 15.6935C60.7085 16.2564 64.2545 18.4646 67.0743 21.6464C67.4916 22.096 67.4916 22.0958 68.2351 21.9995C68.4048 21.7098 68.5744 21.4203 68.7492 21.1218C70.0338 18.9382 72.1028 17.3331 74.1478 16.8616C75.8697 16.6492 77.3777 17.2804 78.8976 18.3281C79.5483 18.6764 79.5483 18.6763 80.1368 18.213C80.3449 18.0072 80.553 17.8014 80.7674 17.5894C85.9193 12.9309 92.264 9.5868 98.3126 7.98328C98.5205 7.92725 98.7284 7.87122 98.9426 7.81348C110.119 4.92408 121.217 9.0658 131.195 15.9826C131.969 16.5382 131.969 16.5381 132.76 16.8616C132.927 16.4589 132.927 16.4589 133.098 16.0481C133.532 15.1489 133.532 15.1489 134.303 14.4639C135.904 14.5409 137.051 15.1331 138.448 16.1338C138.622 16.2543 138.796 16.3749 138.975 16.499C139.315 16.7346 139.654 16.9718 139.993 17.2106C140.662 17.6792 141.338 18.1273 142.015 18.5742C142.1 18.1887 142.099 18.1889 142.186 17.7955C143.23 13.3065 144.702 8.79688 147.85 6.51612C149.743 5.21473 151.629 3.94727 153.776 4.8578C154.884 8.51087 155.842 11.3494 156.954 14.834C157.128 14.7183 157.302 14.6025 157.482 14.4834C161.069 12.1929 166.186 11.5552 170.068 12.9714C171.585 13.6926 173.397 14.8851 174.149 16.8892C175.22 16.6675 176.104 16.1876 177.088 15.5928C178.902 14.5269 182.745 14.7135 184.649 13.9714C184.813 13.9067 184.479 12.2208 184.649 12.1542C192.846 8.93971 199.644 6.41725 208.131 5.16371C208.319 5.13588 208.508 5.1078 208.702 5.07911C213.257 4.41554 217.786 4.16102 222.366 4.15748C222.775 4.15712 222.775 4.15712 223.192 4.15675C235.24 4.17274 248.282 4.70338 260.011 8.69606C260.027 8.32875 260.043 7.96132 260.06 7.58278C260.314 6.01857 260.566 5.78395 261.554 4.92812C264.739 3.57253 268.456 3.14906 271.58 4.92812C271.818 5.13295 272.057 5.33791 272.303 5.54897C272.581 5.75026 272.581 5.75026 272.865 5.95571C274.044 5.43129 275.157 4.64968 276.279 3.94191C279.172 2.35256 282.486 2.98683 285.331 4.38747C286.669 5.18923 287.873 6.18398 289.061 7.32582C289.067 7.053 289.074 6.78017 289.081 6.49904C289.185 3.91139 289.431 2.42116 290.812 0.518084C291.644 -0.0521061 292.276 -0.121686 293.174 0.132708C296.766 1.88881 300 5.52309 302.943 8.69606C303.578 8.29164 304.092 7.89113 304.662 7.32582C309.743 3.23781 318.755 7.31276 324.023 9.03847C328.014 10.4188 331.809 12.3413 335.591 14.5191C335.688 14.3574 335.786 14.1957 335.886 14.0292C336.629 12.8317 337.269 11.8554 338.322 11.1365C338.511 11.0032 338.7 10.8698 338.895 10.7324C341.242 9.35598 344.058 9.80849 346.398 10.9748C347.505 11.6463 348.542 12.4417 349.577 13.2908C349.797 13.4701 350.017 13.6493 350.244 13.834C350.403 13.9872 350.563 14.1405 350.727 14.2984C351.612 14.6565 352.355 14.1474 353.184 13.7271C356.294 12.2156 360.391 11.4871 363.585 13.0915C365.482 14.4937 366.652 16.3261 367.468 18.9721C367.851 18.8898 367.851 18.8897 368.241 18.8058C369.255 18.6138 370.264 18.5629 371.287 18.5479C371.476 18.5445 371.665 18.541 371.86 18.5376C379.845 18.4246 379.845 18.4245 383.663 19.9995C383.871 20.084 384.078 20.1686 384.292 20.2556C389.892 22.6142 394.272 26.5513 397.063 33.594C400.449 43.0126 400.779 53.4003 398.282 63.262C397.847 65.067 397.742 66.0119 398.284 67.8045C401.209 77.627 397.562 89.9092 394.718 99.1249C394.918 99.3057 394.918 99.3057 395.122 99.4901C396.595 100.879 397.73 102.259 398.317 104.605C398.541 108.925 398.128 111.962 396.26 115.567C396.035 116.214 396.035 116.214 396.003 116.937C396.264 117.655 396.264 117.655 396.678 118.35C401.683 127.828 401.311 141.159 399.916 152.127C399.215 157.205 395.857 163.916 394.26 168.604C394.483 168.844 394.707 169.085 394.937 169.332C397.466 172.09 399.666 174.69 400.141 179.244C400.347 183.634 401.063 185.404 399.602 189.211C399.776 189.424 399.951 189.636 400.13 189.855C403.887 194.618 391.553 200.527 391.794 207.601C391.936 217.287 401.108 1086.83 396.193 1094.44C395.655 1095.29 395.655 1095.29 395.373 1096.23C396.658 1103.77 395.88 1098.29 396.296 1099.34C396.84 1100.85 396.878 1102.14 396.658 1103.77C395.996 1106.14 394.679 1107.33 393.059 1108.57C392.89 1108.57 392.72 1108.57 392.545 1108.57C392.633 1108.95 393.831 1107.96 392.81 1109.73C397.514 1130.8 404.01 1151.38 397.812 1172.57C397.716 1172.9 397.62 1173.23 397.52 1173.57C397.387 1174.01 397.387 1174.01 397.251 1174.46C396.962 1175.95 397.33 1177.1 397.84 1178.44C397.987 1178.83 397.987 1178.83 398.138 1179.24C398.294 1179.65 398.294 1179.65 398.453 1180.08C400.059 1184.46 403.748 1189.81 402.622 1194.72C401.965 1197.08 401.015 1198.21 399.345 1199.28C399.005 1199.28 398.666 1199.28 398.316 1199.28C398.317 1199.48 398.319 1199.68 398.32 1199.88C398.331 1202 398.339 1204.11 398.345 1206.22C398.347 1207 398.351 1207.79 398.355 1208.57C398.412 1218.81 398.191 1230.13 392.918 1238.33C392.76 1238.58 392.602 1238.83 392.439 1239.08C389.82 1242.87 385.981 1245.01 382.149 1245.22C380.038 1245.28 377.763 1245.25 375.798 1244.11C375.092 1243.77 374.831 1243.74 374.151 1244.15C373.703 1244.71 373.703 1244.71 373.3 1245.41C371.567 1248.14 369.876 1249.88 367.14 1250.44C365.56 1250.53 364.578 1249.84 363.435 1248.45C362.823 1247.42 362.641 1246.37 362.418 1245.1C362.318 1244.55 362.318 1244.55 362.217 1243.98C362.168 1243.7 362.119 1243.41 362.069 1243.12C361.792 1243.34 361.792 1243.34 361.51 1243.56C353.819 1249.56 345.743 1255.85 336.619 1256.48C336.393 1256.5 336.168 1256.52 335.936 1256.54C331.456 1256.72 325.549 1256.34 321.991 1252.36C321.433 1251.93 321.433 1251.93 320.711 1252.27C320.447 1252.42 320.182 1252.56 319.909 1252.71C319.395 1252.95 318.881 1253.19 318.367 1253.42C318.112 1253.54 317.858 1253.65 317.595 1253.78C315.747 1254.52 313.566 1254.96 311.715 1254.02C310.667 1253.21 310.076 1252.51 309.708 1250.94C309.479 1249.66 309.369 1248.56 309.369 1247.23C309.153 1247.34 308.938 1247.45 308.715 1247.56C298.113 1252.59 285.876 1251.59 274.825 1250.55C274.495 1250.52 274.495 1250.52 274.158 1250.49C271.756 1250.26 269.373 1249.93 266.99 1249.47C266.777 1249.43 266.564 1249.39 266.345 1249.35C265.001 1249.07 263.786 1248.65 262.55 1247.87C262.018 1247.55 261.626 1247.3 261.039 1247.23C260.401 1247.66 260.401 1247.66 259.754 1248.3C256.562 1251.13 252.548 1252.84 248.7 1253.06C248.485 1253.07 248.271 1253.08 248.05 1253.1C245.169 1253.19 241.496 1252.95 239.301 1250.17C238.729 1249.55 238.729 1249.55 238.192 1249.71C237.561 1249.98 236.967 1250.31 236.36 1250.66C235.965 1250.88 235.965 1250.88 235.561 1251.1C235.029 1251.4 234.498 1251.7 233.969 1252C232.06 1253.02 229.86 1253.18 227.877 1252.42C226.855 1251.8 226.036 1251.14 225.403 1249.89C224.983 1248.36 224.951 1247.13 225.049 1245.52C224.871 1245.6 224.692 1245.69 224.508 1245.77C221.822 1246.95 219.094 1247.64 216.309 1248.26C216.133 1248.3 215.957 1248.34 215.775 1248.39C209.227 1249.89 202.408 1249.2 196.287 1245.63C195.859 1245.4 194.703 1245.35 194.273 1245.12C194.161 1245.26 193.976 1245.8 193.861 1245.95C192.441 1247.66 191.717 1248.08 189.743 1248C187.39 1247.72 185.482 1246.75 183.944 1244.39C183.66 1243.81 183.66 1243.81 183.66 1242.78C183.442 1242.99 183.224 1243.2 183 1243.42C180.169 1246.15 177.357 1248.79 174.197 1250.81C174.022 1250.92 173.847 1251.04 173.666 1251.15C171.534 1252.47 169.53 1253.01 167.208 1252.37C166.012 1251.78 165.69 1251.03 165.077 1249.52C165.036 1248.6 166.55 1248.65 165.581 1247.66C165.586 1247.15 165.071 1247.17 165.077 1246.64C165.082 1246.38 165.072 1245.73 165.077 1245.46C164.819 1245.58 163.83 1245.85 163.567 1245.97C156.12 1249.31 150.195 1250.3 142.425 1247.83C141.536 1247.73 141.04 1248.51 140.344 1249.22C138.473 1251.13 137.165 1251 134.874 1250.71C133.069 1250.12 131.252 1248.73 129.84 1247.15C129.712 1247.32 129.419 1247.91 129.287 1248.08C124.188 1254.42 118.083 1257.12 111.215 1256.81C106.575 1256.43 101.598 1254.15 98.1273 1249.86C97.5999 1249.35 96.7955 1249.4 96.1138 1249.69C95.8726 1249.83 95.3556 1249.89 95.1071 1250.03C93.0557 1251.16 92.7135 1251.58 90.5766 1250.54C89.5384 1249.93 88.6189 1249.53 88.0597 1248.17C87.9642 1247.49 87.6309 1246.49 87.5563 1245.8C87.2461 1245.95 86.3626 1246.32 86.0462 1246.48C83.937 1247.48 81.6952 1248.07 79.5022 1248.68C79.2427 1248.75 78.5631 1248.78 78.9988 1249.02C76.1148 1249.79 74.3866 1249.52 71.4481 1249.52C72.0746 1249.28 69.4345 1249.29 69.4345 1249.67C60.3708 1249.68 61.2449 1249.47 59.0448 1248C59.066 1248.35 59.0229 1249.31 59.0448 1249.67C58.9674 1251.27 58.747 1251.87 57.9522 1253.06C56.3054 1254.84 54.3369 1254.34 52.3199 1254.1C50.5971 1253.71 50.2528 1252.48 48.7962 1251.22C48.1859 1250.73 46.4434 1250.53 45.7759 1250.2C45.5746 1250.53 45.6685 1250.99 45.4631 1251.32C43.4039 1254.55 40.6942 1257.39 37.4496 1257.98C34.6405 1258.14 33.7018 1256.37 31.681 1253.93C27.5615 1248.84 24.4061 1243.06 22.6202 1235.97C22.3854 1235.05 22.2435 1233.32 21.9638 1232.42C21.8366 1232.53 20.2344 1233.07 20.1033 1233.19C19.1968 1233.67 19.547 1233.38 18.5932 1233.19C17.1983 1232.3 17.7824 1232.02 17.1408 1230.22C16.4482 1226.76 15.9655 1223.53 17.1408 1220.53C17.5917 1219.49 17.5917 1219.49 18.0847 1218.84C18.4654 1218.06 18.4654 1218.06 18.0877 1216.88C17.9154 1216.36 17.7389 1215.83 17.5595 1215.31C7.01461 1182.29 1.28998 1185.67 4.66198 1174.51C5.42292 1172.7 6.42985 1172.13 7.85029 1171.55C8.24562 1171.41 8.64166 1171.27 9.03925 1171.14C8.94133 1170.8 8.94133 1170.8 8.84143 1170.46C4.91672 1156 12.9448 1134.43 16.3063 1120.15C16.0359 1119.89 15.7655 1119.62 15.4869 1119.34C14.1461 1117.82 13.2817 1115.61 12.9644 1113.3C12.7977 1110.38 12.8549 1107.98 13.9927 1105.42C14.1624 1105.42 14.332 1105.42 14.5068 1105.42C14.4044 1105.02 14.302 1104.62 14.1965 1104.21C12.3803 1096.93 12.0744 1090.48 12.1932 1082.82C12.1972 1082.43 12.2011 1082.03 12.2052 1081.63C12.2804 1074.58 13.9166 212.424 15.1142 205.55C15.2978 204.298 15.307 203.156 15.2498 201.885C15.5891 201.998 15.9284 202.111 16.278 202.228C16.278 202.001 16.278 201.775 16.278 201.542C16.0341 201.514 15.7902 201.486 15.539 201.457C14.7356 201.2 14.7356 201.2 14.4343 200.605C13.6984 197.926 13.3416 195.191 14.0248 192.618C14.2412 191.647 14.2943 190.901 14.2498 189.896C13.9475 189.812 13.6453 189.727 13.3339 189.639C12.8678 189.498 12.4019 189.355 11.9361 189.211C11.6349 189.123 11.3336 189.036 11.0233 188.945C7.5955 187.858 6.16253 188.026 4.19563 184.018C3.92519 182.937 3.94245 182.571 4.11529 181.492Z" fill="#E1F885"/>
<path d="M2.37551 180.894C2.43281 180.503 2.43281 180.503 2.49126 180.104C3.5795 176.102 7.89936 173.97 10.5739 172.234C11.3311 171.73 12.0479 171.194 12.7632 170.59C12.4083 169.307 11.9748 168.11 11.5086 166.896C9.85684 162.584 8.56243 158.396 9.67104 153.548C9.75607 153.318 9.8411 153.089 9.92872 152.852C9.84681 152.156 9.7602 151.46 9.67104 150.766C9.6481 149.991 9.6375 149.215 9.63883 148.439C9.63816 148.051 9.6375 147.662 9.63682 147.261C9.67104 146.244 9.67104 146.244 9.92872 145.2C9.89305 144.458 9.89305 144.459 9.78478 143.637C9.28359 139.096 9.06931 134.655 9.05906 130.071C9.05715 129.812 9.05524 129.553 9.05328 129.286C9.01119 122.426 9.80879 115.837 12.7632 110.072C12.9333 109.843 13.1033 109.613 13.2786 109.376C13.1327 108.97 12.9869 108.563 12.8367 108.144C12.6457 107.606 12.4548 107.067 12.2639 106.529C12.1197 106.128 12.1197 106.128 11.9725 105.718C11.1223 103.309 10.5594 100.887 11.1084 98.2181C11.7604 96.1262 12.8784 95.1624 14.3093 94.0729C14.2186 93.8954 14.1279 93.718 14.0345 93.535C10.3929 86.2968 7.20047 76.8882 8.28604 67.8571C9.04588 63.8157 10.5992 61.1981 13.2141 59.075C14.6576 57.9851 16.1387 57.0386 17.6592 56.162C17.5818 55.9473 17.5044 55.7325 17.4247 55.5112C16.7207 53.3951 16.4298 51.8196 16.8861 49.5537C17.4141 47.7719 18.2693 47.3109 19.4629 46.4235C19.3903 46.1965 19.3176 45.9696 19.2428 45.7357C16.946 38.4868 14.559 32.0059 16.561 24.1364C17.6855 20.5179 19.5114 17.8654 22.1112 16.1489C26.5207 13.869 31.367 14.9261 35.5828 17.4342C37.645 18.7191 39.5244 20.2463 41.3655 22.0466C41.4781 21.7319 41.4781 21.7319 41.593 21.4109C42.2728 19.6218 42.8102 18.4255 44.2 17.5251C45.3918 17.0698 46.0355 17.1636 47.1311 17.8296C47.7158 18.1625 47.7158 18.1625 48.3228 18.2208C48.9722 17.7405 49.4625 17.1433 50.0159 16.4805C51.8929 14.3991 54.0373 13.7667 56.4226 13.9045C60.1044 14.4761 63.6591 16.7183 66.4855 19.949C66.9038 20.4055 66.9038 20.4055 67.6491 20.3077C67.8191 20.0137 67.9892 19.7195 68.1644 19.4165C69.452 17.1993 71.5259 15.5696 73.5757 15.0907C75.3017 14.875 76.8132 15.5158 78.3367 16.5796C78.9889 16.9332 78.9889 16.9334 79.5788 16.4629C79.7874 16.2539 79.996 16.0449 80.2109 15.8297C85.375 11.0995 91.7347 8.71924 97.7975 7.09107C98.0059 7.03419 98.2143 6.97718 98.429 6.91846C109.632 3.9845 120.756 7.17481 130.757 14.198C131.533 14.7622 131.533 14.7623 132.326 15.0907C132.494 14.6818 132.494 14.6818 132.665 14.2647C133.099 13.3517 133.1 13.3516 133.873 12.656C135.477 12.7343 136.627 13.3353 138.028 14.3514C138.202 14.4739 138.376 14.5963 138.556 14.7224C138.897 14.9616 139.237 15.2024 139.576 15.4448C140.246 15.9207 140.924 16.376 141.603 16.8297C141.688 16.4384 141.688 16.4382 141.774 16.0389C142.82 11.4808 144.296 7.917 147.451 5.60121C149.349 4.27979 151.239 2.99293 153.392 3.91737C155.505 6.61122 156.465 10.5089 157.579 14.0471C157.754 13.9297 157.928 13.8123 158.108 13.6913C161.704 11.3655 165.831 10.7179 169.722 12.156C171.243 12.8883 173.059 14.0993 173.813 16.134C174.886 15.9089 175.772 15.4216 176.759 14.8176C178.577 13.7354 180.425 12.9094 182.332 12.156C182.497 12.0903 182.662 12.0247 182.832 11.957C191.049 8.69313 199.367 6.51625 207.875 5.24342C208.064 5.2151 208.253 5.18666 208.447 5.15748C213.013 4.48366 217.552 4.22523 222.144 4.22169C222.553 4.22133 222.553 4.22133 222.971 4.22096C235.048 4.2372 248.121 4.77614 259.878 8.83022C259.893 8.45717 259.909 8.084 259.926 7.69972C260.181 6.11147 260.434 5.87331 261.424 5.00429C264.616 3.62782 268.342 3.19789 271.473 5.00429C271.712 5.2123 271.951 5.42018 272.198 5.63454C272.477 5.83901 272.477 5.83901 272.761 6.04762C273.943 5.51515 275.059 4.7217 276.184 4.00295C279.083 2.38906 282.405 3.0331 285.257 4.45534C286.598 5.26955 287.805 6.27944 288.995 7.43886C289.002 7.16176 289.008 6.88478 289.015 6.59926C289.12 3.97182 289.367 2.45864 290.751 0.526263C291.585 -0.0527163 292.219 -0.123273 293.118 0.135028C296.719 1.91823 299.96 5.60842 302.91 8.83022C303.547 8.41957 304.062 8.01296 304.633 7.43886C309.726 3.28798 318.759 7.42568 324.04 9.17788C328.04 10.5795 331.845 12.5315 335.635 14.7428C335.733 14.5786 335.831 14.4144 335.931 14.2454C336.675 13.0294 337.317 12.0382 338.373 11.3082C338.562 11.1729 338.752 11.0374 338.947 10.8978C341.3 9.50014 344.122 9.95962 346.468 11.1438C347.577 11.8256 348.617 12.6334 349.654 13.4956C349.875 13.6776 350.096 13.8596 350.323 14.0471C350.483 14.2027 350.642 14.3584 350.807 14.5187C351.694 14.8823 352.439 14.3653 353.27 13.9385C356.387 12.4037 360.493 11.6641 363.695 13.2932C365.597 14.7171 366.77 16.5775 367.587 19.2643C367.971 19.1808 367.971 19.1808 368.363 19.0956C369.379 18.9007 370.39 18.8489 371.415 18.8336C371.605 18.8302 371.794 18.8268 371.989 18.8233C379.993 18.7084 379.993 17.3476 383.821 18.9468C384.029 19.0326 384.237 19.1184 384.451 19.2068C390.064 21.6016 394.454 25.5993 397.253 32.7504C400.646 42.314 400.977 52.8615 398.475 62.875C398.038 64.7079 397.933 65.6674 398.476 67.4876C401.408 77.4613 397.752 89.9325 394.901 99.2901C395.102 99.4737 395.102 99.4737 395.307 99.6609C396.783 101.071 397.92 102.473 398.509 104.855C398.734 109.241 398.319 112.325 396.447 115.985C396.222 116.642 396.222 116.642 396.19 117.376C396.451 118.106 396.451 118.106 396.866 118.811C401.883 128.435 401.51 141.972 400.112 153.108C399.41 158.264 398.048 163.048 396.447 167.808C396.671 168.052 396.895 168.296 397.126 168.547C399.661 171.347 401.866 173.987 402.342 178.612C402.549 183.069 401.261 186.897 399.797 190.763C399.972 190.979 400.147 191.195 400.327 191.417C404.092 196.253 391.866 202.254 392.108 209.436C392.25 219.271 403.683 1085.67 398.756 1093.39C398.217 1094.26 398.217 1094.26 397.935 1095.22C398.115 1096.4 398.442 1097.31 398.86 1098.38C399.405 1099.9 399.443 1101.22 399.223 1102.87C398.559 1105.27 397.239 1106.48 395.615 1107.74C395.445 1107.74 395.275 1107.74 395.1 1107.74C395.188 1108.13 395.275 1108.52 395.366 1108.92C400.081 1130.32 406.764 1152.77 400.552 1174.29C400.456 1174.62 400.359 1174.96 400.26 1175.3C400.126 1175.75 400.126 1175.75 399.989 1176.2C399.7 1177.72 399.525 1178.86 400.035 1180.21C400.183 1180.61 400.183 1180.61 400.334 1181.02C400.491 1181.45 400.491 1181.45 400.65 1181.88C402.26 1186.33 404.205 1191.86 403.076 1196.84C402.418 1199.24 401.217 1200.76 399.543 1201.85C399.203 1201.85 399.038 1202.02 398.533 1202.52C398.534 1202.72 398.511 1201.78 398.512 1201.99C398.523 1204.13 398.531 1206.28 398.537 1208.42C398.539 1209.22 398.543 1210.01 398.547 1210.81C398.605 1221.21 398.383 1232.7 393.097 1241.02C392.939 1241.28 392.78 1241.53 392.617 1241.79C389.992 1245.64 386.144 1247.81 382.303 1248.02C380.187 1248.08 377.907 1248.05 375.937 1246.89C375.229 1246.55 374.967 1246.52 374.287 1246.94C373.837 1247.51 373.837 1247.51 373.433 1248.22C371.696 1250.99 370.001 1252.75 367.259 1253.32C365.675 1253.41 364.691 1252.71 363.545 1251.31C362.932 1250.26 362.749 1249.19 362.525 1247.9C362.425 1247.34 362.425 1247.34 362.324 1246.76C362.275 1246.48 362.226 1246.19 362.176 1245.89C361.898 1246.11 361.898 1246.11 361.616 1246.34C353.906 1252.43 345.811 1258.81 336.665 1259.46C336.44 1259.48 336.214 1259.5 335.981 1259.51C331.491 1259.7 325.569 1259.32 322.003 1255.28C321.443 1254.83 321.443 1254.83 320.721 1255.18C320.455 1255.33 320.19 1255.48 319.916 1255.63C319.401 1255.87 318.886 1256.11 318.37 1256.35C318.115 1256.47 317.86 1256.59 317.597 1256.71C315.745 1257.46 313.558 1257.91 311.703 1256.96C310.652 1256.14 310.06 1255.42 309.691 1253.83C309.461 1252.53 309.352 1251.41 309.352 1250.07C309.135 1250.18 308.919 1250.29 308.696 1250.4C298.069 1255.5 285.803 1254.49 274.726 1253.44C274.395 1253.41 274.395 1253.41 274.057 1253.38C271.649 1253.15 269.261 1252.81 266.873 1252.34C266.659 1252.3 266.446 1252.26 266.226 1252.21C264.879 1251.93 263.661 1251.51 262.422 1250.72C261.889 1250.38 261.496 1250.14 260.908 1250.07C260.268 1250.5 260.268 1250.5 259.619 1251.15C256.42 1254.02 252.396 1255.76 248.539 1255.98C248.324 1255.99 248.109 1256.01 247.888 1256.02C245 1256.12 241.319 1255.87 239.118 1253.05C238.545 1252.42 238.545 1252.42 238.007 1252.59C237.375 1252.86 236.779 1253.19 236.171 1253.55C235.774 1253.77 235.774 1253.77 235.369 1254C234.836 1254.29 234.304 1254.6 233.774 1254.91C231.86 1255.95 229.655 1256.11 227.667 1255.33C226.643 1254.7 225.821 1254.04 225.187 1252.76C224.766 1251.21 224.734 1249.96 224.833 1248.33C224.654 1248.41 224.475 1248.5 224.29 1248.58C221.598 1249.78 218.863 1250.48 216.072 1251.11C215.895 1251.15 215.719 1251.2 215.537 1251.24C208.974 1252.77 201.336 1252.66 195.2 1249.02C194.771 1248.79 194.342 1248.56 193.911 1248.33C193.799 1248.47 193.687 1248.61 193.571 1248.76C192.147 1250.5 191.014 1251.26 189.036 1251.18C186.678 1250.89 185.173 1249.57 183.63 1247.18C183.347 1246.59 183.347 1246.59 183.347 1245.55C183.128 1245.76 182.909 1245.98 182.684 1246.2C179.847 1248.97 177.028 1251.65 173.861 1253.7C173.685 1253.81 173.51 1253.93 173.329 1254.05C171.191 1255.38 169.183 1255.93 166.855 1255.28C165.656 1254.69 164.893 1254.03 164.278 1252.5C164.237 1251.56 164.237 1251.56 164.252 1250.52C164.258 1250.01 164.258 1250.01 164.264 1249.48C164.268 1249.21 164.273 1248.95 164.278 1248.68C164.02 1248.79 164.02 1248.79 163.756 1248.92C156.292 1252.31 149.585 1253.69 141.797 1251.19C140.906 1251.09 140.626 1251.36 139.928 1252.09C138.052 1254.02 136.168 1254.19 133.872 1253.89C132.062 1253.29 130.649 1252.02 129.234 1250.42C129.105 1250.58 128.977 1250.75 128.844 1250.93C123.734 1257.37 117.267 1260.18 110.383 1259.87C105.732 1259.48 100.515 1257.27 97.0362 1252.92C96.5076 1252.4 96.5076 1252.4 95.8243 1252.69C95.5825 1252.83 95.3407 1252.97 95.0915 1253.11C93.0353 1254.25 91.3713 1254.71 89.2293 1253.65C88.1887 1253.04 87.5352 1252.49 86.9746 1251.11C86.8789 1250.42 86.7917 1249.72 86.717 1249.02C86.4061 1249.18 86.4061 1249.18 86.0889 1249.34C83.9747 1250.36 81.8611 1251.1 79.663 1251.72C79.4029 1251.79 79.1428 1251.87 78.8749 1251.94C75.9841 1252.73 73.1871 1252.93 70.2416 1252.94C70.0506 1252.94 69.8596 1252.94 69.6628 1252.94C60.5776 1252.95 60.5777 1252.95 58.3723 1251.46C58.3936 1251.82 58.4148 1252.18 58.4367 1252.55C58.3592 1254.17 58.1382 1254.77 57.3416 1255.98C55.6909 1257.79 53.6944 1257.62 51.6726 1257.37C49.9458 1256.97 48.578 1256.01 47.118 1254.73C46.5062 1254.23 45.8997 1253.88 45.2307 1253.55C45.0289 1253.88 45.0289 1253.88 44.823 1254.22C42.759 1257.49 40.0429 1260.38 36.7907 1260.98C33.9749 1261.15 31.9361 1259.39 29.9106 1256.91C25.7814 1251.75 23.0587 1245.78 21.2686 1238.59C21.0332 1237.64 20.7739 1236.73 20.4935 1235.81C20.366 1235.92 20.2384 1236.04 20.107 1236.16C19.1984 1236.65 18.3574 1236.7 17.4014 1236.5C16.0032 1235.6 15.4677 1234.51 14.8246 1232.68C14.1303 1229.17 15.256 1226 16.4341 1222.95C16.886 1221.9 16.886 1221.9 17.3802 1221.24C17.7618 1220.44 17.7618 1220.44 17.3832 1219.25C17.2105 1218.72 17.0336 1218.19 16.8538 1217.66C6.28401 1184.13 -1.59915 1184.06 1.78081 1172.73C2.54354 1170.89 3.55284 1170.31 4.97663 1169.72C5.3729 1169.58 5.76986 1169.44 6.16839 1169.31C6.07024 1168.96 6.07024 1168.96 5.9701 1168.61C2.03615 1153.94 12.2282 1135.53 15.5976 1121.03C15.3266 1120.76 15.0555 1120.49 14.7763 1120.21C13.4323 1118.66 12.5659 1116.42 12.2478 1114.08C12.0807 1111.11 12.138 1108.67 13.2785 1106.08C13.4486 1106.08 13.6187 1106.08 13.7939 1106.08C13.6913 1105.67 13.5886 1105.26 13.4829 1104.84C11.6624 1097.45 11.3557 1090.9 11.4748 1083.12C11.4788 1082.72 11.4828 1082.33 11.4869 1081.92C11.5622 1074.75 12.1999 214.333 13.4003 207.353C13.5843 206.082 13.5935 204.922 13.5362 203.632C13.8763 203.747 14.2165 203.862 14.5669 203.98C14.5669 203.75 14.5669 203.521 14.5669 203.284C14.3225 203.255 14.078 203.227 13.8261 203.197C13.0208 202.936 13.0208 202.936 12.7189 202.332C11.9812 199.612 12.6259 196.835 13.3107 194.222C13.5276 193.237 8.28228 193.413 8.23768 192.393C7.93475 192.307 7.86378 191.971 7.55167 191.883C7.08447 191.739 7.00882 191.688 6.54191 191.542C6.23998 191.453 6.23268 191.077 5.92159 190.985C2.48573 189.881 4.42758 187.529 2.45603 183.459C2.18496 182.362 2.20226 181.99 2.37551 180.894ZM5.29049 182.068C8.42206 186.271 7.96516 187.821 12.2428 188.017C13.0208 188.125 13.0208 188.125 13.5362 188.82C13.44 190.045 16.567 190.848 16.1744 191.951C16.0718 192.246 15.9691 192.542 15.8634 192.847C15.6478 193.459 16.3923 193.781 16.1744 194.391C15.5373 196.235 15.1803 197.772 15.0823 199.806C15.7771 198.978 16.1233 198.129 16.5156 197.002C16.8568 196.025 17.0913 195.355 17.6592 194.589C18.2067 194.372 18.2067 194.372 18.6899 194.241C18.4868 195.249 18.2826 196.256 18.0779 197.263C17.9922 197.689 17.9922 197.689 17.9048 198.124C17.8201 198.539 17.8201 198.539 17.7336 198.962C17.6824 199.216 17.6311 199.469 17.5783 199.73C17.4015 200.502 17.4015 200.502 17.1497 201.297C16.8152 202.495 16.6373 203.711 16.4593 204.963C16.4212 205.224 16.3831 205.484 16.3438 205.752C16.2228 206.581 16.1034 207.411 15.9842 208.24C15.8649 209.063 15.7452 209.885 15.6254 210.708C15.5481 211.239 15.4711 1065.17 15.3943 1065.7C15.2113 1066.96 15.0195 1068.22 14.8005 1069.46C14.0849 1073.8 13.9746 1078 14.0033 1082.43C14.0061 1083.03 14.0089 1083.64 14.0117 1084.24C14.0196 1085.7 14.032 1087.16 14.0455 1088.62C14.0509 1089.29 14.0528 1089.97 14.0542 1090.65C14.0653 1095.68 14.6037 1100.28 16.2932 1104.82C16.6284 1105.73 16.6284 1105.73 16.6123 1106.55C16.3986 1107.36 16.1497 1108.06 15.8553 1108.81C15.2454 1110.44 14.9111 1111.74 15.2443 1113.58C15.7253 1115.53 16.3631 1117.19 17.2564 1118.85C17.3893 1119.11 17.5222 1119.37 17.6591 1119.64C17.9575 1120.18 17.9575 1120.18 18.262 1120.73C18.7178 1121.83 18.7132 1122.49 18.4975 1123.71C18.358 1124.34 18.2123 1124.97 18.0617 1125.6C17.0241 1130.39 16.4154 1135.23 15.8553 1140.16C15.8207 1140.45 15.7861 1140.74 15.7505 1141.04C14.6743 1150.22 6.7572 1161.11 9.72758 1169.65C10.0336 1170.7 10.0336 1170.7 10.0497 1171.65C9.7759 1172.44 9.7759 1172.44 9.19612 1173.02C8.00947 1173.58 6.85679 1173.76 5.60875 1173.92C4.86383 1174.07 4.86384 1174.07 4.52771 1174.79C2.0381 1186.66 16.8818 1206.82 19.7232 1218.02C20.3094 1220.53 20.3094 1220.53 20.084 1221.52C19.9996 1221.73 19.9152 1221.94 19.8282 1222.15C19.7367 1222.39 19.6452 1222.62 19.5509 1222.86C19.4527 1223.1 19.3546 1223.34 19.2534 1223.59C18.1882 1226.25 17.5051 1228.57 17.659 1231.63C17.9141 1231.98 17.9141 1231.98 18.1744 1232.33C19.0486 1232.21 19.555 1231.68 20.2197 1230.94C21.5931 1229.51 21.5931 1229.51 22.5549 1229.55C23.0995 1229.95 23.0995 1229.95 23.5857 1230.59C23.6974 1231.49 23.6974 1231.49 23.6984 1232.57C23.9475 1239.03 26.3549 1245.31 29.5123 1250.07C29.6979 1250.36 29.8836 1250.66 30.0749 1250.96C31.5782 1253.31 33.2011 1255.69 35.4389 1256.68C37.6875 1256.62 39.5586 1255.38 41.1561 1253.26C41.6677 1252.54 42.1438 1251.8 42.6036 1251.01C43.7291 1249.1 43.7291 1249.1 44.7797 1248.72C46.1982 1249.17 47.3309 1250.13 48.5805 1251.11C49.0397 1251.44 49.5013 1251.77 49.9655 1252.09C50.1642 1252.23 50.3628 1252.37 50.5674 1252.51C51.8671 1253.26 53.1156 1253.29 54.5071 1253.2C54.7622 1252.97 55.0173 1252.74 55.2801 1252.5C55.3884 1251.45 55.3935 1250.42 55.408 1249.35C55.5378 1248.33 55.5378 1248.33 55.9767 1247.49C56.5685 1246.94 56.5685 1246.94 57.2097 1246.93C57.4499 1247 57.69 1247.08 57.9375 1247.15C58.2105 1247.23 58.4835 1247.31 58.7649 1247.38C59.0605 1247.47 59.3561 1247.55 59.6607 1247.63C68.0846 1249.37 75.6722 1248.73 83.8825 1245.89C84.7253 1245.61 85.5682 1245.32 86.4113 1245.04C86.9307 1244.86 87.4499 1244.68 87.9688 1244.5C89.5189 1243.97 91.0724 1243.51 92.6436 1243.11C92.0297 1243.97 91.3936 1244.59 90.6627 1245.26C89.8093 1246.11 89.8093 1246.11 89.4005 1247.37C89.3934 1248.22 89.3934 1248.22 89.5514 1249.37C90.5207 1250.24 91.5223 1250.28 92.6436 1250.07C93.8702 1249.58 94.9282 1249.01 95.9129 1247.89C96.7245 1247.06 97.322 1247.18 98.3125 1247.29C98.3497 1247.58 98.3869 1247.87 98.4252 1248.18C99.5168 1251.42 102.422 1252.79 104.753 1253.99C106.015 1254.6 107.302 1254.98 108.62 1255.28C108.8 1255.33 108.981 1255.38 109.167 1255.42C114.675 1256.58 120.084 1254.31 124.641 1250.18C125.58 1249.26 126.409 1248.17 127.242 1247.08C128.565 1245.35 129.99 1244.09 131.553 1242.76C131.17 1245 131.17 1245 130.78 1247.29C133.688 1249.63 133.688 1249.63 136.964 1249.72C137.757 1249.28 138.408 1248.79 139.026 1247.98C139.315 1247.06 139.315 1247.06 139.283 1246.24C140.601 1245.7 141.326 1245.96 142.585 1246.7C144.698 1247.88 146.807 1248.13 149.075 1248.33C149.311 1248.35 149.547 1248.37 149.79 1248.39C155.289 1248.61 160.421 1246.08 165.43 1243.31C167.052 1242.43 168.554 1241.83 170.294 1241.53C171.007 1241.37 171.605 1241.07 172.266 1240.68C171.971 1241.08 171.675 1241.48 171.378 1241.87C171.099 1242.25 170.825 1242.64 170.554 1243.02C169.817 1244.07 169.201 1244.88 168.224 1245.48C167.043 1246.53 166.627 1247.87 166.34 1249.72C166.388 1250.66 166.388 1250.66 166.597 1251.46C167.566 1252.39 168.618 1252.21 169.745 1252.01C173.447 1250.96 176.724 1247.58 179.707 1244.59C183.712 1240.57 183.712 1240.57 185.166 1240.52C185.923 1240.68 185.923 1240.68 186.181 1241.02C186.173 1241.64 186.155 1242.26 186.133 1242.87C186.11 1244.4 186.11 1244.4 186.616 1245.74C187.896 1246.82 188.788 1247.08 190.284 1246.8C191.119 1246.47 191.405 1245.83 191.85 1244.85C192.317 1243.85 192.317 1243.85 192.881 1243.11C194.091 1243.02 194.787 1243.51 195.731 1244.44C202.003 1250.41 212.319 1247.45 219.332 1246.19C220.14 1246.04 220.948 1245.9 221.756 1245.75C222.831 1245.56 223.906 1245.36 224.981 1245.16C225.481 1245.07 225.981 1244.98 226.482 1244.89C226.712 1244.84 226.943 1244.8 227.18 1244.76C228.265 1244.56 229.175 1244.42 230.244 1244.85C230.244 1245.08 230.244 1245.31 230.244 1245.55C230.058 1245.59 229.872 1245.63 229.68 1245.68C228.955 1245.89 228.332 1246.14 227.667 1246.59C227.319 1248 227.271 1249.29 227.41 1250.76C227.939 1251.76 228.596 1251.91 229.455 1252.13C231.498 1252.34 233.405 1251.19 235.244 1250.1C235.437 1249.99 235.631 1249.88 235.831 1249.76C236.212 1249.53 236.59 1249.3 236.966 1249.06C237.876 1248.52 238.325 1248.29 239.326 1248.54C239.984 1248.99 240.521 1249.46 241.099 1250.07C243.861 1252.63 247.786 1252.04 250.94 1251.37C254.217 1250.47 257.117 1248.72 259.829 1246.09C260.574 1245.41 260.821 1245.2 261.745 1245.16C262.454 1245.55 262.454 1245.55 263.034 1246.2C264.916 1248.16 267.526 1248.25 269.814 1248.52C270.15 1248.57 270.486 1248.61 270.832 1248.65C285.087 1250.42 298.564 1250.15 312.444 1244.85C312.36 1245.05 312.276 1245.26 312.19 1245.47C311.448 1247.66 312.043 1250.6 312.444 1252.85C312.907 1253.48 313.572 1253.29 314.199 1253.31C316.734 1253.27 318.72 1252.49 320.555 1250.12C320.947 1249.72 320.947 1249.72 321.768 1249.65C322.662 1250.16 322.922 1250.79 323.524 1251.81C327.456 1255.85 334.271 1255.47 338.947 1254.84C348.291 1253.09 356.653 1245.48 364.495 1238.94C364.488 1239.37 364.481 1239.79 364.474 1240.24C364.474 1241.33 364.536 1242.2 364.833 1243.22C365.32 1245.01 365.681 1246.83 366.041 1248.68C367.637 1248.91 368.525 1248.58 369.824 1247.3C371.108 1245.77 372.733 1243.76 372.998 1241.37C374.609 1241.18 375.478 1241.53 376.843 1242.7C378.975 1244.35 382.671 1243.83 384.991 1243.22C385.673 1242.9 386.279 1242.53 386.913 1242.07C387.133 1241.92 387.353 1241.77 387.58 1241.62C391.208 1238.98 392.976 1234.09 394.224 1228.98C395.351 1223.53 395.458 1217.8 395.38 1212.17C395.373 1211.17 395.367 1210.17 395.362 1209.17C395.355 1208.49 395.343 1207.81 395.325 1207.13C395.19 1201.56 395.19 1201.56 396.002 1200.08C396.684 1199.23 397.371 1198.71 398.202 1198.14C399.086 1197.5 399.506 1196.93 400.054 1195.81C400.908 1190.64 398.633 1184.95 396.747 1180.67C396.208 1179.39 395.931 1178.65 395.936 1177.16C396.209 1175.9 396.573 1174.81 397.011 1173.64C403.418 1155.06 396.2 1133.92 392.509 1115.15C392.424 1114.72 393.082 1113.72 392.994 1113.27C392.835 1112.48 392.674 1111.68 392.509 1110.89C392.403 1110.37 392.403 1110.37 392.296 1109.83C392.234 1109.54 392.171 1109.24 392.107 1108.93C391.992 1107.95 392.045 1107.29 392.266 1106.35C393.157 1105.17 393.951 1104.51 395.1 1103.91C396.072 1103.06 396.072 1103.06 396.591 1101.72C396.659 1100.56 396.458 1100.01 396.05 1099C395.934 1098.71 395.818 1098.41 395.699 1098.11C395.431 1097.48 395.141 1096.86 394.842 1096.26C394.58 1093.89 395.284 1092.71 396.276 1090.89C400.305 1083.12 389.848 217.626 388.84 208.096C388.001 201.775 400.387 197.369 397.058 192.994C396.337 191.99 395.953 191.184 395.884 189.785C395.899 189.534 395.915 189.283 395.932 189.024C396.527 188.909 397.122 188.795 397.736 188.676C397.945 187.836 398.155 186.995 398.364 186.155C398.423 185.918 398.482 185.68 398.543 185.436C399.235 182.648 399.794 179.848 399.036 176.958C397.676 173.586 395.242 171.444 392.84 169.547C392.968 167.401 393.503 165.777 394.193 163.852C396.657 156.685 397.623 149.383 397.579 141.498C397.575 140.61 397.579 139.723 397.584 138.835C397.589 133.76 397.08 129.155 395.722 124.396C395.417 123.289 395.417 123.289 395.176 122.038C394.897 120.838 394.584 120.125 393.999 119.158C393.764 118.762 393.764 118.762 393.524 118.357C393.127 117.692 393.127 117.692 392.582 117.376C392.502 116.441 392.502 116.441 392.582 115.289C393.146 114.463 393.146 114.463 393.87 113.55C394.908 111.614 395.448 110.067 395.481 107.659C395.488 107.369 395.494 107.079 395.501 106.78C395.393 105.648 395.162 105.064 394.644 104.159C393.902 103.457 393.902 103.457 393.065 102.877C391.575 101.789 391.575 101.789 391.294 101.029C391.133 99.5829 391.347 98.719 391.853 97.479C392.696 95.2628 393.272 92.9438 393.848 90.5846C394.03 89.84 394.217 89.0977 394.404 88.3552C395.47 84.0667 396.347 79.7462 396.286 75.1828C396.283 74.8848 396.28 74.5867 396.277 74.2797C396.208 70.6695 395.389 68.0868 394.094 64.979C393.559 63.6916 393.15 62.4473 392.84 61.0314C393.775 61.2609 394.711 61.4905 395.674 61.727C396.544 56.3794 396.544 56.3794 396.963 50.945C396.983 50.5139 396.983 50.5139 397.003 50.0741C397.183 43.2741 395.552 35.5012 392.244 30.3374C388.405 24.9066 382.66 22.041 377.118 21.697C376.583 21.6839 376.05 21.6809 375.515 21.683C375.221 21.6825 375.221 21.6826 374.922 21.6822C374.511 21.6819 374.099 21.6824 373.688 21.6839C373.068 21.6857 372.449 23.0448 371.829 23.0426C369.629 23.0415 367.458 23.1186 365.268 23.438C365.229 23.0696 365.229 23.0696 365.189 22.6937C364.949 20.5703 364.676 19.2998 363.464 17.8731C361.048 16.0124 357.845 16.5015 355.251 17.3948C353.884 17.9379 352.774 18.5939 351.643 19.7642C351.055 20.3477 350.438 20.823 349.802 21.3047C348.837 22.0507 347.898 22.8546 346.957 23.6553C346.744 23.8361 346.532 24.0169 346.313 24.2031C344.42 25.8268 342.593 27.555 340.789 29.3507C342.299 24.8709 345.45 20.5608 348.261 17.5252C346.359 15.2788 344.115 13.8747 341.562 14.0907C339.346 14.4965 337.891 16.0442 336.202 17.9409C335.635 18.5686 335.635 18.5687 334.862 19.2643C334.212 18.9118 333.627 18.531 333.01 18.0905C326.591 13.7912 313.799 7.33364 306.635 10.5121C305.281 11.3726 304.705 12.1918 304.198 14.0471C303.333 14.1378 302.809 14.1749 302.055 13.5608C301.864 13.334 301.673 13.1072 301.477 12.8734C301.254 12.6188 301.031 12.3639 300.802 12.1016C300.562 11.8255 300.323 11.5492 300.075 11.2647C298.308 9.35585 296.501 7.53261 294.632 5.80849C294.467 5.65322 294.302 5.49794 294.132 5.33791C293.722 4.96608 293.292 4.63356 292.86 4.30861C292.605 4.42336 292.35 4.5381 292.087 4.65639C291.753 6.91042 291.906 8.46767 292.603 10.5691C292.773 10.9135 292.943 11.2578 293.118 11.6126C293.166 12.5255 293.166 12.5255 293.118 13.3516C292.86 13.6994 292.86 13.6994 291.846 13.8516C290.016 13.8203 288.753 12.3456 287.298 10.9931C284.542 8.50588 281.64 6.75112 278.296 7.60463C277.083 8.02236 276.197 8.6017 275.193 9.61269C274.381 10.3862 273.875 10.7245 272.874 10.6343C271.807 10.3593 270.994 9.72536 270.114 8.88442C269.079 7.94875 267.982 8.07057 266.787 8.06923C266.504 8.06288 266.504 8.06288 266.216 8.05641C264.882 8.05165 263.724 8.25661 262.454 8.83022C262.369 9.17458 262.284 9.51882 262.197 9.87355C262.451 9.98695 262.705 10.1005 262.968 10.2173C263.301 10.3706 263.635 10.5242 263.968 10.6779C264.136 10.7521 264.304 10.8262 264.476 10.9026C265.409 11.3371 265.756 11.5156 266.319 12.656C262.157 12.7902 258.09 12.2721 253.963 11.5758C244.475 9.98012 234.916 8.67714 225.349 8.48231C225.105 8.47523 224.862 8.46803 224.611 8.46071C217.085 8.25233 212.924 8.14686 205.484 9.61268C204.377 8.10255 200.435 9.87355 200.435 9.17787C185.958 11.4631 186.761 13.0319 174.07 20.6555C173.472 20.7697 173.472 20.7697 172.782 20.6555C172.278 20.0197 172.278 20.0195 171.8 19.1773C170.646 17.3051 169.41 16.2332 167.628 15.7861C163.238 15.4404 163.238 15.4406 159.367 17.8731C158.837 18.5442 158.505 19.1287 158.094 19.9598C157.354 20.1338 157.354 20.1338 156.548 19.9598C155.768 18.8337 155.308 17.7239 154.889 16.2985C154.781 15.9369 154.673 15.5752 154.561 15.2026C154.397 14.6415 154.397 14.6415 154.229 14.069C153.278 10.7769 153.278 10.7769 151.91 7.78663C149.824 8.23097 147.592 9.60829 146.301 11.9237C145.627 13.4788 145.163 15.1477 144.695 16.8297C144.514 17.4754 144.332 18.1202 144.147 18.7643C144.072 19.0374 143.997 19.3103 143.92 19.5917C143.644 20.3643 143.382 20.8096 142.891 21.3512C142.118 21.699 142.118 21.699 141.475 21.3621C141.1 21.0984 141.1 21.0984 140.717 20.8295C140.445 20.6384 140.172 20.4474 139.892 20.2506C138.755 19.4122 137.638 18.5352 136.527 17.6366C136.011 17.1486 136.011 17.1487 135.676 17.1775C135.616 18.8434 135.616 18.8434 136.192 20.3077C136.362 20.3077 136.532 20.3077 136.707 20.3077C136.707 20.6521 136.707 20.9965 136.707 21.3512C136.537 21.2365 136.367 21.1216 136.192 21.0033C135.867 20.9746 135.543 20.9458 135.209 20.9163C132.754 20.558 130.595 18.9978 128.461 17.4165C116.809 8.87452 104.054 8.71973 91.581 13.6124C87.0492 15.4747 83.041 18.0941 79.1903 21.7994C78.4716 22.3945 78.4716 22.3945 77.7791 22.2423C77.0737 21.599 76.8304 20.9464 76.4101 19.9598C75.5184 19.0571 74.6581 19.0994 73.5757 19.2643C71.7197 20.1429 70.1001 21.6224 68.9375 23.7858C68.7441 24.7061 68.7441 24.7061 68.6798 25.5248C68.1634 25.8182 68.1634 25.8184 67.3914 25.8727C66.6484 25.3491 66.0074 24.6506 65.3461 23.9596C62.2493 20.8696 58.7232 17.8931 54.7326 18.0537C52.9799 18.4491 51.2388 19.6167 50.0622 21.4381C49.5651 22.3035 49.5651 22.3035 49.6112 23.0902C48.7738 23.3728 48.7738 23.3728 47.8075 23.438C47.2116 22.6119 47.2116 22.6118 46.7767 21.6989C46.0787 21.2278 45.4859 21.3286 44.7153 21.3512C44.5344 21.7831 44.3581 22.2185 44.1839 22.6554C44.0359 23.0186 44.0359 23.0186 43.8849 23.389C43.6465 24.2754 43.6847 24.6583 43.9423 25.5248C44.1123 25.7543 44.2824 25.9839 44.4576 26.2203C44.6187 26.9595 44.6187 26.9596 44.7153 27.6117C42.3728 26.9686 40.3979 25.647 38.2998 24.1676C33.7647 20.9705 29.3179 17.902 24.0207 19.5903C22.1229 20.4969 20.4982 22.5375 19.5757 24.9379C17.8831 30.7985 19.3199 35.8687 20.9929 41.4456C21.6568 43.4281 22.4402 45.225 23.5858 46.7714C23.5963 47.3508 23.5968 47.9309 23.5858 48.5104C22.6671 49.1882 21.8033 49.4456 20.7825 49.7058C20.1647 49.8845 20.1647 49.8845 19.4629 50.5972C19.3504 51.9135 19.4424 52.9246 19.6884 54.2056C20.1626 55.1846 20.1626 55.1846 20.8611 55.3251C21.5148 55.4149 22.1558 55.4631 22.8128 55.4664C22.7554 56.8092 22.7171 57.6471 22.0558 58.6836C21.3611 59.2195 20.8445 59.4805 20.085 59.761C17.3541 60.8396 14.045 62.4185 12.263 65.546C10.6109 69.8 11.3629 75.3818 12.3379 79.7988C13.4892 84.6741 15.06 88.9401 17.6401 92.7089C18.2597 93.8871 18.3626 94.7335 18.4322 96.1598C18.2529 96.2531 18.0735 96.3463 17.8887 96.4424C17.0862 96.8873 16.3115 97.3813 15.5332 97.8988C15.2609 98.0781 14.9885 98.2574 14.7079 98.4423C14.0241 98.8544 14.0241 98.8544 13.7939 99.6379C13.6558 102.301 14.4402 104.592 15.2494 106.949C16.0189 109.263 16.0189 109.263 15.5977 110.768C15.3241 111.598 15.0419 112.41 14.7441 113.224C12.7857 118.759 12.1562 124.032 12.1806 130.122C12.1834 130.939 12.1807 131.756 12.1774 132.573C12.1757 135.359 12.2719 138.021 12.6464 140.771C12.881 142.682 12.9215 144.493 12.5055 146.353C12.0252 148.743 11.95 151.38 12.6504 153.7C13.0616 155.096 13.0067 156.168 12.892 157.656C12.6029 161.743 13.6177 165.3 15.0823 168.851C15.2524 168.966 15.4224 169.081 15.5976 169.199C15.9874 169.974 16.1108 170.477 16.1291 171.416C15.3434 174.036 13.0397 175.186 11.2654 176.307C7.70452 178.325 7.70451 178.325 5.29049 182.068Z" fill="#010100"/>
</svg>
