<svg width="420" height="665" viewBox="0 0 420 665" fill="none" xmlns="http://www.w3.org/2000/svg">
<path d="M232.816 0.813117C233.218 0.907089 233.218 0.907089 233.628 1.00296C237.738 2.78771 239.927 9.87247 241.71 14.2588C242.228 15.5007 242.778 16.6762 243.398 17.8493C244.716 17.2672 245.946 16.5563 247.192 15.7917C251.62 13.0828 255.922 10.9599 260.901 12.7781C261.137 12.9175 261.372 13.057 261.615 13.2007C262.331 13.0663 263.045 12.9243 263.759 12.7781C264.554 12.7405 265.351 12.7231 266.147 12.7252C266.547 12.7242 266.946 12.7231 267.357 12.7219C268.402 12.7781 268.402 12.7781 269.474 13.2007C270.236 13.1422 270.236 13.1422 271.08 12.9646C275.743 12.1426 280.304 11.7912 285.012 11.7744C285.278 11.7713 285.544 11.7681 285.818 11.7649C292.863 11.6959 299.63 13.004 305.551 17.8493C305.786 18.1282 306.022 18.4071 306.265 18.6945C306.683 18.4554 307.1 18.2162 307.531 17.9698C308.084 17.6566 308.637 17.3435 309.19 17.0305C309.602 16.794 309.602 16.794 310.022 16.5526C312.496 15.1582 314.984 14.235 317.725 15.1354C319.873 16.2046 320.863 18.0382 321.982 20.3849C322.164 20.2362 322.346 20.0875 322.534 19.9343C329.968 13.9619 339.631 8.7262 348.906 10.5066C353.056 11.7528 355.744 14.3002 357.925 18.5889C359.044 20.9563 360.016 23.3852 360.916 25.8788C361.137 25.7518 361.357 25.6249 361.585 25.4941C363.758 24.3397 365.376 23.8626 367.703 24.611C369.533 25.477 370.006 26.8793 370.918 28.837C371.151 28.7178 371.384 28.5987 371.624 28.4759C379.069 24.7091 387.122 20.7945 395.204 24.0778C398.921 25.922 401.645 28.9165 403.407 33.1802C405.749 40.412 404.663 48.3603 402.087 55.2744C400.768 58.6565 399.199 61.7388 397.35 64.7583C397.674 64.9429 397.674 64.9429 398.003 65.1313C399.841 66.2463 401.069 67.1277 401.994 69.4069C402.462 71.3615 402.366 72.4173 401.681 74.214C401.34 75.173 401.34 75.173 401.28 76.1686C401.773 77.2336 402.386 78.0377 403.067 78.9452C405.205 82.0236 405.854 85.5405 405.712 89.4525C405.126 95.4907 402.823 101.32 399.505 105.955C399.036 106.642 399.036 106.642 399.136 107.864C399.438 108.143 399.741 108.422 400.052 108.709C402.329 110.821 404.003 114.222 404.494 117.584C404.716 120.414 404.058 122.893 402.965 125.392C402.602 126.462 402.602 126.462 403.085 127.429C403.3 127.771 403.514 128.113 403.735 128.466C408.593 136.935 411.038 147.365 412.71 157.308C412.768 157.65 412.827 157.992 412.887 158.344C415.9 176.717 412.624 194.961 405.411 211.364C404.832 212.637 404.832 212.637 404.494 213.937C404.914 214.212 404.914 214.212 405.343 214.492C406.28 215.205 406.28 215.205 406.995 216.473C406.914 219.105 406.297 220.991 405.253 223.287C405.128 223.573 405.002 223.859 404.873 224.154C404.627 224.713 404.38 225.27 404.131 225.827C403.642 226.926 403.174 228.038 402.708 229.151C403.11 229.29 403.11 229.29 403.52 229.432C408.202 231.147 411.862 233.568 414.24 238.743C415.597 241.855 416.919 244.955 415.969 248.485C413.203 251.951 409.2 253.525 405.566 255.352C405.687 255.639 405.807 255.925 405.932 256.221C408.32 262.118 408.985 268.885 407.508 275.268C406.756 277.761 405.513 280.74 403.423 281.976C403.654 283.736 404.155 285.189 404.775 286.808C405.886 289.79 406.734 292.82 407.508 295.949C407.576 296.219 407.643 296.49 407.713 296.769C411.065 310.245 413.3 323.887 414.608 337.839C414.637 338.149 414.666 338.459 414.696 338.778C415.388 346.266 415.653 353.711 415.657 361.241C415.657 361.913 415.657 361.913 415.658 362.598C415.641 382.404 415.088 403.844 410.924 423.126C411.307 423.152 411.69 423.178 412.085 423.205C413.716 423.623 413.961 424.038 414.853 425.661C416.267 430.897 416.708 437.009 414.853 442.143C414.639 442.535 414.426 442.927 414.206 443.332C413.996 443.789 413.996 443.789 413.782 444.256C414.328 446.194 415.143 448.024 415.881 449.869C417.539 454.624 416.877 460.071 415.417 464.749C414.581 466.948 413.543 468.927 412.353 470.88C412.637 470.891 412.922 470.902 413.215 470.913C415.913 471.084 417.468 471.489 419.452 473.759C420.047 475.127 420.119 476.166 419.854 477.642C418.023 483.547 414.233 488.862 410.924 493.701C411.346 494.745 411.763 495.589 412.353 496.527C416.616 504.88 412.366 519.694 410.567 528.354C409.127 534.916 407.123 541.154 404.852 547.371C405.02 547.532 405.189 547.692 405.362 547.857C406.611 549.077 407.629 550.13 408.379 551.861C408.518 552.172 408.657 552.482 408.8 552.802C410.236 556.662 409.764 561.29 408.548 565.137C407.848 566.957 407.018 568.662 406.132 570.363C405.946 570.725 405.759 571.087 405.566 571.46C405.406 571.722 405.246 571.984 405.082 572.254C404.708 573.708 405.239 574.93 405.678 576.293C407.254 581.405 408.013 588.14 406.34 593.39C404.878 596.509 402.967 598.433 400.208 599.774C400.294 600.403 400.294 600.403 400.381 601.046C400.582 602.713 400.635 604.37 400.65 606.052C400.654 606.363 400.657 606.673 400.661 606.994C400.779 620.121 400.779 620.121 399.136 626.398C399.048 626.739 398.96 627.08 398.869 627.431C396.41 636.637 392.304 643.837 384.96 648.426C375.138 653.991 364.306 654.534 354.022 650.43C352.14 649.715 351.154 649.542 349.285 650.434C339.042 655.241 326.234 649.245 316.624 644.57C316.435 644.899 316.435 644.899 316.243 645.235C314.794 647.656 313.355 649.521 310.909 650.486C306.404 650.855 303.237 650.176 299.478 647.106C298.803 646.736 298.803 646.736 298.05 646.683C297.3 647.112 297.3 647.112 296.576 647.792C286.692 656.02 272.79 655.409 261.353 653.116C256.057 651.964 251.145 649.731 246.256 647.106C246.005 647.473 245.755 647.84 245.497 648.218C242.621 652.376 239.91 655.992 235.16 656.773C230.583 657.112 226.651 655.001 222.681 652.599C222.459 652.886 222.238 653.172 222.01 653.468C217.043 659.643 210.88 664.193 203.504 664.589C193.403 664.822 181.41 662.45 173.477 654.369C172.59 653.485 172.59 653.485 171.602 653.022C170.384 653.318 169.456 653.854 168.359 654.539C166.792 655.434 165.44 655.495 163.743 655.135C161.274 654.046 160.033 651.882 158.742 649.219C158.742 648.94 158.742 648.661 158.742 648.373C158.342 648.517 157.941 648.661 157.529 648.809C135.556 656.542 111.178 663.133 89.0786 652.946C88.7344 652.787 88.3901 652.629 88.0355 652.466C87.5784 652.246 87.5784 652.246 87.1122 652.022C85.5516 651.547 84.3538 652.153 82.9621 652.991C82.5496 653.233 82.5496 653.233 82.1287 653.481C81.6952 653.737 81.6952 653.737 81.2529 653.999C76.6759 656.639 71.101 659.416 65.9827 657.565C63.5217 656.484 62.3463 654.922 61.2275 652.177C61.2275 651.619 61.2275 651.061 61.2275 650.486C61.0196 650.488 60.8117 650.49 60.5975 650.492C58.3948 650.511 56.1921 650.524 53.9894 650.533C53.1719 650.537 52.3545 650.543 51.5371 650.55C40.8574 650.644 29.053 650.281 20.507 641.612C20.2477 641.352 19.9885 641.092 19.7214 640.824C15.7668 636.52 13.5428 630.208 13.3198 623.909C13.2607 620.438 13.2897 616.699 14.482 613.469C14.8358 612.308 14.8608 611.878 14.4346 610.762C13.8498 610.024 13.8498 610.024 13.1174 609.362C10.2725 606.514 8.46218 603.733 7.88087 599.236C7.78411 596.638 8.50602 595.024 9.94731 593.144C11.0219 592.139 12.12 591.839 13.4425 591.472C14.0221 591.309 14.0221 591.309 14.6133 591.142C14.908 591.062 15.2026 590.982 15.5062 590.899C15.2802 590.445 15.2802 590.445 15.0496 589.981C8.78925 577.337 2.23747 564.061 1.5755 549.062C1.55662 548.691 1.53774 548.321 1.51829 547.939C1.32991 540.575 1.72234 530.864 5.87024 525.014C6.3264 524.097 6.3264 524.097 5.96651 522.911C5.81411 522.476 5.6617 522.041 5.50467 521.592C5.25826 520.747 5.01269 519.902 4.76795 519.057C4.64593 518.638 4.52391 518.22 4.39819 517.789C3.6258 514.751 3.16379 511.165 4.14285 508.122C4.9875 506.399 5.71969 505.428 7.35624 504.822C8.69123 504.446 9.83811 504.266 11.2198 504.266C11.1075 503.911 10.9951 503.556 10.8794 503.191C5.63708 485.761 6.68183 465.646 7.75948 447.478C7.79096 446.935 7.79098 446.935 7.8231 446.381C8.05895 442.433 8.40624 438.516 8.88828 434.599C8.93065 434.249 8.97301 433.899 9.01667 433.538C9.30326 431.329 9.73833 429.331 10.5529 427.299C10.8944 426.425 11.1458 425.78 11.2198 424.816C10.7735 423.766 10.7735 423.766 10.1036 422.703C7.15667 417.456 5.37393 410.857 5.14747 404.531C5.1332 404.179 5.11892 403.826 5.10422 403.463C5.00657 398.727 5.25926 392.689 8.16133 389.08C8.80227 388.14 8.80227 388.14 8.63294 387.257C8.3544 386.221 8.01516 385.244 7.64785 384.246C7.41924 383.596 7.41924 383.596 7.18601 382.932C6.87863 382.058 6.56684 381.185 6.24976 380.316C5.18224 377.176 5.01567 373.561 5.81582 370.3C6.46022 368.621 7.14167 367.273 8.45155 366.233C10.0437 365.542 11.3331 365.49 13.0058 365.652C12.9193 365.358 12.8327 365.065 12.7435 364.762C11.5135 360.346 10.7997 355.861 10.1482 351.283C10.1048 350.994 10.0614 350.705 10.0167 350.407C8.44556 339.642 8.5618 327.115 12.2914 317.052C12.5314 316.349 12.7701 315.645 13.0058 314.939C12.8594 314.755 12.713 314.571 12.5621 314.381C10.7764 312.046 9.99753 310.187 10.0813 306.943C10.3762 303.076 11.7292 300.607 14.1904 298.078C14.7918 297.613 14.7918 297.613 15.8634 297.613C15.6428 297.254 15.4223 296.896 15.195 296.526C12.3467 291.873 9.5958 287.25 7.49158 282.056C7.37365 281.768 7.25572 281.48 7.13421 281.183C5.76434 277.678 5.19672 274.384 5.86187 270.566C6.47729 268.6 7.1464 267.348 8.71945 266.34C9.6836 266.273 9.6836 266.273 10.751 266.297C11.2835 266.306 11.2835 266.306 11.8268 266.316C12.098 266.324 12.3692 266.332 12.6486 266.34C12.5272 265.916 12.5272 265.916 12.4033 265.484C8.92095 253.242 7.49505 242.242 10.0673 229.47C10.169 228.008 9.89193 227.549 9.14362 226.404C7.16071 223.328 6.99075 220.238 7.29066 216.473C7.90997 213.505 9.219 211.187 10.8626 208.866C10.6895 208.655 10.5164 208.444 10.338 208.227C3.72466 199.846 0.830076 189.239 1.15586 177.949C1.5525 170.321 3.81978 161.766 8.29528 156.06C8.82888 155.193 8.82888 155.193 8.52411 154.073C8.38229 153.676 8.24047 153.28 8.09435 152.871C6.91976 149.499 6.45017 146.77 7.53623 143.257C8.16776 141.55 8.72927 140.478 10.1482 139.559C10.8602 139.402 11.5746 139.259 12.2914 139.136C12.1291 138.627 12.1291 138.627 11.9635 138.106C10.9192 134.639 10.1554 131.173 9.52314 127.568C9.448 127.141 9.37286 126.715 9.29545 126.275C8.48866 121.534 8.27831 116.947 8.27295 112.116C8.27223 111.803 8.27151 111.49 8.27077 111.167C8.26248 96.267 8.26249 96.267 9.79104 92.6501C9.42268 92.685 9.05432 92.7198 8.6748 92.7557C7.00942 92.6286 6.38987 92.2662 5.14747 90.9597C3.29044 88.2524 3.46246 84.9782 3.71868 81.6624C4.12663 78.8303 5.11786 76.587 6.43255 74.1926C6.9442 73.1893 7.30478 72.1946 7.64785 71.0973C7.30459 70.7664 7.30459 70.7664 6.95439 70.4287C3.59214 67.0437 0.631647 62.5892 0.0113607 57.2554C-0.15693 52.6374 1.64619 49.2938 4.18907 45.9718C9.49164 39.1997 15.6277 34.7344 23.0115 31.7985C23.9788 31.4126 24.9214 30.9872 25.8649 30.5274C25.7471 30.3182 25.6292 30.109 25.5077 29.8935C25.004 28.4034 24.9484 27.0241 25.1505 25.4562C26.0824 23.1631 27.1976 22.2849 29.0797 21.2301C32.6813 20.0915 35.938 21.9377 39.0701 23.8698C40.1528 24.611 40.1528 24.611 40.8296 25.4215C41.6457 26.0473 41.6457 26.0473 42.8695 25.4265C43.4173 25.1431 43.9627 24.853 44.5062 24.5581C78.9399 7.22327 78.9399 7.22327 90.5777 12.7665C92.4632 14.0174 93.0597 15.6727 93.6655 18.0078C93.8121 18.6577 93.9554 19.3087 94.0897 19.9623C94.4419 19.8013 94.4419 19.8013 94.8013 19.6371C109.874 13.1853 128.854 16.9719 143.74 22.4979C144.02 22.0534 144.3 21.6089 144.588 21.1509C146.176 18.9468 148.475 17.5258 150.884 17.0041C153.934 16.73 156.432 16.824 159.1 18.6945C159.1 18.9734 159.1 19.2524 159.1 19.5397C159.519 19.3714 159.939 19.2031 160.371 19.0296C167.957 16.0439 174.683 15.541 182.675 15.7363C183.083 15.7428 183.491 15.7494 183.912 15.7561C191.268 15.8796 198.474 16.9256 205.643 18.8943C206.948 19.1961 208.14 19.2112 209.465 19.1171C209.347 19.675 209.229 20.2328 209.107 20.8075C209.343 20.8075 209.579 20.8075 209.822 20.8075C209.851 20.4066 209.881 20.0056 209.911 19.5926C210.179 18.2719 210.179 18.2719 210.8 17.7767C213.593 16.5668 216.445 17.6242 219.128 18.7473C220.141 19.1031 220.919 19.1903 221.966 19.1171C222.055 18.6203 222.143 18.1235 222.234 17.6116C222.382 16.8454 222.531 16.0794 222.681 15.3137C222.772 14.8185 222.864 14.3233 222.958 13.8131C224.092 8.17817 226.002 4.17859 230.182 0.945181C231.309 0.500608 231.69 0.528986 232.816 0.813117Z" fill="#AC6249"/>
<path d="M232.816 0.813117C233.218 0.907089 233.218 0.907089 233.628 1.00296C237.738 2.78771 239.927 9.87247 241.71 14.2588C242.228 15.5007 242.778 16.6762 243.398 17.8493C244.716 17.2672 245.946 16.5563 247.192 15.7917C251.62 13.0828 255.922 10.9599 260.901 12.7781C261.137 12.9175 261.372 13.057 261.615 13.2007C262.331 13.0663 263.045 12.9243 263.759 12.7781C264.554 12.7405 265.351 12.7231 266.147 12.7252C266.547 12.7242 266.946 12.7231 267.357 12.7219C268.402 12.7781 268.402 12.7781 269.474 13.2007C270.236 13.1422 270.236 13.1422 271.08 12.9646C275.743 12.1426 280.304 11.7912 285.012 11.7744C285.278 11.7713 285.544 11.7681 285.818 11.7649C292.863 11.6959 299.63 13.004 305.551 17.8493C305.786 18.1282 306.022 18.4071 306.265 18.6945C306.683 18.4554 307.1 18.2162 307.531 17.9698C308.084 17.6566 308.637 17.3435 309.19 17.0305C309.602 16.794 309.602 16.794 310.022 16.5526C312.496 15.1582 314.984 14.235 317.725 15.1354C319.873 16.2046 320.863 18.0382 321.982 20.3849C322.164 20.2362 322.346 20.0875 322.534 19.9343C329.968 13.9619 339.631 8.7262 348.906 10.5066C353.056 11.7528 355.744 14.3002 357.925 18.5889C359.044 20.9563 360.016 23.3852 360.916 25.8788C361.137 25.7518 361.357 25.6249 361.585 25.4941C363.758 24.3397 365.376 23.8626 367.703 24.611C369.533 25.477 370.006 26.8793 370.918 28.837C371.151 28.7178 371.384 28.5987 371.624 28.4759C379.069 24.7091 387.122 20.7945 395.204 24.0778C398.921 25.922 401.645 28.9165 403.407 33.1802C405.749 40.412 404.663 48.3603 402.087 55.2744C400.768 58.6565 399.199 61.7388 397.35 64.7583C397.674 64.9429 397.674 64.9429 398.003 65.1313C399.841 66.2463 401.069 67.1277 401.994 69.4069C402.462 71.3615 402.366 72.4173 401.681 74.214C401.34 75.173 401.34 75.173 401.28 76.1686C401.773 77.2336 402.386 78.0377 403.067 78.9452C405.205 82.0236 405.854 85.5405 405.712 89.4525C405.126 95.4907 402.823 101.32 399.505 105.955C399.036 106.642 399.036 106.642 399.136 107.864C399.438 108.143 399.741 108.422 400.052 108.709C402.329 110.821 404.003 114.222 404.494 117.584C404.716 120.414 404.058 122.893 402.965 125.392C402.602 126.462 402.602 126.462 403.085 127.429C403.3 127.771 403.514 128.113 403.735 128.466C408.593 136.935 411.038 147.365 412.71 157.308C412.768 157.65 412.827 157.992 412.887 158.344C415.9 176.717 412.624 194.961 405.411 211.364C404.832 212.637 404.832 212.637 404.494 213.937C404.914 214.212 404.914 214.212 405.343 214.492C406.28 215.205 406.28 215.205 406.995 216.473C406.914 219.105 406.297 220.991 405.253 223.287C405.128 223.573 405.002 223.859 404.873 224.154C404.627 224.713 404.38 225.27 404.131 225.827C403.642 226.926 403.174 228.038 402.708 229.151C403.11 229.29 403.11 229.29 403.52 229.432C408.202 231.147 411.862 233.568 414.24 238.743C415.597 241.855 416.919 244.955 415.969 248.485C413.203 251.951 409.2 253.525 405.566 255.352C405.687 255.639 405.807 255.925 405.932 256.221C408.32 262.118 408.985 268.885 407.508 275.268C406.756 277.761 405.513 280.74 403.423 281.976C403.654 283.736 404.155 285.189 404.775 286.808C405.886 289.79 406.734 292.82 407.508 295.949C407.576 296.219 407.643 296.49 407.713 296.769C411.065 310.245 413.3 323.887 414.608 337.839C414.637 338.149 414.666 338.459 414.696 338.778C415.388 346.266 415.653 353.711 415.657 361.241C415.657 361.913 415.657 361.913 415.658 362.598C415.641 382.404 415.088 403.844 410.924 423.126C411.307 423.152 411.69 423.178 412.085 423.205C413.716 423.623 413.961 424.038 414.853 425.661C416.267 430.897 416.708 437.009 414.853 442.143C414.639 442.535 414.426 442.927 414.206 443.332C413.996 443.789 413.996 443.789 413.782 444.256C414.328 446.194 415.143 448.024 415.881 449.869C417.539 454.624 416.877 460.071 415.417 464.749C414.581 466.948 413.543 468.927 412.353 470.88C412.637 470.891 412.922 470.902 413.215 470.913C415.913 471.084 417.468 471.489 419.452 473.759C420.047 475.127 420.119 476.166 419.854 477.642C418.023 483.547 414.233 488.862 410.924 493.701C411.346 494.745 411.763 495.589 412.353 496.527C416.616 504.88 412.366 519.694 410.567 528.354C409.127 534.916 407.123 541.154 404.852 547.371C405.02 547.532 405.189 547.692 405.362 547.857C406.611 549.077 407.629 550.13 408.379 551.861C408.518 552.172 408.657 552.482 408.8 552.802C410.236 556.662 409.764 561.29 408.548 565.137C407.848 566.957 407.018 568.662 406.132 570.363C405.946 570.725 405.759 571.087 405.566 571.46C405.406 571.722 405.246 571.984 405.082 572.254C404.708 573.708 405.239 574.93 405.678 576.293C407.254 581.405 408.013 588.14 406.34 593.39C404.878 596.509 402.967 598.433 400.208 599.774C400.294 600.403 400.294 600.403 400.381 601.046C400.582 602.713 400.635 604.37 400.65 606.052C400.654 606.363 400.657 606.673 400.661 606.994C400.779 620.121 400.779 620.121 399.136 626.398C399.048 626.739 398.96 627.08 398.869 627.431C396.41 636.637 392.304 643.837 384.96 648.426C375.138 653.991 364.306 654.534 354.022 650.43C352.14 649.715 351.154 649.542 349.285 650.434C339.042 655.241 326.234 649.245 316.624 644.57C316.435 644.899 316.435 644.899 316.243 645.235C314.794 647.656 313.355 649.521 310.909 650.486C306.404 650.855 303.237 650.176 299.478 647.106C298.803 646.736 298.803 646.736 298.05 646.683C297.3 647.112 297.3 647.112 296.576 647.792C286.692 656.02 272.79 655.409 261.353 653.116C256.057 651.964 251.145 649.731 246.256 647.106C246.005 647.473 245.755 647.84 245.497 648.218C242.621 652.376 239.91 655.992 235.16 656.773C230.583 657.112 226.651 655.001 222.681 652.599C222.459 652.886 222.238 653.172 222.01 653.468C217.043 659.643 210.88 664.193 203.504 664.589C193.403 664.822 181.41 662.45 173.477 654.369C172.59 653.485 172.59 653.485 171.602 653.022C170.384 653.318 169.456 653.854 168.359 654.539C166.792 655.434 165.44 655.495 163.743 655.135C161.274 654.046 160.033 651.882 158.742 649.219C158.742 648.94 158.742 648.661 158.742 648.373C158.342 648.517 157.941 648.661 157.529 648.809C135.556 656.542 111.178 663.133 89.0786 652.946C88.7344 652.787 88.3901 652.629 88.0355 652.466C87.5784 652.246 87.5784 652.246 87.1122 652.022C85.5516 651.547 84.3538 652.153 82.9621 652.991C82.5496 653.233 82.5496 653.233 82.1287 653.481C81.6952 653.737 81.6952 653.737 81.2529 653.999C76.6759 656.639 71.101 659.416 65.9827 657.565C63.5217 656.484 62.3463 654.922 61.2275 652.177C61.2275 651.619 61.2275 651.061 61.2275 650.486C61.0196 650.488 60.8117 650.49 60.5975 650.492C58.3948 650.511 56.1921 650.524 53.9894 650.533C53.1719 650.537 52.3545 650.543 51.5371 650.55C40.8574 650.644 29.053 650.281 20.507 641.612C20.2477 641.352 19.9885 641.092 19.7214 640.824C15.7668 636.52 13.5428 630.208 13.3198 623.909C13.2607 620.438 13.2897 616.699 14.482 613.469C14.8358 612.308 14.8608 611.878 14.4346 610.762C13.8498 610.024 13.8498 610.024 13.1174 609.362C10.2725 606.514 8.46218 603.733 7.88087 599.236C7.78411 596.638 8.50602 595.024 9.94731 593.144C11.0219 592.139 12.12 591.839 13.4425 591.472C14.0221 591.309 14.0221 591.309 14.6133 591.142C14.908 591.062 15.2026 590.982 15.5062 590.899C15.2802 590.445 15.2802 590.445 15.0496 589.981C8.78925 577.337 2.23747 564.061 1.5755 549.062C1.55662 548.691 1.53774 548.321 1.51829 547.939C1.32991 540.575 1.72234 530.864 5.87024 525.014C6.3264 524.097 6.3264 524.097 5.96651 522.911C5.81411 522.476 5.6617 522.041 5.50467 521.592C5.25826 520.747 5.01269 519.902 4.76795 519.057C4.64593 518.638 4.52391 518.22 4.39819 517.789C3.6258 514.751 3.16379 511.165 4.14285 508.122C4.9875 506.399 5.71969 505.428 7.35624 504.822C8.69123 504.446 9.83811 504.266 11.2198 504.266C11.1075 503.911 10.9951 503.556 10.8794 503.191C5.63708 485.761 6.68183 465.646 7.75948 447.478C7.79096 446.935 7.79098 446.935 7.8231 446.381C8.05895 442.433 8.40624 438.516 8.88828 434.599C8.93065 434.249 8.97301 433.899 9.01667 433.538C9.30326 431.329 9.73833 429.331 10.5529 427.299C10.8944 426.425 11.1458 425.78 11.2198 424.816C10.7735 423.766 10.7735 423.766 10.1036 422.703C7.15667 417.456 5.37393 410.857 5.14747 404.531C5.1332 404.179 5.11892 403.826 5.10422 403.463C5.00657 398.727 5.25926 392.689 8.16133 389.08C8.80227 388.14 8.80227 388.14 8.63294 387.257C8.3544 386.221 8.01516 385.244 7.64785 384.246C7.41924 383.596 7.41924 383.596 7.18601 382.932C6.87863 382.058 6.56684 381.185 6.24976 380.316C5.18224 377.176 5.01567 373.561 5.81582 370.3C6.46022 368.621 7.14167 367.273 8.45155 366.233C10.0437 365.542 11.3331 365.49 13.0058 365.652C12.9193 365.358 12.8327 365.065 12.7435 364.762C11.5135 360.346 10.7997 355.861 10.1482 351.283C10.1048 350.994 10.0614 350.705 10.0167 350.407C8.44556 339.642 8.5618 327.115 12.2914 317.052C12.5314 316.349 12.7701 315.645 13.0058 314.939C12.8594 314.755 12.713 314.571 12.5621 314.381C10.7764 312.046 9.99753 310.187 10.0813 306.943C10.3762 303.076 11.7292 300.607 14.1904 298.078C14.7918 297.613 14.7918 297.613 15.8634 297.613C15.6428 297.254 15.4223 296.896 15.195 296.526C12.3467 291.873 9.5958 287.25 7.49158 282.056C7.37365 281.768 7.25572 281.48 7.13421 281.183C5.76434 277.678 5.19672 274.384 5.86187 270.566C6.47729 268.6 7.1464 267.348 8.71945 266.34C9.6836 266.273 9.6836 266.273 10.751 266.297C11.2835 266.306 11.2835 266.306 11.8268 266.316C12.098 266.324 12.3692 266.332 12.6486 266.34C12.5272 265.916 12.5272 265.916 12.4033 265.484C8.92095 253.242 7.49505 242.242 10.0673 229.47C10.169 228.008 9.89193 227.549 9.14362 226.404C7.16071 223.328 6.99075 220.238 7.29066 216.473C7.90997 213.505 9.219 211.187 10.8626 208.866C10.6895 208.655 10.5164 208.444 10.338 208.227C3.72466 199.846 0.830076 189.239 1.15586 177.949C1.5525 170.321 3.81978 161.766 8.29528 156.06C8.82888 155.193 8.82888 155.193 8.52411 154.073C8.38229 153.676 8.24047 153.28 8.09435 152.871C6.91976 149.499 6.45017 146.77 7.53623 143.257C8.16776 141.55 8.72927 140.478 10.1482 139.559C10.8602 139.402 11.5746 139.259 12.2914 139.136C12.1291 138.627 12.1291 138.627 11.9635 138.106C10.9192 134.639 10.1554 131.173 9.52314 127.568C9.448 127.141 9.37286 126.715 9.29545 126.275C8.48866 121.534 8.27831 116.947 8.27295 112.116C8.27223 111.803 8.27151 111.49 8.27077 111.167C8.26248 96.267 8.26249 96.267 9.79104 92.6501C9.42268 92.685 9.05432 92.7198 8.6748 92.7557C7.00942 92.6286 6.38987 92.2662 5.14747 90.9597C3.29044 88.2524 3.46246 84.9782 3.71868 81.6624C4.12663 78.8303 5.11786 76.587 6.43255 74.1926C6.9442 73.1893 7.30478 72.1946 7.64785 71.0973C7.30459 70.7664 7.30459 70.7664 6.95439 70.4287C3.59214 67.0437 0.631647 62.5892 0.0113607 57.2554C-0.15693 52.6374 1.64619 49.2938 4.18907 45.9718C9.49164 39.1997 15.6277 34.7344 23.0115 31.7985C23.9788 31.4126 24.9214 30.9872 25.8649 30.5274C25.7471 30.3182 25.6292 30.109 25.5077 29.8935C25.004 28.4034 24.9484 27.0241 25.1505 25.4562C26.0824 23.1631 27.1976 22.2849 29.0797 21.2301C32.6813 20.0915 35.938 21.9377 39.0701 23.8698C40.1528 24.611 40.1528 24.611 40.8296 25.4215C41.6457 26.0473 41.6457 26.0473 42.8695 25.4265C43.4173 25.1431 43.9627 24.853 44.5062 24.5581C78.9399 7.22327 78.9399 7.22327 90.5777 12.7665C92.4632 14.0174 93.0597 15.6727 93.6655 18.0078C93.8121 18.6577 93.9554 19.3087 94.0897 19.9623C94.4419 19.8013 94.4419 19.8013 94.8013 19.6371C109.874 13.1853 128.854 16.9719 143.74 22.4979C144.02 22.0534 144.3 21.6089 144.588 21.1509C146.176 18.9468 148.475 17.5258 150.884 17.0041C153.934 16.73 156.432 16.824 159.1 18.6945C159.1 18.9734 159.1 19.2524 159.1 19.5397C159.519 19.3714 159.939 19.2031 160.371 19.0296C167.957 16.0439 174.683 15.541 182.675 15.7363C183.083 15.7428 183.491 15.7494 183.912 15.7561C191.268 15.8796 198.474 16.9256 205.643 18.8943C206.948 19.1961 208.14 19.2112 209.465 19.1171C209.347 19.675 209.229 20.2328 209.107 20.8075C209.343 20.8075 209.579 20.8075 209.822 20.8075C209.851 20.4066 209.881 20.0056 209.911 19.5926C210.179 18.2719 210.179 18.2719 210.8 17.7767C213.593 16.5668 216.445 17.6242 219.128 18.7473C220.141 19.1031 220.919 19.1903 221.966 19.1171C222.055 18.6203 222.143 18.1235 222.234 17.6116C222.382 16.8454 222.531 16.0794 222.681 15.3137C222.772 14.8185 222.864 14.3233 222.958 13.8131C224.092 8.17817 226.002 4.17859 230.182 0.945181C231.309 0.500608 231.69 0.528986 232.816 0.813117ZM231.611 5.59382C227.295 10.7297 226.207 17.1647 226.006 24.1801C225.896 25.4562 225.896 25.4562 225.181 26.3014C223.923 26.1435 222.892 25.6642 221.759 25.0204C221.455 24.852 221.151 24.6837 220.838 24.5103C220.21 24.1567 219.582 23.8013 218.955 23.4439C217.061 22.399 215.483 21.8135 213.394 21.6527C214.244 22.7922 215.116 23.3601 216.274 24.0035C217.277 24.563 217.965 24.9475 218.752 25.8788C218.975 26.7768 218.975 26.7768 219.109 27.5692C218.074 27.2361 217.04 26.9013 216.006 26.5655C215.568 26.425 215.568 26.425 215.122 26.2816C214.695 26.1427 214.695 26.1427 214.26 26.0009C214 25.9168 213.74 25.8327 213.472 25.7461C212.679 25.4562 212.679 25.4562 211.862 25.0433C210.632 24.4946 209.383 24.203 208.097 23.911C207.83 23.8486 207.562 23.7861 207.287 23.7218C206.436 23.5232 205.584 23.3274 204.732 23.1319C203.887 22.9362 203.042 22.74 202.198 22.5434C201.653 22.4167 201.107 22.2903 200.562 22.1644C199.269 21.8643 197.982 21.5497 196.7 21.1905C192.244 20.017 187.93 19.8361 183.389 19.8831C182.766 19.8877 182.144 19.8923 181.521 19.8969C180.024 19.9098 178.526 19.9301 177.029 19.9524C176.334 19.9612 175.64 19.9643 174.945 19.9667C169.78 19.9848 165.054 20.8679 160.392 23.6386C159.457 24.1884 159.457 24.1884 158.608 24.1619C157.779 23.8115 157.064 23.4033 156.287 22.9205C154.618 21.9203 153.281 21.3719 151.396 21.9185C149.39 22.7073 147.688 23.7534 145.978 25.2185C145.711 25.4364 145.444 25.6543 145.169 25.8788C144.615 26.3682 144.615 26.3682 144.05 26.8676C142.916 27.6152 142.246 27.6076 140.991 27.2539C140.342 27.025 139.696 26.7861 139.052 26.5391C134.13 24.8375 129.157 23.8391 124.094 22.9205C123.797 22.8638 123.499 22.8071 123.193 22.7487C113.759 20.9836 102.513 20.928 93.7325 25.7995C92.6609 26.3014 92.6609 26.3014 91.6786 26.3278C90.8749 25.8788 90.8749 25.8788 90.2721 24.9279C89.6964 22.9818 89.5189 21.0913 89.347 19.0445C89.1934 17.8228 89.1934 17.8228 88.4582 17.2715C76.2728 13.1885 55.6339 24.604 44.1285 29.2641C41.5576 30.2254 41.5576 30.2254 40.5367 29.8558C40.3226 29.7174 40.1084 29.5789 39.8877 29.4362C39.6469 29.2862 39.4061 29.1361 39.158 28.9814C38.9116 28.8205 38.6653 28.6595 38.4115 28.4936C35.685 26.7466 33.2987 25.6263 30.1513 25.8788C29.7977 26.2971 29.7977 26.2971 29.4369 26.724C29.5578 28.1578 30.1066 28.9882 30.8657 30.0784C32.3315 32.3308 32.3315 32.3308 32.2945 33.9082C31.8843 34.8013 31.8843 34.8013 31.2229 35.5986C30.3034 35.7819 30.3034 35.7819 29.1913 35.7835C22.557 36.1921 16.111 40.1404 11.2198 45.3185C10.9159 45.623 10.612 45.9276 10.2989 46.2413C7.88648 48.7067 5.45068 51.3684 4.43308 55.0384C4.48591 58.7262 5.76213 61.7949 7.93808 64.4149C8.68566 65.2539 9.44309 66.0347 10.2529 66.7887C12.2119 68.6347 12.2119 68.6347 12.604 70.3578C12.1452 72.6842 11.1605 74.5418 10.1482 76.5912C9.80693 77.3443 9.47162 78.1013 9.14362 78.8627C9.00134 79.1884 8.85906 79.5142 8.71247 79.8498C7.94082 81.9812 7.91172 84.029 8.00505 86.311C8.2408 86.7294 8.47655 87.1478 8.71945 87.5788C9.80279 87.7563 10.8608 87.7647 11.9538 87.7885C13.0058 88.0014 13.0058 88.0014 13.8709 88.7212C14.4346 89.6919 14.4346 89.6919 14.443 90.7434C14.3665 91.1373 14.2901 91.5311 14.2114 91.9369C14.1335 92.3847 14.0557 92.8325 13.9756 93.2939C13.8913 93.7787 13.807 94.2636 13.7202 94.7631C11.94 108.579 12.5982 121.023 15.5062 134.488C15.8008 135.87 16.0942 137.252 16.387 138.635C16.5677 139.487 16.7497 140.338 16.9332 141.189C17.4777 143.732 17.9511 146.279 18.3638 148.856C17.4846 147.849 16.8405 146.806 16.1536 145.608C15.2868 144.208 15.2868 144.208 13.9937 143.537C13.1216 143.526 13.1216 143.526 11.9342 143.785C11.0385 145.375 11.002 147.017 11.2198 148.856C11.7219 150.868 12.3095 152.603 13.4523 154.218C14.3038 155.549 14.1851 156.529 14.0774 158.154C13.7754 158.215 13.4733 158.276 13.1621 158.338C9.83314 160.129 8.42878 164.893 7.18775 168.716C6.56663 170.787 6.17892 172.897 5.86187 175.058C5.81536 175.354 5.76886 175.65 5.72094 175.956C4.52797 184.989 6.85936 193.86 11.0998 201.333C12.0528 202.874 13.1683 204.232 14.292 205.599C16.062 207.769 17.3635 210.106 18.721 212.669C16.4224 212.042 16.4224 212.042 14.0774 211.402C11.6704 216.171 11.6704 216.171 11.577 221.544C12.0273 222.845 12.5353 223.911 13.363 224.925C14.3126 225.399 14.3126 225.399 15.149 225.348C15.7011 227.508 15.4357 228.697 14.6802 230.762C13.4627 234.227 13.206 237.686 13.0058 241.406C12.9842 241.793 12.9625 242.18 12.9402 242.578C12.7191 251.597 15.3111 260.014 18.1573 268.229C19.0672 270.888 19.6851 273.353 19.9865 276.205C20.1567 277.375 20.4608 278.357 20.8642 279.441C20.4542 278.956 20.0445 278.47 19.6363 277.983C19.2474 277.526 18.8524 277.077 18.4531 276.633C17.3833 275.424 16.5452 274.414 15.9304 272.811C14.8489 270.874 13.4788 270.192 11.577 269.721C10.6167 269.801 10.6167 269.801 9.79104 270.143C8.8379 271.732 9.01756 273.458 9.22455 275.305C10.3041 281.376 13.7716 286.752 16.8457 291.643C20.9716 298.212 20.9716 298.212 21.0204 300.597C20.8642 301.839 20.8642 301.839 20.507 302.261C19.8741 302.248 19.2415 302.219 18.6094 302.182C17.0359 302.144 17.0359 302.144 15.6625 302.974C14.5592 305.074 14.2838 306.537 14.5755 308.99C14.913 310.36 15.5729 310.829 16.5778 311.559C17.6047 312.325 17.6047 312.325 18.3638 313.249C18.4624 315.233 17.9559 316.375 17.002 317.924C10.8672 328.211 13.9037 345.129 15.2037 356.63C15.3534 357.955 15.5023 359.28 15.6511 360.605C15.8495 362.369 16.0525 364.132 16.2584 365.894C16.352 366.715 16.4454 367.535 16.5387 368.356C16.5841 368.734 16.6294 369.112 16.6761 369.502C16.8754 371.28 17.0218 372.773 16.5778 374.526C16.342 374.526 16.1063 374.526 15.8634 374.526C15.8192 374.221 15.775 373.916 15.7295 373.602C15.506 372.413 15.2526 371.391 14.7918 370.3C13.3448 369.73 12.0182 369.651 10.5054 369.878C9.48395 370.746 9.32874 371.824 9.09897 373.232C8.88255 376.583 10.0695 379.71 11.1836 382.726C11.2998 383.044 11.4161 383.362 11.5359 383.689C11.7675 384.314 12.0059 384.934 12.2517 385.551C12.8112 387.043 13.0494 387.779 12.7854 389.422C12.3277 390.5 11.8475 391.382 11.2198 392.329C8.58546 396.859 9.1942 403.296 9.87894 408.468C10.8087 413.843 12.6031 418.599 15.3053 423.047C16.0072 424.269 16.216 424.674 16.2652 426.19C15.8634 427.352 15.8634 427.352 15.1937 428.303C13.1775 431.39 13.0908 435.67 12.8049 439.422C12.7612 439.973 12.7176 440.524 12.6726 441.092C10.858 464.471 11.1323 486.574 16.5778 509.337C16.3683 509.2 16.1588 509.062 15.9429 508.921C13.6917 507.704 10.6686 508.68 8.36225 509.337C7.71945 510.097 7.91302 511.188 7.89343 512.216C7.92814 516.373 8.72754 519.63 11.1668 522.641C11.577 523.283 11.577 523.283 11.644 524.63C11.1209 526.096 10.4821 526.522 9.43384 527.509C5.28241 533.957 5.67502 545.135 6.32057 552.803C8.11644 568.129 15.935 581.843 22.6502 594.703C22.2104 594.691 21.7707 594.68 21.3176 594.668C20.1976 594.669 19.3047 594.771 18.2522 595.257C16.4138 596.056 14.5413 596.648 12.6486 597.238C12.4072 599.857 12.747 601.313 14.0593 603.444C15.634 605.548 17.7015 608.214 20.1498 608.649C20.3527 611.29 19.984 612.716 18.7894 614.955C17.0954 618.45 17.63 624.512 18.2508 628.318C18.5792 629.435 18.9585 630.431 19.4354 631.469C19.5869 631.83 19.7384 632.192 19.8944 632.564C22.6094 638.514 27.6326 641.413 32.8749 643.461C38.4767 645.309 44.3632 645.484 50.1432 645.356C51.1693 645.344 52.1954 645.334 53.2216 645.326C53.9206 645.315 54.6194 645.295 55.318 645.266C61.0343 645.045 61.0343 645.045 62.557 646.375C63.4298 647.494 63.9645 648.621 64.549 649.983C65.2027 651.434 65.7922 652.122 66.9427 653.022C72.2489 654.421 78.0911 650.69 82.4963 647.598C83.8041 646.713 84.565 646.259 86.0988 646.267C87.3949 646.715 88.5079 647.312 89.714 648.03C108.788 658.538 132.433 651.396 151.709 645.342C152.154 645.203 152.6 645.063 153.059 644.919C153.876 644.659 154.693 644.394 155.508 644.124C156.044 643.951 156.044 643.951 156.591 643.774C156.897 643.672 157.203 643.57 157.518 643.465C158.525 643.276 159.2 643.363 160.171 643.725C161.379 645.187 162.059 646.489 162.672 648.373C163.548 649.967 163.548 649.967 164.928 650.818C166.117 650.931 166.676 650.6 167.717 649.932C168.02 649.742 168.323 649.551 168.635 649.356C169.281 648.916 169.91 648.44 170.53 647.951C172.963 647.52 174.182 648.675 176.044 650.301C184.027 656.91 195.092 660.883 204.88 659.23C211.371 657.855 215.897 653.567 220.39 648.108C221.421 646.925 222.249 646.294 223.685 646.181C223.943 646.207 224.201 646.233 224.467 646.26C224.585 647.237 224.703 648.213 224.824 649.219C225.687 649.563 226.55 649.906 227.414 650.249C227.657 650.346 227.901 650.443 228.152 650.543C231.015 651.678 233.891 652.595 236.859 651.351C240.322 649.12 242.522 645.129 244.47 641.189C246.674 641.399 248.342 642.277 250.319 643.408C257.679 647.45 265.179 649.033 273.276 648.961C274.188 648.954 275.099 648.961 276.011 648.969C281.223 648.977 285.952 648.144 290.84 645.915C291.977 645.415 291.977 645.415 293.262 645.021C294.495 644.564 295.226 644.05 296.219 643.091C296.626 642.705 296.626 642.705 297.042 642.312C297.725 641.661 297.725 641.661 298.05 640.766C299.009 640.634 299.009 640.634 300.193 640.766C301.041 641.691 301.041 641.691 301.979 642.88C303.967 644.581 305.556 645.467 308.029 645.521C308.327 645.532 308.625 645.543 308.931 645.554C310.094 645.376 310.694 644.997 311.623 644.147C312.344 642.93 312.344 642.93 312.94 641.559C314.057 639.115 314.057 639.115 314.838 638.654C316.323 638.39 317.21 638.74 318.484 639.571C320.76 640.953 323.141 641.898 325.564 642.842C326.329 643.141 327.091 643.448 327.854 643.754C332.258 645.503 336.695 646.941 341.382 646.841C341.688 646.836 341.994 646.832 342.31 646.827C346.017 646.713 348.67 645.37 351.861 643.247C353.184 642.369 354.461 641.698 355.916 641.189C355.68 642.723 355.444 644.257 355.201 645.838C360.693 647.265 360.693 647.265 366.274 647.951C366.717 647.983 366.717 647.983 367.169 648.017C374.152 648.312 382.135 645.637 387.438 640.212C393.016 633.915 395.959 624.494 396.312 615.405C396.326 614.528 396.328 613.652 396.326 612.776C396.327 612.294 396.327 612.294 396.327 611.803C396.328 611.128 396.327 610.454 396.325 609.779C396.324 608.763 396.325 607.747 396.328 606.73C396.329 603.123 396.25 599.562 395.922 595.971C396.3 595.906 396.3 595.906 396.686 595.84C398.867 595.446 400.171 595 401.637 593.012C403.548 589.049 403.045 583.796 402.128 579.542C401.57 577.3 400.896 575.48 399.695 573.625C399.095 572.661 398.607 571.649 398.113 570.606C397.346 569.023 396.521 567.483 395.698 565.939C395.513 565.591 395.327 565.242 395.136 564.883C393.468 561.78 391.694 558.782 389.849 555.823C394.45 558.301 398.876 563.468 401.994 568.079C404.301 564.959 405.743 561.278 405.521 557.091C405.105 553.457 403.515 551.07 401.567 548.301C400.922 547.371 400.922 547.371 400.208 546.103C400.57 545.038 400.961 544.077 401.414 543.066C405.829 532.538 412.461 511.559 409.197 499.81C408.313 497.589 407.471 496.644 405.566 495.814C405.473 494.395 405.435 493.535 406.065 492.299C406.298 491.986 406.531 491.673 406.772 491.35C407.033 490.985 407.295 490.62 407.564 490.244C407.848 489.85 408.131 489.457 408.424 489.052C410.384 486.153 412.256 483.19 414.027 480.124C414.187 479.854 414.346 479.584 414.51 479.305C414.892 478.632 415.234 477.927 415.568 477.219C415.45 476.801 415.332 476.382 415.21 475.951C412.895 475.403 411.296 475.653 409.138 476.796C408.784 477.075 408.431 477.354 408.066 477.642C407.129 477.721 407.129 477.721 406.28 477.642C405.923 477.219 405.923 477.219 405.767 475.555C405.799 472.554 407.314 470.483 408.703 468.097C411.257 463.577 413.059 458.817 412.182 453.334C411.754 451.343 411.159 449.89 410.12 448.244C409.326 446.913 408.978 446.082 409.071 444.441C409.353 442.691 410.005 441.358 410.868 439.914C411.829 438.217 411.704 436.417 411.705 434.457C411.712 433.994 411.712 433.994 411.719 433.522C411.723 431.334 411.513 429.434 410.924 427.352C410.57 427.212 410.217 427.073 409.852 426.929C409.736 427.347 409.619 427.764 409.499 428.194C409.342 428.741 409.184 429.288 409.026 429.835C408.95 430.11 408.874 430.385 408.795 430.668C408.349 432.197 408.166 432.767 406.995 433.691C406.857 426.865 407.389 420.195 408.104 413.426C409.743 397.865 411.081 382.188 411.281 366.497C411.288 366.098 411.296 365.699 411.303 365.287C411.517 352.945 410.643 340.666 409.138 328.463C409.078 327.965 409.018 327.468 408.956 326.955C406.609 303.212 406.609 303.212 398.779 282.399C398.662 281.417 398.662 281.417 398.779 280.286C399.432 279.459 399.432 279.459 400.297 278.675C402.22 276.783 403.321 274.756 403.78 271.834C404.135 264.633 404.135 264.633 401.637 258.284C400.948 257.416 400.347 256.871 399.494 256.198C399.315 254.983 399.315 254.983 399.494 253.662C400.65 252.383 401.79 251.627 403.254 250.941C403.625 250.764 403.997 250.586 404.379 250.403C404.956 250.134 404.956 250.134 405.544 249.858C408.925 248.299 408.925 248.299 411.996 246.055C411.539 242.634 410.125 238.973 407.747 236.855C406.15 235.751 404.436 234.99 402.708 234.222C402.045 233.925 401.383 233.626 400.721 233.324C400.441 233.201 400.161 233.078 399.872 232.951C399.078 232.499 398.621 232.068 398.065 231.264C397.708 229.996 397.708 229.996 398.054 228.941C398.324 228.326 398.324 228.326 398.601 227.698C398.797 227.252 398.993 226.805 399.195 226.345C400.056 224.481 400.957 222.648 401.88 220.826C402.381 219.979 402.381 219.979 402.351 219.431C400.64 219.332 400.64 219.332 399.136 220.276C399.136 220.555 399.136 220.834 399.136 221.121C398.783 221.121 398.429 221.121 398.065 221.121C398.183 220.843 398.301 220.564 398.422 220.276C398.452 219.745 398.481 219.213 398.511 218.665C398.879 214.638 400.482 211.097 402.106 207.598C410.878 188.489 411.037 167.57 406.012 147.113C404.1 139.681 401.41 133.107 397.604 126.792C396.993 125.613 396.993 125.613 397.15 124.477C397.81 123.321 398.48 122.922 399.494 122.232C400.421 120.77 400.377 119.359 400.208 117.584C399.306 114.54 397.786 111.884 395.564 109.977C394.619 109.66 394.619 109.66 393.778 109.554C393.477 108.707 393.477 108.707 393.421 107.441C393.959 106.223 394.676 105.171 395.386 104.087C398.559 99.008 401.616 93.2256 401.451 86.6808C401.045 83.8063 399.846 80.9508 397.976 79.0211C397.087 78.2059 397.087 78.2059 396.279 78.2816C395.989 76.9081 395.989 76.9081 395.922 75.3234C396.77 74.3461 396.77 74.3461 397.708 73.6329C398.191 72.4882 398.088 71.516 398.065 70.2521C397.621 69.9553 397.174 69.6663 396.725 69.3805C396.352 69.1378 396.352 69.1378 395.972 68.8902C395.062 68.4991 394.668 68.5619 393.778 68.9843C393.543 69.2632 393.307 69.5421 393.064 69.8295C392.305 70.0936 392.305 70.0936 391.635 70.2521C392.296 66.4104 393.653 63.1714 395.172 59.7304C398.456 52.2926 401.607 44.9996 399.873 36.3118C398.942 33.1994 396.846 30.5348 394.381 29.0219C388.362 26.2459 381.758 28.6024 376.03 31.3462C373.994 32.435 372.149 33.7198 370.561 35.5986C369.965 35.6158 369.37 35.6167 368.775 35.5986C368.078 34.092 367.814 32.6752 367.547 31.0012C367.363 29.9879 367.363 29.9879 366.631 28.837C365.28 28.6524 364.241 28.8032 362.926 29.2068C361.92 29.9844 361.92 29.9844 361.776 31.1299C361.684 32.2022 361.634 33.2534 361.631 34.3308C360.252 34.2367 359.391 34.174 358.327 33.0894C357.776 31.95 357.508 31.1028 357.22 29.8572C356.112 25.3784 354.491 19.9515 351.279 17.0289C346.91 14.3195 341.178 15.5528 336.641 17.1519C331.634 19.0399 327.253 21.616 323.383 25.8474C322.173 26.8636 321.303 27.0323 319.839 27.1466C319.743 26.8524 319.647 26.5582 319.548 26.2552C319.091 24.9391 318.584 23.6686 318.053 22.3923C317.868 21.9456 317.684 21.4989 317.494 21.0386C317.071 19.9173 317.071 19.9173 316.267 19.5397C313.532 19.3131 311.179 20.5997 308.758 21.9268C306.382 23.1888 306.382 23.1888 304.836 22.4979C303.983 22.0493 303.15 21.5865 302.314 21.0981C296.629 17.8863 291.213 16.8538 284.959 16.8939C284.12 16.8984 283.281 16.8939 282.442 16.8885C279.581 16.8858 276.847 17.0436 274.023 17.6578C272.06 18.0425 270.201 18.1089 268.29 17.4267C265.836 16.639 263.128 16.5156 260.745 17.6644C259.311 18.3386 258.211 18.2486 256.682 18.0606C252.485 17.5865 248.832 19.2508 245.184 21.6527C245.066 21.9317 244.949 22.2106 244.827 22.4979C244.031 23.1372 243.515 23.3395 242.55 23.3696C239.859 22.081 238.679 18.3028 237.527 15.3929C235.455 9.55291 235.455 9.55291 231.611 5.59382Z" fill="#010100"/>
</svg>
