<svg width="24" height="18" viewBox="0 0 24 18" fill="none" xmlns="http://www.w3.org/2000/svg">
  <rect width="24" height="18" fill="#DE2910"/>
  <g fill="#FFDE00">
    <path d="M4.5 4.5L5.5 6L4 6.5L5 8L4.5 9.5L3 8.5L1.5 9.5L2 8L1 6.5L2.5 6L4.5 4.5Z"/>
    <path d="M7 2L7.5 3L6.5 3.5L7.5 4.5L7 6L6 5L5 6L5.5 4.5L4.5 3.5L5.5 3L7 2Z"/>
    <path d="M9 1L9.5 2L8.5 2.5L9.5 3.5L9 5L8 4L7 5L7.5 3.5L6.5 2.5L7.5 2L9 1Z"/>
    <path d="M11 2L11.5 3L10.5 3.5L11.5 4.5L11 6L10 5L9 6L9.5 4.5L8.5 3.5L9.5 3L11 2Z"/>
    <path d="M13 4L13.5 5L12.5 5.5L13.5 6.5L13 8L12 7L11 8L11.5 6.5L10.5 5.5L11.5 5L13 4Z"/>
    <path d="M15 6L15.5 7L14.5 7.5L15.5 8.5L15 10L14 9L13 10L13.5 8.5L12.5 7.5L13.5 7L15 6Z"/>
    <path d="M17 8L17.5 9L16.5 9.5L17.5 10.5L17 12L16 11L15 12L15.5 10.5L14.5 9.5L15.5 9L17 8Z"/>
    <path d="M19 6L19.5 7L18.5 7.5L19.5 8.5L19 10L18 9L17 10L17.5 8.5L16.5 7.5L17.5 7L19 6Z"/>
    <path d="M21 4L21.5 5L20.5 5.5L21.5 6.5L21 8L20 7L19 8L19.5 6.5L18.5 5.5L19.5 5L21 4Z"/>
    <path d="M23 2L23.5 3L22.5 3.5L23.5 4.5L23 6L22 5L21 6L21.5 4.5L20.5 3.5L21.5 3L23 2Z"/>
  </g>
</svg>
