<svg width="24" height="18" viewBox="0 0 24 18" fill="none" xmlns="http://www.w3.org/2000/svg">
  <rect width="24" height="18" fill="#B22234"/>
  <rect width="24" height="2" fill="white"/>
  <rect y="4" width="24" height="2" fill="white"/>
  <rect y="8" width="24" height="2" fill="white"/>
  <rect y="12" width="24" height="2" fill="white"/>
  <rect y="16" width="24" height="2" fill="white"/>
  <rect width="9.6" height="9.6" fill="#3C3B6E"/>
  <g fill="white">
    <circle cx="1.8" cy="1.8" r="0.6"/>
    <circle cx="3.6" cy="1.8" r="0.6"/>
    <circle cx="5.4" cy="1.8" r="0.6"/>
    <circle cx="7.2" cy="1.8" r="0.6"/>
    <circle cx="9" cy="1.8" r="0.6"/>
    <circle cx="2.7" cy="3.6" r="0.6"/>
    <circle cx="4.5" cy="3.6" r="0.6"/>
    <circle cx="6.3" cy="3.6" r="0.6"/>
    <circle cx="8.1" cy="3.6" r="0.6"/>
    <circle cx="1.8" cy="5.4" r="0.6"/>
    <circle cx="3.6" cy="5.4" r="0.6"/>
    <circle cx="5.4" cy="5.4" r="0.6"/>
    <circle cx="7.2" cy="5.4" r="0.6"/>
    <circle cx="9" cy="5.4" r="0.6"/>
    <circle cx="2.7" cy="7.2" r="0.6"/>
    <circle cx="4.5" cy="7.2" r="0.6"/>
    <circle cx="6.3" cy="7.2" r="0.6"/>
    <circle cx="8.1" cy="7.2" r="0.6"/>
    <circle cx="1.8" cy="9" r="0.6"/>
    <circle cx="3.6" cy="9" r="0.6"/>
    <circle cx="5.4" cy="9" r="0.6"/>
    <circle cx="7.2" cy="9" r="0.6"/>
    <circle cx="9" cy="9" r="0.6"/>
  </g>
</svg>
