<svg width="516" height="720" viewBox="0 0 516 720" fill="none" xmlns="http://www.w3.org/2000/svg">
<path d="M286.04 1.16751C286.535 1.2693 286.535 1.2693 287.039 1.37315C292.09 3.30639 294.783 10.9806 296.974 15.7319C297.611 17.0771 298.287 18.3505 299.05 19.6211C300.67 18.9906 302.182 18.2206 303.714 17.3923C309.158 14.458 314.446 12.1585 320.567 14.128C320.857 14.279 321.147 14.4301 321.445 14.5857C322.325 14.4402 323.203 14.2863 324.08 14.128C325.059 14.0872 326.038 14.0684 327.017 14.0707C327.508 14.0696 327.999 14.0684 328.504 14.0672C329.789 14.128 329.789 14.128 331.106 14.5857C332.043 14.5224 332.043 14.5224 333.081 14.33C338.813 13.4396 344.421 13.059 350.209 13.0408C350.536 13.0374 350.862 13.034 351.199 13.0305C359.861 12.9557 368.18 14.3726 375.459 19.6211C375.749 19.9232 376.038 20.2254 376.337 20.5367C376.85 20.2776 377.364 20.0186 377.893 19.7517C378.573 19.4124 379.253 19.0732 379.932 18.7342C380.439 18.478 380.439 18.478 380.956 18.2165C383.997 16.7061 387.056 15.7062 390.425 16.6814C393.067 17.8396 394.283 19.8257 395.659 22.3677C395.883 22.2066 396.107 22.0455 396.338 21.8795C405.477 15.4102 417.356 9.73897 428.759 11.6675C433.861 13.0173 437.166 15.7768 439.847 20.4222C441.223 22.9866 442.418 25.6176 443.524 28.3186C443.796 28.1812 444.067 28.0437 444.346 27.902C447.018 26.6515 449.007 26.1347 451.868 26.9453C454.118 27.8834 454.7 29.4024 455.82 31.523C456.107 31.3939 456.393 31.2648 456.689 31.1318C465.841 27.0516 475.742 22.8113 485.678 26.3678C490.246 28.3655 493.595 31.6091 495.762 36.2276C498.641 44.061 497.306 52.6707 494.14 60.16C492.517 63.8235 490.589 67.1622 488.316 70.4329C488.713 70.633 488.713 70.633 489.119 70.8371C491.378 72.0448 492.888 72.9995 494.025 75.4683C494.6 77.5856 494.481 78.7292 493.64 80.6754C493.22 81.7142 493.22 81.7142 493.146 82.7926C493.753 83.9462 494.507 84.8172 495.344 85.8002C497.972 89.1348 498.77 92.9442 498.596 97.1817C497.875 103.722 495.044 110.037 490.964 115.058C490.388 115.801 490.388 115.801 490.512 117.125C490.883 117.427 491.254 117.729 491.637 118.04C494.436 120.328 496.494 124.012 497.099 127.653C497.371 130.72 496.562 133.405 495.219 136.111C494.772 137.27 494.772 137.27 495.366 138.318C495.63 138.688 495.894 139.059 496.165 139.441C502.138 148.615 505.143 159.913 507.199 170.683C507.271 171.053 507.342 171.424 507.417 171.805C511.121 191.707 507.093 211.468 498.226 229.236C497.513 230.615 497.513 230.615 497.099 232.024C497.615 232.321 497.615 232.321 498.142 232.624C499.294 233.397 499.294 233.397 500.173 234.77C500.074 237.621 499.315 239.664 498.032 242.152C497.877 242.461 497.723 242.771 497.563 243.09C497.261 243.695 496.958 244.299 496.651 244.902C496.051 246.093 495.476 247.297 494.903 248.503C495.397 248.654 495.397 248.654 495.901 248.807C501.656 250.666 506.156 253.288 509.08 258.893C510.748 262.264 512.373 265.622 511.206 269.446C507.805 273.2 502.883 274.905 498.416 276.884C498.564 277.195 498.713 277.505 498.865 277.825C501.802 284.213 502.62 291.544 500.804 298.457C499.879 301.158 498.35 304.385 495.781 305.724C496.065 307.63 496.681 309.204 497.443 310.958C498.81 314.187 499.853 317.469 500.804 320.858C500.887 321.152 500.97 321.445 501.055 321.747C505.176 336.344 507.925 351.121 509.532 366.234C509.567 366.57 509.603 366.906 509.64 367.252C510.491 375.363 510.817 383.427 510.822 391.583C510.822 392.311 510.822 392.311 510.822 393.053C510.802 414.507 510.122 437.731 505.003 458.617C505.474 458.645 505.945 458.673 506.43 458.703C508.436 459.156 508.736 459.605 509.833 461.363C511.571 467.035 512.114 473.655 509.833 479.216C509.571 479.641 509.308 480.066 509.038 480.504C508.779 480.999 508.779 480.999 508.516 481.505C509.188 483.604 510.19 485.586 511.098 487.585C513.135 492.736 512.322 498.636 510.526 503.703C509.499 506.085 508.223 508.229 506.76 510.344C507.109 510.356 507.459 510.368 507.82 510.38C511.137 510.565 513.048 511.004 515.487 513.463C516.218 514.944 516.307 516.07 515.981 517.668C513.73 524.065 509.071 529.823 505.003 535.063C505.521 536.195 506.035 537.109 506.76 538.125C512 547.173 506.776 563.22 504.564 572.6C502.794 579.708 500.33 586.465 497.538 593.199C497.745 593.373 497.952 593.547 498.166 593.726C499.701 595.048 500.953 596.188 501.874 598.063C502.045 598.4 502.216 598.736 502.392 599.082C504.157 603.263 503.577 608.276 502.082 612.443C501.221 614.415 500.201 616.261 499.112 618.105C498.883 618.496 498.653 618.888 498.416 619.292C498.22 619.576 498.023 619.86 497.821 620.152C497.362 621.727 498.014 623.051 498.553 624.528C500.491 630.065 501.425 637.36 499.368 643.047C497.57 646.426 495.221 648.51 491.829 649.962C491.934 650.644 491.934 650.644 492.042 651.34C492.288 653.145 492.354 654.941 492.373 656.763C492.377 657.099 492.381 657.436 492.386 657.782C492.531 672.002 492.531 672.002 490.512 678.801C490.403 679.171 490.295 679.54 490.183 679.92C487.16 689.893 482.112 697.691 473.084 702.662C461.009 708.691 447.692 709.278 435.049 704.833C432.735 704.058 431.523 703.87 429.225 704.837C416.633 710.044 400.887 703.549 389.072 698.485C388.84 698.842 388.84 698.842 388.604 699.206C386.823 701.828 385.054 703.849 382.046 704.894C376.508 705.294 372.614 704.558 367.994 701.232C367.164 700.832 367.164 700.832 366.237 700.774C365.316 701.239 365.316 701.239 364.426 701.976C352.274 710.888 335.183 710.226 321.123 707.742C314.612 706.494 308.573 704.075 302.563 701.232C302.255 701.629 301.947 702.027 301.63 702.437C298.094 706.94 294.761 710.858 288.922 711.703C283.294 712.071 278.461 709.784 273.58 707.183C273.308 707.493 273.035 707.803 272.755 708.123C266.649 714.812 259.072 719.74 250.004 720.17C237.587 720.422 222.842 717.853 213.089 709.1C211.999 708.142 211.999 708.142 210.784 707.64C209.287 707.961 208.147 708.542 206.797 709.284C204.871 710.253 203.209 710.32 201.123 709.929C198.087 708.749 196.561 706.405 194.975 703.521C194.975 703.218 194.975 702.916 194.975 702.605C194.483 702.761 193.99 702.917 193.483 703.077C166.47 711.454 136.5 718.593 109.332 707.558C108.908 707.386 108.485 707.215 108.049 707.038C107.487 706.8 107.487 706.8 106.914 706.558C104.995 706.043 103.523 706.699 101.812 707.607C101.305 707.869 101.305 707.869 100.787 708.138C100.254 708.415 100.254 708.415 99.7107 708.699C94.0839 711.559 87.2301 714.566 80.9378 712.561C77.9123 711.391 76.4672 709.699 75.0918 706.725C75.0918 706.121 75.0918 705.516 75.0918 704.894C74.8362 704.896 74.5807 704.898 74.3174 704.9C71.6094 704.921 68.9014 704.934 66.1934 704.944C65.1884 704.949 64.1835 704.955 63.1786 704.963C50.0491 705.065 35.5369 704.671 25.0307 695.281C24.712 694.999 24.3933 694.718 24.0649 694.428C19.2032 689.765 16.469 682.928 16.1948 676.105C16.1222 672.345 16.1578 668.295 17.6237 664.797C18.0585 663.539 18.0893 663.074 17.5654 661.864C16.8465 661.065 16.8465 661.065 15.9461 660.348C12.4486 657.263 10.223 654.251 9.50833 649.379C9.38937 646.565 10.2769 644.818 12.0488 642.781C13.3698 641.692 14.7198 641.367 16.3458 640.97C17.0582 640.793 17.0582 640.793 17.7851 640.612C18.1473 640.525 18.5096 640.439 18.8828 640.349C18.6049 639.857 18.6049 639.857 18.3214 639.354C10.6251 625.658 2.57042 611.278 1.7566 595.031C1.73339 594.629 1.71018 594.228 1.68627 593.815C1.45468 585.837 1.93713 575.319 7.03649 568.983C7.59729 567.989 7.59729 567.989 7.15485 566.705C6.96748 566.233 6.78011 565.762 6.58706 565.276C6.28414 564.361 5.98223 563.445 5.68135 562.529C5.53134 562.076 5.38134 561.623 5.22678 561.156C4.27722 557.865 3.70922 553.981 4.91287 550.685C5.95127 548.818 6.85141 547.767 8.86335 547.11C10.5046 546.703 11.9145 546.508 13.6132 546.508C13.4751 546.123 13.337 545.739 13.1946 545.343C6.74985 526.464 8.03425 504.674 9.35909 484.995C9.3978 484.407 9.39781 484.407 9.4373 483.807C9.72725 479.53 10.1542 475.288 10.7468 471.044C10.7989 470.665 10.851 470.286 10.9047 469.896C11.257 467.503 11.7919 465.338 12.7932 463.137C13.2131 462.191 13.5221 461.492 13.6132 460.448C13.0645 459.311 13.0645 459.311 12.2409 458.159C8.61801 452.475 6.42633 445.327 6.14793 438.475C6.13038 438.093 6.11284 437.712 6.09476 437.318C5.97471 432.188 6.28536 425.648 9.85312 421.738C10.6411 420.72 10.6411 420.72 10.4329 419.764C10.0905 418.641 9.67342 417.583 9.22186 416.503C8.94081 415.798 8.94081 415.798 8.65408 415.079C8.27619 414.132 7.89288 413.187 7.50307 412.245C6.19067 408.844 5.9859 404.928 6.96959 401.396C7.7618 399.577 8.59957 398.117 10.2099 396.99C12.1673 396.242 13.7524 396.186 15.8089 396.361C15.7024 396.043 15.596 395.725 15.4864 395.397C13.9742 390.614 13.0967 385.756 12.2958 380.797C12.2424 380.484 12.1891 380.17 12.1341 379.847C10.2026 368.187 10.3455 354.618 14.9306 343.718C15.2256 342.956 15.5191 342.193 15.8089 341.429C15.6288 341.23 15.4488 341.03 15.2634 340.825C13.068 338.295 12.1105 336.282 12.2135 332.767C12.576 328.578 14.2394 325.905 17.2652 323.165C18.0045 322.661 18.0045 322.661 19.3219 322.661C19.0508 322.273 18.7796 321.884 18.5003 321.484C14.9986 316.443 11.6166 311.436 9.02974 305.809C8.88476 305.498 8.73977 305.186 8.59039 304.865C6.9063 301.068 6.20847 297.499 7.0262 293.364C7.78278 291.235 8.60538 289.878 10.5393 288.786C11.7246 288.714 11.7246 288.714 13.0368 288.74C13.6915 288.75 13.6915 288.75 14.3594 288.76C14.6928 288.769 15.0262 288.777 15.3697 288.786C15.2204 288.327 15.2204 288.327 15.0681 287.859C10.787 274.598 9.03401 262.683 12.1963 248.848C12.3213 247.265 11.9807 246.767 11.0607 245.528C8.62297 242.196 8.41402 238.849 8.78273 234.77C9.5441 231.555 11.1534 229.044 13.1741 226.53C12.9612 226.302 12.7484 226.074 12.5291 225.838C4.39875 216.76 0.840195 205.271 1.24071 193.041C1.72833 184.779 4.51569 175.512 10.0178 169.331C10.6738 168.392 10.6738 168.392 10.2991 167.178C10.1248 166.749 9.95041 166.319 9.77078 165.877C8.32675 162.224 7.74944 159.268 9.08463 155.463C9.86103 153.614 10.5513 152.453 12.2958 151.457C13.1711 151.287 14.0494 151.132 14.9306 150.999C14.7311 150.447 14.7311 150.447 14.5275 149.884C13.2435 146.128 12.3046 142.373 11.5273 138.468C11.4349 138.006 11.3426 137.544 11.2474 137.068C10.2555 131.933 9.99693 126.964 9.99035 121.731C9.98946 121.392 9.98857 121.052 9.98767 120.703C9.97747 104.563 9.97748 104.563 11.8567 100.645C11.4038 100.683 10.9509 100.721 10.4844 100.76C8.43698 100.622 7.67532 100.23 6.14793 98.8143C3.86492 95.8818 4.0764 92.3352 4.3914 88.7435C4.89293 85.6758 6.11153 83.2458 7.72778 80.6522C8.3568 79.5654 8.80009 78.488 9.22186 77.2994C8.79986 76.9409 8.79986 76.9409 8.36933 76.5752C4.23583 72.9085 0.596249 68.0834 -0.166321 62.3058C-0.373215 57.3036 1.84351 53.6818 4.96969 50.0834C11.4886 42.7479 19.0322 37.9111 28.1097 34.7309C29.2988 34.3129 30.4576 33.8521 31.6176 33.354C31.4727 33.1275 31.3278 32.9009 31.1785 32.6674C30.5592 31.0534 30.4909 29.5593 30.7394 27.8609C31.8849 25.377 33.256 24.4258 35.5698 23.2832C39.9976 22.0499 44.0013 24.0497 47.8518 26.1425C49.183 26.9453 49.183 26.9453 50.0149 27.8233C51.0182 28.5012 51.0182 28.5012 52.5228 27.8287C53.1963 27.5218 53.8668 27.2076 54.5349 26.8881C96.8672 8.11099 96.8672 8.11099 111.174 14.1154C113.492 15.4704 114.226 17.2634 114.971 19.7928C115.151 20.4967 115.327 21.202 115.492 21.9099C115.925 21.7356 115.925 21.7356 116.367 21.5577C134.898 14.569 158.231 18.6707 176.532 24.6565C176.876 24.175 177.22 23.6935 177.574 23.1974C179.526 20.8099 182.352 19.2707 185.314 18.7056C189.063 18.4087 192.134 18.5105 195.414 20.5367C195.414 20.8388 195.414 21.1409 195.414 21.4522C195.93 21.2698 196.446 21.0875 196.977 20.8996C206.303 17.6655 214.572 17.1208 224.397 17.3323C224.899 17.3394 225.401 17.3465 225.918 17.3538C234.962 17.4876 243.821 18.6206 252.634 20.753C254.239 21.0799 255.703 21.0963 257.332 20.9944C257.187 21.5987 257.042 22.2029 256.893 22.8255C257.183 22.8255 257.473 22.8255 257.771 22.8255C257.807 22.3912 257.844 21.9569 257.881 21.5094C258.21 20.0789 258.21 20.0789 258.974 19.5424C262.407 18.2319 265.914 19.3773 269.213 20.5939C270.457 20.9792 271.414 21.0737 272.702 20.9944C272.81 20.4563 272.919 19.9181 273.031 19.3636C273.213 18.5337 273.396 17.704 273.58 16.8745C273.693 16.3382 273.805 15.8018 273.921 15.2491C275.315 9.14534 277.663 4.813 282.802 1.31056C284.188 0.829001 284.656 0.85974 286.04 1.16751Z" fill="#E1F885"/>
<path d="M286.04 1.16751C286.535 1.2693 286.535 1.2693 287.039 1.37315C292.09 3.30639 294.783 10.9806 296.974 15.7319C297.611 17.0771 298.287 18.3505 299.05 19.6211C300.67 18.9906 302.182 18.2206 303.714 17.3923C309.158 14.458 314.446 12.1585 320.567 14.128C320.857 14.279 321.147 14.4301 321.445 14.5857C322.325 14.4402 323.203 14.2863 324.08 14.128C325.059 14.0872 326.038 14.0684 327.017 14.0707C327.508 14.0696 327.999 14.0684 328.504 14.0672C329.789 14.128 329.789 14.128 331.106 14.5857C332.043 14.5224 332.043 14.5224 333.081 14.33C338.813 13.4396 344.421 13.059 350.209 13.0408C350.536 13.0374 350.862 13.034 351.199 13.0305C359.861 12.9557 368.18 14.3726 375.459 19.6211C375.749 19.9232 376.038 20.2254 376.337 20.5367C376.85 20.2776 377.364 20.0186 377.893 19.7517C378.573 19.4124 379.253 19.0732 379.932 18.7342C380.439 18.478 380.439 18.478 380.956 18.2165C383.997 16.7061 387.056 15.7062 390.425 16.6814C393.067 17.8396 394.283 19.8257 395.659 22.3677C395.883 22.2066 396.107 22.0455 396.338 21.8795C405.477 15.4102 417.356 9.73897 428.759 11.6675C433.861 13.0173 437.166 15.7768 439.847 20.4222C441.223 22.9866 442.418 25.6176 443.524 28.3186C443.796 28.1812 444.067 28.0437 444.346 27.902C447.018 26.6515 449.007 26.1347 451.868 26.9453C454.118 27.8834 454.7 29.4024 455.82 31.523C456.107 31.3939 456.393 31.2648 456.689 31.1318C465.841 27.0516 475.742 22.8113 485.678 26.3678C490.246 28.3655 493.595 31.6091 495.762 36.2276C498.641 44.061 497.306 52.6707 494.14 60.16C492.517 63.8235 490.589 67.1622 488.316 70.4329C488.713 70.633 488.713 70.633 489.119 70.8371C491.378 72.0448 492.888 72.9995 494.025 75.4683C494.6 77.5856 494.481 78.7292 493.64 80.6754C493.22 81.7142 493.22 81.7142 493.146 82.7926C493.753 83.9462 494.507 84.8172 495.344 85.8002C497.972 89.1348 498.77 92.9442 498.596 97.1817C497.875 103.722 495.044 110.037 490.964 115.058C490.388 115.801 490.388 115.801 490.512 117.125C490.883 117.427 491.254 117.729 491.637 118.04C494.436 120.328 496.494 124.012 497.099 127.653C497.371 130.72 496.562 133.405 495.219 136.111C494.772 137.27 494.772 137.27 495.366 138.318C495.63 138.688 495.894 139.059 496.165 139.441C502.138 148.615 505.143 159.913 507.199 170.683C507.271 171.053 507.342 171.424 507.417 171.805C511.121 191.707 507.093 211.468 498.226 229.236C497.513 230.615 497.513 230.615 497.099 232.024C497.615 232.321 497.615 232.321 498.142 232.624C499.294 233.397 499.294 233.397 500.173 234.77C500.074 237.621 499.315 239.664 498.032 242.152C497.877 242.461 497.723 242.771 497.563 243.09C497.261 243.695 496.958 244.299 496.651 244.902C496.051 246.093 495.476 247.297 494.903 248.503C495.397 248.654 495.397 248.654 495.901 248.807C501.656 250.666 506.156 253.288 509.08 258.893C510.748 262.264 512.373 265.622 511.206 269.446C507.805 273.2 502.883 274.905 498.416 276.884C498.564 277.195 498.713 277.505 498.865 277.825C501.802 284.213 502.62 291.544 500.804 298.457C499.879 301.158 498.35 304.385 495.781 305.724C496.065 307.63 496.681 309.204 497.443 310.958C498.81 314.187 499.853 317.469 500.804 320.858C500.887 321.152 500.97 321.445 501.055 321.747C505.176 336.344 507.925 351.121 509.532 366.234C509.567 366.57 509.603 366.906 509.64 367.252C510.491 375.363 510.817 383.427 510.822 391.583C510.822 392.311 510.822 392.311 510.822 393.053C510.802 414.507 510.122 437.731 505.003 458.617C505.474 458.645 505.945 458.673 506.43 458.703C508.436 459.156 508.736 459.605 509.833 461.363C511.571 467.035 512.114 473.655 509.833 479.216C509.571 479.641 509.308 480.066 509.038 480.504C508.779 480.999 508.779 480.999 508.516 481.505C509.188 483.604 510.19 485.586 511.098 487.585C513.135 492.736 512.322 498.636 510.526 503.703C509.499 506.085 508.223 508.229 506.76 510.344C507.109 510.356 507.459 510.368 507.82 510.38C511.137 510.565 513.048 511.004 515.487 513.463C516.218 514.944 516.307 516.07 515.981 517.668C513.73 524.065 509.071 529.823 505.003 535.063C505.521 536.195 506.035 537.109 506.76 538.125C512 547.173 506.776 563.22 504.564 572.6C502.794 579.708 500.33 586.465 497.538 593.199C497.745 593.373 497.952 593.547 498.166 593.726C499.701 595.048 500.953 596.188 501.874 598.063C502.045 598.4 502.216 598.736 502.392 599.082C504.157 603.263 503.577 608.276 502.082 612.443C501.221 614.415 500.201 616.261 499.112 618.105C498.883 618.496 498.653 618.888 498.416 619.292C498.22 619.576 498.023 619.86 497.821 620.152C497.362 621.727 498.014 623.051 498.553 624.528C500.491 630.065 501.425 637.36 499.368 643.047C497.57 646.426 495.221 648.51 491.829 649.962C491.934 650.644 491.934 650.644 492.042 651.34C492.288 653.145 492.354 654.941 492.373 656.763C492.377 657.099 492.381 657.436 492.386 657.782C492.531 672.002 492.531 672.002 490.512 678.801C490.403 679.171 490.295 679.54 490.183 679.92C487.16 689.893 482.112 697.691 473.084 702.662C461.009 708.691 447.692 709.278 435.049 704.833C432.735 704.058 431.523 703.87 429.225 704.837C416.633 710.044 400.887 703.549 389.072 698.485C388.84 698.842 388.84 698.842 388.604 699.206C386.823 701.828 385.054 703.849 382.046 704.894C376.508 705.294 372.614 704.558 367.994 701.232C367.164 700.832 367.164 700.832 366.237 700.774C365.316 701.239 365.316 701.239 364.426 701.976C352.274 710.888 335.183 710.226 321.123 707.742C314.612 706.494 308.573 704.075 302.563 701.232C302.255 701.629 301.947 702.027 301.63 702.437C298.094 706.94 294.761 710.858 288.922 711.703C283.294 712.071 278.461 709.784 273.58 707.183C273.308 707.493 273.035 707.803 272.755 708.123C266.649 714.812 259.072 719.74 250.004 720.17C237.587 720.422 222.842 717.853 213.089 709.1C211.999 708.142 211.999 708.142 210.784 707.64C209.287 707.961 208.147 708.542 206.797 709.284C204.871 710.253 203.209 710.32 201.123 709.929C198.087 708.749 196.561 706.405 194.975 703.521C194.975 703.218 194.975 702.916 194.975 702.605C194.483 702.761 193.99 702.917 193.483 703.077C166.47 711.454 136.5 718.593 109.332 707.558C108.908 707.386 108.485 707.215 108.049 707.038C107.487 706.8 107.487 706.8 106.914 706.558C104.995 706.043 103.523 706.699 101.812 707.607C101.305 707.869 101.305 707.869 100.787 708.138C100.254 708.415 100.254 708.415 99.7107 708.699C94.0839 711.559 87.2301 714.566 80.9378 712.561C77.9123 711.391 76.4672 709.699 75.0918 706.725C75.0918 706.121 75.0918 705.516 75.0918 704.894C74.8362 704.896 74.5807 704.898 74.3174 704.9C71.6094 704.921 68.9014 704.934 66.1934 704.944C65.1884 704.949 64.1835 704.955 63.1786 704.963C50.0491 705.065 35.5369 704.671 25.0307 695.281C24.712 694.999 24.3933 694.718 24.0649 694.428C19.2032 689.765 16.469 682.928 16.1948 676.105C16.1222 672.345 16.1578 668.295 17.6237 664.797C18.0585 663.539 18.0893 663.074 17.5654 661.864C16.8465 661.065 16.8465 661.065 15.9461 660.348C12.4486 657.263 10.223 654.251 9.50833 649.379C9.38937 646.565 10.2769 644.818 12.0488 642.781C13.3698 641.692 14.7198 641.367 16.3458 640.97C17.0582 640.793 17.0582 640.793 17.7851 640.612C18.1473 640.525 18.5096 640.439 18.8828 640.349C18.6049 639.857 18.6049 639.857 18.3214 639.354C10.6251 625.658 2.57042 611.278 1.7566 595.031C1.73339 594.629 1.71018 594.228 1.68627 593.815C1.45468 585.837 1.93713 575.319 7.03649 568.983C7.59729 567.989 7.59729 567.989 7.15485 566.705C6.96748 566.233 6.78011 565.762 6.58706 565.276C6.28414 564.361 5.98223 563.445 5.68135 562.529C5.53134 562.076 5.38134 561.623 5.22678 561.156C4.27722 557.865 3.70922 553.981 4.91287 550.685C5.95127 548.818 6.85141 547.767 8.86335 547.11C10.5046 546.703 11.9145 546.508 13.6132 546.508C13.4751 546.123 13.337 545.739 13.1946 545.343C6.74985 526.464 8.03425 504.674 9.35909 484.995C9.3978 484.407 9.39781 484.407 9.4373 483.807C9.72725 479.53 10.1542 475.288 10.7468 471.044C10.7989 470.665 10.851 470.286 10.9047 469.896C11.257 467.503 11.7919 465.338 12.7932 463.137C13.2131 462.191 13.5221 461.492 13.6132 460.448C13.0645 459.311 13.0645 459.311 12.2409 458.159C8.61801 452.475 6.42633 445.327 6.14793 438.475C6.13038 438.093 6.11284 437.712 6.09476 437.318C5.97471 432.188 6.28536 425.648 9.85312 421.738C10.6411 420.72 10.6411 420.72 10.4329 419.764C10.0905 418.641 9.67342 417.583 9.22186 416.503C8.94081 415.798 8.94081 415.798 8.65408 415.079C8.27619 414.132 7.89288 413.187 7.50307 412.245C6.19067 408.844 5.9859 404.928 6.96959 401.396C7.7618 399.577 8.59957 398.117 10.2099 396.99C12.1673 396.242 13.7524 396.186 15.8089 396.361C15.7024 396.043 15.596 395.725 15.4864 395.397C13.9742 390.614 13.0967 385.756 12.2958 380.797C12.2424 380.484 12.1891 380.17 12.1341 379.847C10.2026 368.187 10.3455 354.618 14.9306 343.718C15.2256 342.956 15.5191 342.193 15.8089 341.429C15.6288 341.23 15.4488 341.03 15.2634 340.825C13.068 338.295 12.1105 336.282 12.2135 332.767C12.576 328.578 14.2394 325.905 17.2652 323.165C18.0045 322.661 18.0045 322.661 19.3219 322.661C19.0508 322.273 18.7796 321.884 18.5003 321.484C14.9986 316.443 11.6166 311.436 9.02974 305.809C8.88476 305.498 8.73977 305.186 8.59039 304.865C6.9063 301.068 6.20847 297.499 7.0262 293.364C7.78278 291.235 8.60538 289.878 10.5393 288.786C11.7246 288.714 11.7246 288.714 13.0368 288.74C13.6915 288.75 13.6915 288.75 14.3594 288.76C14.6928 288.769 15.0262 288.777 15.3697 288.786C15.2204 288.327 15.2204 288.327 15.0681 287.859C10.787 274.598 9.03401 262.683 12.1963 248.848C12.3213 247.265 11.9807 246.767 11.0607 245.528C8.62297 242.196 8.41402 238.849 8.78273 234.77C9.5441 231.555 11.1534 229.044 13.1741 226.53C12.9612 226.302 12.7484 226.074 12.5291 225.838C4.39875 216.76 0.840195 205.271 1.24071 193.041C1.72833 184.779 4.51569 175.512 10.0178 169.331C10.6738 168.392 10.6738 168.392 10.2991 167.178C10.1248 166.749 9.95041 166.319 9.77078 165.877C8.32675 162.224 7.74944 159.268 9.08463 155.463C9.86103 153.614 10.5513 152.453 12.2958 151.457C13.1711 151.287 14.0494 151.132 14.9306 150.999C14.7311 150.447 14.7311 150.447 14.5275 149.884C13.2435 146.128 12.3046 142.373 11.5273 138.468C11.4349 138.006 11.3426 137.544 11.2474 137.068C10.2555 131.933 9.99693 126.964 9.99035 121.731C9.98946 121.392 9.98857 121.052 9.98767 120.703C9.97747 104.563 9.97748 104.563 11.8567 100.645C11.4038 100.683 10.9509 100.721 10.4844 100.76C8.43698 100.622 7.67532 100.23 6.14793 98.8143C3.86492 95.8818 4.0764 92.3352 4.3914 88.7435C4.89293 85.6758 6.11153 83.2458 7.72778 80.6522C8.3568 79.5654 8.80009 78.488 9.22186 77.2994C8.79986 76.9409 8.79986 76.9409 8.36933 76.5752C4.23583 72.9085 0.596249 68.0834 -0.166321 62.3058C-0.373215 57.3036 1.84351 53.6818 4.96969 50.0834C11.4886 42.7479 19.0322 37.9111 28.1097 34.7309C29.2988 34.3129 30.4576 33.8521 31.6176 33.354C31.4727 33.1275 31.3278 32.9009 31.1785 32.6674C30.5592 31.0534 30.4909 29.5593 30.7394 27.8609C31.8849 25.377 33.256 24.4258 35.5698 23.2832C39.9976 22.0499 44.0013 24.0497 47.8518 26.1425C49.183 26.9453 49.183 26.9453 50.0149 27.8233C51.0182 28.5012 51.0182 28.5012 52.5228 27.8287C53.1963 27.5218 53.8668 27.2076 54.5349 26.8881C96.8672 8.11099 96.8672 8.11099 111.174 14.1154C113.492 15.4704 114.226 17.2634 114.971 19.7928C115.151 20.4967 115.327 21.202 115.492 21.9099C115.925 21.7356 115.925 21.7356 116.367 21.5577C134.898 14.569 158.231 18.6707 176.532 24.6565C176.876 24.175 177.22 23.6935 177.574 23.1974C179.526 20.8099 182.352 19.2707 185.314 18.7056C189.063 18.4087 192.134 18.5105 195.414 20.5367C195.414 20.8388 195.414 21.1409 195.414 21.4522C195.93 21.2698 196.446 21.0875 196.977 20.8996C206.303 17.6655 214.572 17.1208 224.397 17.3323C224.899 17.3394 225.401 17.3465 225.918 17.3538C234.962 17.4876 243.821 18.6206 252.634 20.753C254.239 21.0799 255.703 21.0963 257.332 20.9944C257.187 21.5987 257.042 22.2029 256.893 22.8255C257.183 22.8255 257.473 22.8255 257.771 22.8255C257.807 22.3912 257.844 21.9569 257.881 21.5094C258.21 20.0789 258.21 20.0789 258.974 19.5424C262.407 18.2319 265.914 19.3773 269.213 20.5939C270.457 20.9792 271.414 21.0737 272.702 20.9944C272.81 20.4563 272.919 19.9181 273.031 19.3636C273.213 18.5337 273.396 17.704 273.58 16.8745C273.693 16.3382 273.805 15.8018 273.921 15.2491C275.315 9.14534 277.663 4.813 282.802 1.31056C284.188 0.829001 284.656 0.85974 286.04 1.16751ZM284.558 6.34597C279.252 11.9092 277.915 18.8795 277.668 26.4786C277.532 27.8609 277.532 27.8609 276.654 28.7764C275.107 28.6054 273.839 28.0863 272.446 27.3888C272.073 27.2065 271.699 27.0241 271.315 26.8363C270.542 26.4533 269.77 26.0683 268.999 25.6811C266.671 24.5493 264.731 23.9151 262.162 23.741C263.208 24.9753 264.28 25.5904 265.703 26.2873C266.936 26.8934 267.782 27.3099 268.749 28.3186C269.024 29.2914 269.024 29.2914 269.189 30.1497C267.917 29.7889 266.645 29.4263 265.374 29.0625C264.836 28.9103 264.836 28.9103 264.287 28.7549C263.763 28.6045 263.763 28.6045 263.228 28.451C262.908 28.3599 262.588 28.2688 262.259 28.1749C261.284 27.8609 261.284 27.8609 260.28 27.4136C258.768 26.8193 257.232 26.5035 255.651 26.1872C255.322 26.1195 254.994 26.0519 254.655 25.9822C253.608 25.7671 252.561 25.555 251.514 25.3432C250.475 25.1312 249.437 24.9187 248.398 24.7058C247.728 24.5685 247.058 24.4316 246.388 24.2952C244.798 23.9702 243.216 23.6294 241.64 23.2403C236.161 21.9692 230.858 21.7732 225.275 21.8241C224.51 21.8291 223.744 21.8341 222.979 21.8391C221.138 21.8531 219.297 21.8751 217.456 21.8992C216.602 21.9087 215.749 21.9121 214.895 21.9146C208.545 21.9343 202.734 22.8909 197.003 25.8921C195.853 26.4876 195.853 26.4876 194.81 26.459C193.791 26.0794 192.912 25.6372 191.956 25.1143C189.904 24.0308 188.262 23.4368 185.944 24.0289C183.478 24.8833 181.385 26.0164 179.283 27.6034C178.955 27.8394 178.626 28.0755 178.288 28.3186C177.607 28.8488 177.607 28.8488 176.912 29.3897C175.518 30.1996 174.695 30.1913 173.152 29.8082C172.355 29.5603 171.56 29.3014 170.768 29.0339C164.717 27.1907 158.604 26.1092 152.379 25.1143C152.014 25.0528 151.648 24.9914 151.271 24.9281C139.673 23.0162 125.847 22.956 115.053 28.2328C113.736 28.7764 113.736 28.7764 112.528 28.805C111.54 28.3186 111.54 28.3186 110.799 27.2887C110.091 25.1806 109.873 23.1329 109.662 20.9157C109.473 19.5924 109.473 19.5924 108.569 18.9953C93.5883 14.5725 68.2151 26.9378 54.0706 31.9857C50.91 33.0269 50.91 33.0269 49.6549 32.6266C49.3916 32.4766 49.1283 32.3266 48.857 32.1721C48.561 32.0095 48.2649 31.8469 47.9599 31.6795C47.6571 31.5051 47.3542 31.3307 47.0422 31.1511C43.6903 29.2587 40.7566 28.0452 36.8872 28.3186C36.4525 28.7718 36.4525 28.7718 36.009 29.2342C36.1577 30.7872 36.8323 31.6868 37.7655 32.8677C39.5676 35.3075 39.5676 35.3075 39.522 37.0162C39.0177 37.9835 39.0177 37.9835 38.2046 38.8472C37.0742 39.0457 37.0742 39.0457 35.7071 39.0475C27.551 39.49 19.6263 43.7668 13.6132 49.3758C13.2396 49.7056 12.866 50.0355 12.4811 50.3754C9.51523 53.0458 6.52069 55.9291 5.26967 59.9044C5.33461 63.8989 6.90359 67.223 9.57866 70.061C10.4977 70.9698 11.4289 71.8156 12.4244 72.6323C14.8328 74.6319 14.8328 74.6319 15.3148 76.4983C14.7508 79.0182 13.5402 81.0304 12.2958 83.2503C11.8762 84.0661 11.464 84.8861 11.0607 85.7108C10.8858 86.0637 10.7109 86.4165 10.5307 86.7801C9.58203 89.0889 9.54625 91.307 9.661 93.7789C9.95082 94.2321 10.2407 94.6853 10.5393 95.1522C11.8711 95.3445 13.1718 95.3535 14.5155 95.3793C15.8089 95.61 15.8089 95.61 16.8724 96.3896C17.5654 97.441 17.5654 97.441 17.5757 98.5801C17.4817 99.0067 17.3877 99.4333 17.2909 99.8729C17.1953 100.358 17.0996 100.843 17.001 101.343C16.8974 101.868 16.7939 102.393 16.6871 102.934C14.4985 117.899 15.3077 131.379 18.8828 145.964C19.245 147.461 19.6057 148.959 19.9656 150.456C20.1878 151.379 20.4116 152.301 20.6372 153.223C21.3065 155.977 21.8885 158.737 22.3959 161.528C21.315 160.437 20.5232 159.307 19.6787 158.009C18.6131 156.493 18.6131 156.493 17.0233 155.767C15.9512 155.754 15.9512 155.754 14.4915 156.035C13.3903 157.757 13.3453 159.536 13.6132 161.528C14.2305 163.707 14.9528 165.587 16.3578 167.336C17.4045 168.778 17.2587 169.839 17.1263 171.599C16.7549 171.665 16.3836 171.731 16.001 171.799C11.9084 173.738 10.1819 178.899 8.65622 183.04C7.89262 185.283 7.41597 187.569 7.0262 189.909C6.96902 190.23 6.91185 190.551 6.85295 190.882C5.38633 200.667 8.25249 210.276 13.4657 218.37C14.6373 220.04 16.0087 221.511 17.3901 222.991C19.5661 225.342 21.1661 227.874 22.835 230.65C20.0092 229.971 20.0092 229.971 17.1263 229.277C14.1671 234.443 14.1671 234.443 14.0523 240.263C14.6059 241.672 15.2304 242.827 16.248 243.925C17.4154 244.439 17.4154 244.439 18.4437 244.383C19.1225 246.724 18.7962 248.012 17.8673 250.248C16.3706 254.002 16.0549 257.749 15.8089 261.778C15.7823 262.197 15.7556 262.616 15.7282 263.048C15.4564 272.817 18.643 281.934 22.142 290.832C23.2607 293.713 24.0203 296.382 24.3908 299.472C24.6001 300.74 24.9739 301.803 25.4698 302.977C24.9658 302.452 24.4622 301.926 23.9603 301.398C23.4821 300.903 22.9966 300.416 22.5056 299.935C21.1905 298.627 20.1602 297.532 19.4043 295.796C18.0747 293.697 16.3903 292.959 14.0523 292.448C12.8717 292.535 12.8717 292.535 11.8567 292.906C10.6849 294.627 10.9058 296.496 11.1602 298.498C12.4874 305.074 16.7503 310.897 20.5295 316.195C25.6018 323.31 25.6018 323.31 25.6619 325.894C25.4698 327.239 25.4698 327.239 25.0307 327.696C24.2527 327.682 23.4749 327.65 22.6978 327.61C20.7634 327.569 20.7634 327.569 19.0749 328.469C17.7186 330.743 17.38 332.328 17.7386 334.985C18.1535 336.469 18.9648 336.977 20.2002 337.767C21.4627 338.597 21.4627 338.597 22.3959 339.598C22.5171 341.748 21.8944 342.984 20.7217 344.662C13.1797 355.805 16.9127 374.131 18.5109 386.589C18.6949 388.024 18.878 389.459 19.061 390.895C19.3048 392.805 19.5544 394.715 19.8076 396.624C19.9226 397.512 20.0374 398.401 20.1522 399.29C20.2079 399.699 20.2636 400.109 20.321 400.531C20.566 402.458 20.746 404.075 20.2002 405.974C19.9104 405.974 19.6205 405.974 19.3219 405.974C19.2676 405.644 19.2132 405.313 19.1572 404.973C18.8826 403.684 18.571 402.577 18.0045 401.396C16.2256 400.778 14.5947 400.693 12.7349 400.939C11.4791 401.879 11.2883 403.046 11.0058 404.572C10.7398 408.201 12.1989 411.589 13.5686 414.856C13.7115 415.2 13.8545 415.544 14.0017 415.899C14.2865 416.575 14.5796 417.248 14.8817 417.916C15.5696 419.532 15.8624 420.329 15.5378 422.108C14.9751 423.276 14.3849 424.232 13.6132 425.257C10.3745 430.165 11.1229 437.137 11.9647 442.74C13.1077 448.562 15.3137 453.713 18.6358 458.531C19.4987 459.856 19.7554 460.294 19.8159 461.936C19.3219 463.194 19.3219 463.194 18.4985 464.224C16.0199 467.568 15.9134 472.205 15.5618 476.269C15.5082 476.866 15.4545 477.463 15.3992 478.078C13.1683 503.402 13.5056 527.344 20.2002 552.001C19.9426 551.852 19.6851 551.703 19.4197 551.55C16.6521 550.232 12.9355 551.289 10.1001 552.001C9.30988 552.824 9.54785 554.005 9.52377 555.119C9.56644 559.622 10.5492 563.15 13.548 566.411C14.0523 567.107 14.0523 567.107 14.1347 568.566C13.4915 570.154 12.7063 570.616 11.4175 571.685C6.31382 578.669 6.79649 590.777 7.59012 599.083C9.79793 615.684 19.41 630.539 27.6654 644.469C27.1249 644.457 26.5843 644.444 26.0273 644.431C24.6503 644.432 23.5526 644.543 22.2586 645.07C19.9985 645.935 17.6965 646.576 15.3697 647.216C15.0729 650.052 15.4906 651.629 17.104 653.937C19.0399 656.217 21.5816 659.104 24.5915 659.575C24.841 662.436 24.3877 663.981 22.919 666.406C20.8366 670.192 21.4938 676.758 22.2569 680.881C22.6606 682.091 23.127 683.169 23.7133 684.294C23.8995 684.686 24.0857 685.077 24.2776 685.48C27.6153 691.925 33.7908 695.066 40.2356 697.284C47.1224 699.286 54.3592 699.475 61.465 699.336C62.7265 699.323 63.988 699.313 65.2495 699.304C66.1088 699.292 66.968 699.27 67.8268 699.239C74.8544 699 74.8544 699 76.7263 700.441C77.7993 701.652 78.4566 702.874 79.1752 704.349C79.9789 705.92 80.7036 706.666 82.1179 707.64C88.6414 709.156 95.8236 705.115 101.239 701.765C102.847 700.807 103.783 700.315 105.668 700.323C107.262 700.808 108.63 701.455 110.113 702.233C133.562 713.616 162.631 705.879 186.328 699.322C186.876 699.171 187.424 699.019 187.988 698.863C188.993 698.581 189.997 698.295 190.998 698.002C191.658 697.814 191.658 697.814 192.33 697.623C192.706 697.513 193.082 697.402 193.47 697.289C194.708 697.083 195.537 697.177 196.732 697.57C198.217 699.154 199.052 700.564 199.806 702.605C200.883 704.331 200.883 704.331 202.579 705.253C204.041 705.375 204.728 705.017 206.008 704.293C206.381 704.087 206.753 703.881 207.137 703.669C207.932 703.193 208.704 702.677 209.467 702.147C212.457 701.681 213.956 702.932 216.246 704.694C226.06 711.852 239.663 716.155 251.696 714.365C259.676 712.875 265.24 708.231 270.763 702.317C272.031 701.036 273.049 700.353 274.815 700.23C275.132 700.259 275.449 700.287 275.776 700.316C275.921 701.374 276.065 702.431 276.215 703.521C277.276 703.893 278.337 704.265 279.398 704.636C279.698 704.742 279.997 704.847 280.306 704.956C283.826 706.185 287.361 707.178 291.01 705.831C295.267 703.414 297.973 699.091 300.367 694.823C303.077 695.05 305.127 696.001 307.558 697.226C316.606 701.605 325.826 703.32 335.781 703.242C336.902 703.234 338.022 703.242 339.144 703.251C345.551 703.259 351.365 702.356 357.374 699.943C358.772 699.401 358.772 699.401 360.352 698.973C361.867 698.478 362.766 697.922 363.986 696.883C364.487 696.465 364.487 696.465 364.999 696.039C365.838 695.334 365.838 695.334 366.237 694.365C367.417 694.222 367.417 694.222 368.872 694.365C369.915 695.367 369.915 695.367 371.067 696.654C373.512 698.498 375.465 699.457 378.505 699.515C378.872 699.527 379.238 699.539 379.615 699.551C381.045 699.358 381.782 698.948 382.924 698.027C383.81 696.709 383.81 696.709 384.543 695.224C385.916 692.577 385.916 692.577 386.876 692.076C388.702 691.791 389.793 692.171 391.359 693.071C394.157 694.568 397.085 695.591 400.063 696.614C401.003 696.938 401.941 697.269 402.878 697.602C408.293 699.496 413.748 701.054 419.509 700.946C419.886 700.94 420.262 700.935 420.65 700.93C425.208 700.806 428.468 699.352 432.392 697.052C434.018 696.101 435.589 695.375 437.377 694.823C437.087 696.485 436.797 698.146 436.498 699.858C443.25 701.404 443.25 701.404 450.111 702.147C450.656 702.183 450.656 702.183 451.211 702.219C459.797 702.539 469.61 699.641 476.13 693.764C482.987 686.944 486.605 676.739 487.039 666.893C487.056 665.944 487.059 664.995 487.057 664.046C487.058 663.524 487.058 663.524 487.058 662.992C487.058 662.261 487.058 661.531 487.056 660.8C487.053 659.699 487.056 658.598 487.059 657.497C487.06 653.59 486.963 649.732 486.559 645.842C487.025 645.773 487.025 645.773 487.499 645.701C490.18 645.275 491.784 644.791 493.586 642.638C495.935 638.345 495.317 632.655 494.189 628.047C493.504 625.618 492.675 623.647 491.198 621.638C490.461 620.594 489.861 619.497 489.253 618.368C488.311 616.652 487.296 614.984 486.285 613.312C486.057 612.935 485.828 612.557 485.593 612.168C483.543 608.807 481.361 605.56 479.094 602.355C484.75 605.039 490.192 610.636 494.025 615.63C496.861 612.251 498.634 608.263 498.361 603.728C497.849 599.791 495.895 597.206 493.5 594.206C492.707 593.199 492.707 593.199 491.829 591.826C492.274 590.672 492.755 589.631 493.311 588.536C498.739 577.132 506.892 554.407 502.879 541.681C501.793 539.276 500.759 538.252 498.416 537.352C498.301 535.816 498.255 534.884 499.03 533.545C499.317 533.206 499.603 532.867 499.898 532.517C500.22 532.122 500.541 531.726 500.872 531.319C501.221 530.893 501.57 530.467 501.929 530.028C504.339 526.888 506.641 523.679 508.818 520.358C509.014 520.065 509.21 519.772 509.412 519.471C509.882 518.741 510.301 517.978 510.712 517.211C510.567 516.757 510.422 516.304 510.273 515.837C507.427 515.244 505.461 515.515 502.807 516.753C502.373 517.055 501.938 517.357 501.49 517.668C500.337 517.754 500.337 517.754 499.294 517.668C498.855 517.211 498.855 517.211 498.663 515.408C498.702 512.157 500.564 509.914 502.272 507.329C505.412 502.433 507.628 497.277 506.55 491.338C506.023 489.182 505.291 487.608 504.015 485.825C503.038 484.383 502.611 483.483 502.725 481.705C503.072 479.809 503.873 478.366 504.934 476.802C506.116 474.963 505.962 473.014 505.964 470.891C505.972 470.389 505.972 470.389 505.98 469.878C505.986 467.508 505.727 465.449 505.003 463.194C504.568 463.043 504.134 462.892 503.686 462.737C503.542 463.189 503.399 463.641 503.252 464.106C503.058 464.699 502.864 465.291 502.67 465.884C502.576 466.182 502.483 466.48 502.386 466.787C501.838 468.443 501.612 469.06 500.173 470.061C500.003 462.667 500.657 455.442 501.536 448.11C503.551 431.254 505.196 414.273 505.442 397.276C505.451 396.844 505.46 396.412 505.469 395.966C505.733 382.597 504.658 369.296 502.807 356.078C502.733 355.539 502.659 355 502.583 354.444C499.698 328.726 499.698 328.726 490.073 306.181C489.928 305.117 489.928 305.117 490.073 303.893C490.875 302.997 490.875 302.997 491.939 302.147C494.303 300.098 495.656 297.903 496.22 294.737C496.657 286.937 496.657 286.937 493.586 280.06C492.738 279.119 492 278.529 490.951 277.8C490.731 276.484 490.731 276.484 490.951 275.053C492.373 273.668 493.774 272.849 495.574 272.107C496.03 271.914 496.487 271.722 496.957 271.524C497.666 271.232 497.666 271.232 498.389 270.934C502.545 269.244 502.545 269.244 506.32 266.814C505.759 263.108 504.02 259.142 501.097 256.848C499.134 255.652 497.027 254.828 494.903 253.996C494.088 253.675 493.273 253.351 492.46 253.024C492.116 252.89 491.771 252.757 491.416 252.619C490.44 252.129 489.878 251.663 489.194 250.792C488.755 249.419 488.755 249.419 489.181 248.276C489.513 247.61 489.513 247.61 489.853 246.93C490.094 246.446 490.335 245.962 490.584 245.463C491.642 243.444 492.75 241.459 493.884 239.486C494.5 238.569 494.5 238.569 494.464 237.975C492.361 237.867 492.361 237.867 490.512 238.89C490.512 239.192 490.512 239.494 490.512 239.806C490.077 239.806 489.642 239.806 489.194 239.806C489.339 239.503 489.484 239.201 489.633 238.89C489.67 238.314 489.706 237.738 489.743 237.145C490.196 232.783 492.165 228.948 494.162 225.157C504.947 204.458 505.142 181.798 498.965 159.64C496.614 151.589 493.306 144.469 488.628 137.628C487.877 136.351 487.877 136.351 488.069 135.121C488.881 133.868 489.705 133.435 490.951 132.689C492.091 131.105 492.037 129.576 491.829 127.653C490.72 124.356 488.852 121.479 486.12 119.414C484.958 119.07 484.958 119.07 483.925 118.956C483.554 118.039 483.554 118.039 483.486 116.667C484.147 115.347 485.028 114.208 485.901 113.034C489.802 107.532 493.56 101.269 493.357 94.1794C492.858 91.0658 491.384 87.9727 489.084 85.8825C487.992 84.9995 487.992 84.9995 486.999 85.0814C486.642 83.5937 486.642 83.5937 486.559 81.877C487.602 80.8185 487.602 80.8185 488.755 80.046C489.35 78.806 489.223 77.7529 489.194 76.3839C488.649 76.0624 488.099 75.7493 487.547 75.4397C487.089 75.1768 487.089 75.1768 486.621 74.9086C485.502 74.485 485.019 74.553 483.925 75.0106C483.635 75.3127 483.345 75.6148 483.046 75.9261C482.113 76.2122 482.113 76.2122 481.29 76.3839C482.102 72.2225 483.77 68.714 485.638 64.9867C489.675 56.9301 493.549 49.0303 491.417 39.6197C490.273 36.2483 487.696 33.3621 484.666 31.7233C477.266 28.7164 469.146 31.2689 462.105 34.241C459.602 35.4204 457.333 36.812 455.381 38.8472C454.649 38.8658 453.917 38.8668 453.185 38.8472C452.329 37.2152 452.004 35.6806 451.676 33.8672C451.45 32.7697 451.45 32.7697 450.551 31.523C448.889 31.3231 447.612 31.4864 445.995 31.9235C444.759 32.7659 444.759 32.7659 444.581 34.0067C444.468 35.1682 444.407 36.3068 444.403 37.4739C442.707 37.372 441.649 37.304 440.341 36.1292C439.664 34.895 439.335 33.9773 438.98 32.6281C437.619 27.7766 435.625 21.8982 431.676 18.7324C426.305 15.7976 419.258 17.1336 413.681 18.8656C407.526 20.9108 402.14 23.7012 397.381 28.2847C395.894 29.3855 394.825 29.5682 393.024 29.6919C392.906 29.3733 392.789 29.0546 392.667 28.7263C392.106 27.3008 391.482 25.9246 390.828 24.5421C390.602 24.0582 390.376 23.5743 390.142 23.0758C389.622 21.8612 389.622 21.8612 388.633 21.4522C385.27 21.2068 382.378 22.6003 379.401 24.0378C376.481 25.4049 376.481 25.4049 374.581 24.6565C373.532 24.1706 372.507 23.6693 371.479 23.1402C364.491 19.6612 357.833 18.5428 350.144 18.5862C349.112 18.5911 348.081 18.5863 347.049 18.5804C343.532 18.5774 340.171 18.7484 336.699 19.4137C334.286 19.8304 332 19.9023 329.652 19.1634C326.634 18.3102 323.305 18.1764 320.375 19.4209C318.612 20.1512 317.26 20.0537 315.38 19.85C310.221 19.3364 305.73 21.1392 301.245 23.741C301.1 24.0431 300.956 24.3452 300.806 24.6565C299.827 25.3489 299.193 25.5681 298.007 25.6007C294.699 24.2049 293.247 20.1124 291.831 16.9604C289.284 10.6345 289.284 10.6345 284.558 6.34597Z" fill="#010100"/>
</svg>
